SplineFontDB: 3.0
FontName: Distinguish-ExtraBold
FullName: Distinguish ExtraBold
FamilyName: Distinguish
Weight: Bold
Copyright: Copyright 2015 Google Inc. All Rights Reserved.
Version: 2.000;GOOG;noto-source:20170915:90ef993387c0; ttfautohint (v1.7)
ItalicAngle: 0
UnderlinePosition: -125
UnderlineWidth: 50
Ascent: 800
Descent: 200
InvalidEm: 0
sfntRevision: 0x00020000
LayerCount: 2
Layer: 0 1 "Back" 1
Layer: 1 1 "Fore" 0
XUID: [1021 269 1684064080 1673525]
StyleMap: 0x0000
FSType: 0
OS2Version: 4
OS2_WeightWidthSlopeOnly: 1
OS2_UseTypoMetrics: 0
CreationTime: 1458096639
ModificationTime: 1516678656
PfmFamily: 17
TTFWeight: 800
TTFWidth: 5
LineGap: 0
VLineGap: 0
Panose: 2 11 9 2 4 5 4 2 2 4
OS2TypoAscent: 1069
OS2TypoAOffset: 0
OS2TypoDescent: -293
OS2TypoDOffset: 0
OS2TypoLinegap: 0
OS2WinAscent: 1069
OS2WinAOffset: 0
OS2WinDescent: 293
OS2WinDOffset: 0
HheadAscent: 1069
HheadAOffset: 0
HheadDescent: -293
HheadDOffset: 0
OS2SubXSize: 650
OS2SubYSize: 600
OS2SubXOff: 0
OS2SubYOff: 75
OS2SupXSize: 650
OS2SupYSize: 600
OS2SupXOff: 0
OS2SupYOff: 350
OS2StrikeYSize: 50
OS2StrikeYPos: 322
OS2CapHeight: 714
OS2XHeight: 536
OS2Vendor: 'GOOG'
OS2CodePages: 00000000.00000000
OS2UnicodeRanges: e00002ff.4000001f.08000029.00100000
Lookup: 1 0 0 "'aalt' Access All Alternates lookup 0" { "'aalt' Access All Alternates lookup 0 subtable"  } ['aalt' ('DFLT' <'dflt' > 'cyrl' <'dflt' > 'grek' <'dflt' > 'latn' <'CAT ' 'MAH ' 'MOL ' 'NAV ' 'ROM ' 'dflt' > ) ]
Lookup: 3 0 0 "'aalt' Access All Alternates lookup 1" { "'aalt' Access All Alternates lookup 1 subtable"  } ['aalt' ('DFLT' <'dflt' > 'cyrl' <'dflt' > 'grek' <'dflt' > 'latn' <'CAT ' 'MAH ' 'MOL ' 'NAV ' 'ROM ' 'dflt' > ) ]
Lookup: 4 0 0 "'ccmp' Glyph Composition/Decomposition lookup 2" { "'ccmp' Glyph Composition/Decomposition lookup 2 subtable"  } ['ccmp' ('DFLT' <'dflt' > 'cyrl' <'dflt' > 'grek' <'dflt' > 'latn' <'CAT ' 'MAH ' 'MOL ' 'NAV ' 'ROM ' 'dflt' > ) ]

StartChar: .notdef
Encoding: 65536 -1 0
Width: 592
Flags: W
LayerCount: 2
Fore
SplineSet
90 0 m 1,0,-1
 90 714 l 1,1,-1
 501 714 l 1,2,-1
 501 0 l 1,3,-1
 90 0 l 1,0,-1
141 51 m 1,4,-1
 450 51 l 1,5,-1
 450 663 l 1,6,-1
 141 663 l 1,7,-1
 141 51 l 1,4,-1
EndSplineSet
EndChar

StartChar: exclam
Encoding: 33 33 4
Width: 288
Flags: W
LayerCount: 2
Fore
SplineSet
214 244 m 1,0,-1
 75 244 l 1,1,-1
 50 714 l 1,2,-1
 239 714 l 1,3,-1
 214 244 l 1,0,-1
50 75 m 0,4,5
 50 124 50 124 77.5 143.5 c 128,-1,6
 105 163 105 163 144 163 c 0,7,8
 182 163 182 163 209 143.5 c 128,-1,9
 236 124 236 124 236 75 c 0,10,11
 236 28 236 28 209 7.5 c 128,-1,12
 182 -13 182 -13 144 -13 c 0,13,14
 105 -13 105 -13 77.5 7.5 c 128,-1,15
 50 28 50 28 50 75 c 0,4,5
EndSplineSet
Substitution2: "'smcp' Lowercase to Small Capitals lookup 34 subtable" exclam.sc
Substitution2: "'c2sc' Capitals to Small Capitals lookup 33 subtable" exclam.sc
EndChar

StartChar: quotedbl
Encoding: 34 34 5
Width: 496
Flags: W
LayerCount: 2
Fore
SplineSet
216 714 m 1,0,-1
 196 456 l 1,1,-1
 82 456 l 1,2,-1
 62 714 l 1,3,-1
 216 714 l 1,0,-1
434 714 m 1,4,-1
 414 456 l 1,5,-1
 300 456 l 1,6,-1
 280 714 l 1,7,-1
 434 714 l 1,4,-1
EndSplineSet
EndChar

StartChar: numbersign
Encoding: 35 35 6
Width: 653
Flags: W
LayerCount: 2
Fore
SplineSet
498 405 m 1,0,-1
 478 306 l 1,1,-1
 601 306 l 1,2,-1
 601 195 l 1,3,-1
 458 195 l 1,4,-1
 420 0 l 1,5,-1
 302 0 l 1,6,-1
 339 195 l 1,7,-1
 250 195 l 1,8,-1
 214 0 l 1,9,-1
 98 0 l 1,10,-1
 133 195 l 1,11,-1
 20 195 l 1,12,-1
 20 306 l 1,13,-1
 155 306 l 1,14,-1
 174 405 l 1,15,-1
 54 405 l 1,16,-1
 54 519 l 1,17,-1
 195 519 l 1,18,-1
 231 713 l 1,19,-1
 349 713 l 1,20,-1
 312 519 l 1,21,-1
 402 519 l 1,22,-1
 439 713 l 1,23,-1
 556 713 l 1,24,-1
 519 519 l 1,25,-1
 633 519 l 1,26,-1
 633 405 l 1,27,-1
 498 405 l 1,0,-1
272 306 m 1,28,-1
 361 306 l 1,29,-1
 380 405 l 1,30,-1
 291 405 l 1,31,-1
 272 306 l 1,28,-1
EndSplineSet
EndChar

StartChar: dollar
Encoding: 36 36 7
Width: 574
Flags: W
LayerCount: 2
Fore
SplineSet
248 -58 m 1,0,-1
 248 32 l 1,1,2
 183 34 183 34 134 44.5 c 128,-1,3
 85 55 85 55 43 73 c 1,4,-1
 43 213 l 1,5,6
 87 193 87 193 142.5 178.5 c 128,-1,7
 198 164 198 164 248 160 c 1,8,-1
 248 298 l 1,9,10
 178 322 178 322 130.5 349.5 c 128,-1,11
 83 377 83 377 59 414.5 c 128,-1,12
 35 452 35 452 35 507 c 0,13,14
 35 590 35 590 94 635 c 128,-1,15
 153 680 153 680 248 687 c 1,16,-1
 248 759 l 1,17,-1
 326 759 l 1,18,-1
 326 689 l 1,19,20
 384 686 384 686 434 674 c 128,-1,21
 484 662 484 662 528 643 c 1,22,-1
 483 520 l 1,23,24
 445 536 445 536 404.5 545.5 c 128,-1,25
 364 555 364 555 326 559 c 1,26,-1
 326 425 l 1,27,28
 388 404 388 404 437 381 c 128,-1,29
 486 358 486 358 514.5 321.5 c 128,-1,30
 543 285 543 285 543 226 c 0,31,32
 543 150 543 150 490 97 c 128,-1,33
 437 44 437 44 326 34 c 1,34,-1
 326 -58 l 1,35,-1
 248 -58 l 1,0,-1
248 452 m 1,36,-1
 248 557 l 1,37,38
 189 549 189 549 189 511 c 0,39,40
 189 491 189 491 202.5 478 c 128,-1,41
 216 465 216 465 248 452 c 1,36,-1
326 163 m 1,42,43
 388 173 388 173 388 215 c 0,44,45
 388 234 388 234 373.5 247 c 128,-1,46
 359 260 359 260 326 274 c 1,47,-1
 326 163 l 1,42,43
EndSplineSet
EndChar

StartChar: percent
Encoding: 37 37 8
Width: 923
Flags: W
LayerCount: 2
Fore
SplineSet
199 724 m 0,0,1
 283 724 283 724 330 665.5 c 128,-1,2
 377 607 377 607 377 501 c 256,3,4
 377 395 377 395 333 335.5 c 128,-1,5
 289 276 289 276 199 276 c 0,6,7
 117 276 117 276 71 335.5 c 128,-1,8
 25 395 25 395 25 501 c 256,9,10
 25 607 25 607 68 665.5 c 128,-1,11
 111 724 111 724 199 724 c 0,0,1
723 714 m 1,12,-1
 327 0 l 1,13,-1
 197 0 l 1,14,-1
 593 714 l 1,15,-1
 723 714 l 1,12,-1
201 614 m 256,16,17
 178 614 178 614 168.5 585 c 128,-1,18
 159 556 159 556 159 500 c 256,19,20
 159 444 159 444 168.5 414 c 128,-1,21
 178 384 178 384 201 384 c 256,22,23
 224 384 224 384 233.5 414 c 128,-1,24
 243 444 243 444 243 500 c 256,25,26
 243 556 243 556 233.5 585 c 128,-1,27
 224 614 224 614 201 614 c 256,16,17
719 439 m 0,28,29
 803 439 803 439 850 380.5 c 128,-1,30
 897 322 897 322 897 216 c 256,31,32
 897 110 897 110 853 50.5 c 128,-1,33
 809 -9 809 -9 719 -9 c 0,34,35
 637 -9 637 -9 591 50.5 c 128,-1,36
 545 110 545 110 545 216 c 256,37,38
 545 322 545 322 588 380.5 c 128,-1,39
 631 439 631 439 719 439 c 0,28,29
721 330 m 0,40,41
 698 330 698 330 688.5 300 c 128,-1,42
 679 270 679 270 679 215 c 256,43,44
 679 160 679 160 688.5 130 c 128,-1,45
 698 100 698 100 721 100 c 0,46,47
 763 100 763 100 763 215 c 256,48,49
 763 330 763 330 721 330 c 0,40,41
EndSplineSet
EndChar

StartChar: ampersand
Encoding: 38 38 9
Width: 773
Flags: W
LayerCount: 2
Fore
SplineSet
319 724 m 0,0,1
 412 724 412 724 470 681 c 128,-1,2
 528 638 528 638 528 562 c 0,3,4
 528 496 528 496 489 450 c 128,-1,5
 450 404 450 404 391 369 c 1,6,-1
 511 254 l 1,7,8
 530 284 530 284 543.5 319 c 128,-1,9
 557 354 557 354 566 391 c 1,10,-1
 741 391 l 1,11,12
 726 327 726 327 695.5 262 c 128,-1,13
 665 197 665 197 624 146 c 1,14,-1
 775 0 l 1,15,-1
 562 0 l 1,16,-1
 510 53 l 1,17,18
 467 24 467 24 419 7 c 128,-1,19
 371 -10 371 -10 297 -10 c 0,20,21
 214 -10 214 -10 156.5 16.5 c 128,-1,22
 99 43 99 43 68.5 89.5 c 128,-1,23
 38 136 38 136 38 195 c 0,24,25
 38 266 38 266 72.5 313 c 128,-1,26
 107 360 107 360 170 395 c 1,27,28
 135 435 135 435 118.5 472.5 c 128,-1,29
 102 510 102 510 102 556 c 0,30,31
 102 631 102 631 160 677.5 c 128,-1,32
 218 724 218 724 319 724 c 0,0,1
317 604 m 0,33,34
 294 604 294 604 275 591.5 c 128,-1,35
 256 579 256 579 256 548 c 0,36,37
 256 525 256 525 269 503.5 c 128,-1,38
 282 482 282 482 301 462 c 1,39,40
 336 482 336 482 355 504.5 c 128,-1,41
 374 527 374 527 374 553 c 0,42,43
 374 580 374 580 356.5 592 c 128,-1,44
 339 604 339 604 317 604 c 0,33,34
264 298 m 1,45,46
 239 279 239 279 226 257.5 c 128,-1,47
 213 236 213 236 213 209 c 0,48,49
 213 172 213 172 240.5 149.5 c 128,-1,50
 268 127 268 127 310 127 c 0,51,52
 341 127 341 127 365.5 135 c 128,-1,53
 390 143 390 143 408 155 c 1,54,-1
 264 298 l 1,45,46
EndSplineSet
Substitution2: "'smcp' Lowercase to Small Capitals lookup 34 subtable" ampersand.sc
Substitution2: "'c2sc' Capitals to Small Capitals lookup 33 subtable" ampersand.sc
EndChar

StartChar: quotesingle
Encoding: 39 39 10
Width: 278
Flags: W
LayerCount: 2
Fore
SplineSet
216 714 m 1,0,-1
 196 456 l 1,1,-1
 82 456 l 1,2,-1
 62 714 l 1,3,-1
 216 714 l 1,0,-1
EndSplineSet
EndChar

StartChar: parenleft
Encoding: 40 40 11
Width: 348
Flags: W
LayerCount: 2
Fore
SplineSet
38 279 m 0,0,1
 38 401 38 401 71.5 516.5 c 128,-1,2
 105 632 105 632 181 723 c 1,3,-1
 320 723 l 1,4,5
 252 629 252 629 219 513.5 c 128,-1,6
 186 398 186 398 186 280 c 0,7,8
 186 164 186 164 219 49 c 128,-1,9
 252 -66 252 -66 319 -158 c 1,10,-1
 181 -158 l 1,11,12
 105 -70 105 -70 71.5 44 c 128,-1,13
 38 158 38 158 38 279 c 0,0,1
EndSplineSet
Substitution2: "'smcp' Lowercase to Small Capitals lookup 34 subtable" parenleft.sc
Substitution2: "'c2sc' Capitals to Small Capitals lookup 33 subtable" parenleft.sc
Substitution2: "'sups' Superscript lookup 19 subtable" uni207D
Substitution2: "'subs' Subscript lookup 18 subtable" uni208D
EndChar

StartChar: parenright
Encoding: 41 41 12
Width: 348
Flags: W
LayerCount: 2
Fore
SplineSet
310 279 m 0,0,1
 310 158 310 158 277 44 c 128,-1,2
 244 -70 244 -70 168 -158 c 1,3,-1
 30 -158 l 1,4,5
 97 -66 97 -66 130 49 c 128,-1,6
 163 164 163 164 163 280 c 0,7,8
 163 398 163 398 129.5 513.5 c 128,-1,9
 96 629 96 629 29 723 c 1,10,-1
 168 723 l 1,11,12
 244 632 244 632 277 516.5 c 128,-1,13
 310 401 310 401 310 279 c 0,0,1
EndSplineSet
Substitution2: "'smcp' Lowercase to Small Capitals lookup 34 subtable" parenright.sc
Substitution2: "'c2sc' Capitals to Small Capitals lookup 33 subtable" parenright.sc
Substitution2: "'sups' Superscript lookup 19 subtable" uni207E
Substitution2: "'subs' Subscript lookup 18 subtable" uni208E
EndChar

StartChar: asterisk
Encoding: 42 42 13
Width: 541
Flags: W
LayerCount: 2
Fore
SplineSet
339 760 m 1,0,-1
 320 584 l 1,1,-1
 498 634 l 1,2,-1
 515 501 l 1,3,-1
 355 490 l 1,4,-1
 460 349 l 1,5,-1
 342 286 l 1,6,-1
 269 433 l 1,7,-1
 205 287 l 1,8,-1
 82 349 l 1,9,-1
 186 490 l 1,10,-1
 27 503 l 1,11,-1
 47 634 l 1,12,-1
 222 584 l 1,13,-1
 202 760 l 1,14,-1
 339 760 l 1,0,-1
EndSplineSet
EndChar

StartChar: plus
Encoding: 43 43 14
Width: 578
Flags: W
LayerCount: 2
Fore
SplineSet
348 412 m 1,0,-1
 534 412 l 1,1,-1
 534 293 l 1,2,-1
 348 293 l 1,3,-1
 348 111 l 1,4,-1
 230 111 l 1,5,-1
 230 293 l 1,6,-1
 44 293 l 1,7,-1
 44 412 l 1,8,-1
 230 412 l 1,9,-1
 230 596 l 1,10,-1
 348 596 l 1,11,-1
 348 412 l 1,0,-1
EndSplineSet
Substitution2: "'sups' Superscript lookup 19 subtable" uni207A
Substitution2: "'subs' Subscript lookup 18 subtable" uni208A
EndChar

StartChar: comma
Encoding: 44 44 15
Width: 296
Flags: W
LayerCount: 2
Fore
SplineSet
229 130 m 1,0,-1
 236 119 l 1,1,2
 227 83 227 83 213 38 c 128,-1,3
 199 -7 199 -7 182.5 -52 c 128,-1,4
 166 -97 166 -97 150 -134 c 1,5,-1
 30 -134 l 1,6,7
 44 -70 44 -70 57.5 2 c 128,-1,8
 71 74 71 74 78 130 c 1,9,-1
 229 130 l 1,0,-1
EndSplineSet
EndChar

StartChar: hyphen
Encoding: 45 45 16
Width: 320
Flags: W
LayerCount: 2
Fore
SplineSet
26 200 m 1,0,-1
 26 336 l 1,1,-1
 294 336 l 1,2,-1
 294 200 l 1,3,-1
 26 200 l 1,0,-1
EndSplineSet
EndChar

StartChar: period
Encoding: 46 46 17
Width: 287
Flags: W
LayerCount: 2
Fore
SplineSet
50 75 m 0,0,1
 50 124 50 124 77.5 143.5 c 128,-1,2
 105 163 105 163 144 163 c 0,3,4
 182 163 182 163 209 143.5 c 128,-1,5
 236 124 236 124 236 75 c 0,6,7
 236 28 236 28 209 7.5 c 128,-1,8
 182 -13 182 -13 144 -13 c 0,9,10
 105 -13 105 -13 77.5 7.5 c 128,-1,11
 50 28 50 28 50 75 c 0,0,1
EndSplineSet
EndChar

StartChar: slash
Encoding: 47 47 18
Width: 426
Flags: W
LayerCount: 2
Fore
SplineSet
423 719 m 1,0,-1
 157 -5 l 1,1,-1
 6 -5 l 1,2,-1
 272 719 l 1,3,-1
 423 719 l 1,0,-1
EndSplineSet
Substitution2: "'frac' Diagonal Fractions lookup 22 subtable" fraction
EndChar

StartChar: zero
Encoding: 48 48 19
Width: 600
Flags: W
LayerCount: 2
Fore
SplineSet
301 -10 m 4,0,1
 170 -10 170 -10 107.5 85 c 132,-1,2
 45 180 45 180 45 359 c 4,3,4
 45 539 45 539 105.5 631.5 c 132,-1,5
 166 724 166 724 298 724 c 4,6,7
 428 724 428 724 491.5 628.5 c 132,-1,8
 555 533 555 533 555 354 c 4,9,10
 555 246 555 246 531.5 164 c 132,-1,11
 508 82 508 82 452.5 36 c 132,-1,12
 397 -10 397 -10 301 -10 c 4,0,1
191 354 m 4,13,14
 191 317 191 317 193 287 c 5,15,-1
 361 566 l 5,16,17
 338 591 338 591 299 591 c 4,18,19
 238 591 238 591 214.5 530.5 c 132,-1,20
 191 470 191 470 191 354 c 4,13,14
299 121 m 4,21,22
 361 121 361 121 383.5 178.5 c 132,-1,23
 406 236 406 236 406 353 c 4,24,25
 406 397 406 397 403 431 c 5,26,-1
 231 151 l 5,27,28
 255 121 255 121 299 121 c 4,21,22
EndSplineSet
Substitution2: "'zero' Slashed Zero lookup 37 subtable" zero.slash
Substitution2: "'case' Case-Sensitive Forms lookup 35 subtable" zero.lf
Substitution2: "'onum' Oldstyle Figures lookup 32 subtable" zero.tosf
Substitution2: "'pnum' Proportional Numbers lookup 30 subtable" zero.lf
Substitution2: "'frac' Diagonal Fractions lookup 23 subtable" zero.numr
Substitution2: "'dnom' Denominators lookup 21 subtable" zero.dnom
Substitution2: "'numr' Numerators lookup 20 subtable" zero.numr
Substitution2: "'sups' Superscript lookup 19 subtable" uni2070
Substitution2: "'subs' Subscript lookup 18 subtable" uni2080
EndChar

StartChar: one
Encoding: 49 49 20
Width: 578
Flags: W
LayerCount: 2
Fore
SplineSet
435 0 m 1,0,-1
 263 0 l 1,1,-1
 263 385 l 2,2,3
 263 398 263 398 263.5 424 c 128,-1,4
 264 450 264 450 264.5 479 c 128,-1,5
 265 508 265 508 266 531 c 1,6,7
 258 521 258 521 244 507.5 c 128,-1,8
 230 494 230 494 218 484 c 2,9,-1
 136 417 l 1,10,-1
 51 523 l 1,11,-1
 288 714 l 1,12,-1
 435 714 l 1,13,-1
 435 0 l 1,0,-1
EndSplineSet
Substitution2: "'case' Case-Sensitive Forms lookup 35 subtable" one.lf
Substitution2: "'onum' Oldstyle Figures lookup 32 subtable" one.tosf
Substitution2: "'pnum' Proportional Numbers lookup 30 subtable" one.lf
Substitution2: "'frac' Diagonal Fractions lookup 23 subtable" one.numr
Substitution2: "'dnom' Denominators lookup 21 subtable" one.dnom
Substitution2: "'numr' Numerators lookup 20 subtable" one.numr
Substitution2: "'sups' Superscript lookup 19 subtable" uni00B9
Substitution2: "'subs' Subscript lookup 18 subtable" uni2081
EndChar

StartChar: two
Encoding: 50 50 21
Width: 578
Flags: W
LayerCount: 2
Fore
SplineSet
543 0 m 1,0,-1
 35 0 l 1,1,-1
 35 115 l 1,2,-1
 212 294 l 2,3,4
 266 350 266 350 298 386 c 128,-1,5
 330 422 330 422 343.5 449.5 c 128,-1,6
 357 477 357 477 357 508 c 0,7,8
 357 546 357 546 334.5 563.5 c 128,-1,9
 312 581 312 581 278 581 c 0,10,11
 240 581 240 581 203.5 562 c 128,-1,12
 167 543 167 543 124 507 c 1,13,-1
 31 616 l 1,14,15
 62 644 62 644 97 668.5 c 128,-1,16
 132 693 132 693 179.5 708.5 c 128,-1,17
 227 724 227 724 294 724 c 0,18,19
 366 724 366 724 418 698.5 c 128,-1,20
 470 673 470 673 498 629.5 c 128,-1,21
 526 586 526 586 526 530 c 0,22,23
 526 470 526 470 503 421 c 128,-1,24
 480 372 480 372 435 324 c 128,-1,25
 390 276 390 276 325 216 c 2,26,-1
 251 148 l 1,27,-1
 251 142 l 1,28,-1
 543 142 l 1,29,-1
 543 0 l 1,0,-1
EndSplineSet
Substitution2: "'case' Case-Sensitive Forms lookup 35 subtable" two.lf
Substitution2: "'onum' Oldstyle Figures lookup 32 subtable" two.tosf
Substitution2: "'pnum' Proportional Numbers lookup 30 subtable" two.lf
Substitution2: "'frac' Diagonal Fractions lookup 23 subtable" two.numr
Substitution2: "'dnom' Denominators lookup 21 subtable" two.dnom
Substitution2: "'numr' Numerators lookup 20 subtable" two.numr
Substitution2: "'sups' Superscript lookup 19 subtable" uni00B2
Substitution2: "'subs' Subscript lookup 18 subtable" uni2082
EndChar

StartChar: three
Encoding: 51 51 22
Width: 578
Flags: W
LayerCount: 2
Fore
SplineSet
517 556 m 0,0,1
 517 506 517 506 496 470 c 128,-1,2
 475 434 475 434 439.5 410.5 c 128,-1,3
 404 387 404 387 361 376 c 1,4,-1
 361 373 l 1,5,6
 446 362 446 362 492 320.5 c 128,-1,7
 538 279 538 279 538 206 c 0,8,9
 538 146 538 146 507 97 c 128,-1,10
 476 48 476 48 411.5 19 c 128,-1,11
 347 -10 347 -10 245 -10 c 0,12,13
 181 -10 181 -10 131.5 0 c 128,-1,14
 82 10 82 10 36 29 c 1,15,-1
 36 172 l 1,16,17
 82 148 82 148 132 136.5 c 128,-1,18
 182 125 182 125 224 125 c 0,19,20
 300 125 300 125 329.5 149.5 c 128,-1,21
 359 174 359 174 359 217 c 0,22,23
 359 244 359 244 345 263 c 128,-1,24
 331 282 331 282 295.5 292 c 128,-1,25
 260 302 260 302 196 302 c 2,26,-1
 147 302 l 1,27,-1
 147 431 l 1,28,-1
 197 431 l 2,29,30
 258 431 258 431 291 442 c 128,-1,31
 324 453 324 453 337.5 472.5 c 128,-1,32
 351 492 351 492 351 517 c 0,33,34
 351 587 351 587 259 587 c 0,35,36
 210 587 210 587 171.5 569 c 128,-1,37
 133 551 133 551 112 538 c 1,38,-1
 37 653 l 1,39,40
 80 683 80 683 137 703.5 c 128,-1,41
 194 724 194 724 279 724 c 0,42,43
 389 724 389 724 453 680 c 128,-1,44
 517 636 517 636 517 556 c 0,0,1
EndSplineSet
Substitution2: "'case' Case-Sensitive Forms lookup 35 subtable" three.lf
Substitution2: "'onum' Oldstyle Figures lookup 32 subtable" three.tosf
Substitution2: "'pnum' Proportional Numbers lookup 30 subtable" three.lf
Substitution2: "'frac' Diagonal Fractions lookup 23 subtable" three.numr
Substitution2: "'dnom' Denominators lookup 21 subtable" three.dnom
Substitution2: "'numr' Numerators lookup 20 subtable" three.numr
Substitution2: "'sups' Superscript lookup 19 subtable" uni00B3
Substitution2: "'subs' Subscript lookup 18 subtable" uni2083
EndChar

StartChar: four
Encoding: 52 52 23
Width: 578
Flags: W
LayerCount: 2
Fore
SplineSet
562 143 m 1,0,-1
 480 143 l 1,1,-1
 480 0 l 1,2,-1
 313 0 l 1,3,-1
 313 143 l 1,4,-1
 17 143 l 1,5,-1
 17 265 l 1,6,-1
 323 714 l 1,7,-1
 480 714 l 1,8,-1
 480 273 l 1,9,-1
 562 273 l 1,10,-1
 562 143 l 1,0,-1
313 273 m 1,11,-1
 313 376 l 2,12,13
 313 396 313 396 314 425 c 128,-1,14
 315 454 315 454 316 478 c 128,-1,15
 317 502 317 502 318 508 c 1,16,-1
 313 508 l 1,17,18
 304 487 304 487 295 470.5 c 128,-1,19
 286 454 286 454 273 434 c 2,20,-1
 166 273 l 1,21,-1
 313 273 l 1,11,-1
EndSplineSet
Substitution2: "'case' Case-Sensitive Forms lookup 35 subtable" four.lf
Substitution2: "'onum' Oldstyle Figures lookup 32 subtable" four.tosf
Substitution2: "'pnum' Proportional Numbers lookup 30 subtable" four.lf
Substitution2: "'frac' Diagonal Fractions lookup 23 subtable" four.numr
Substitution2: "'dnom' Denominators lookup 21 subtable" four.dnom
Substitution2: "'numr' Numerators lookup 20 subtable" four.numr
Substitution2: "'sups' Superscript lookup 19 subtable" uni2074
Substitution2: "'subs' Subscript lookup 18 subtable" uni2084
EndChar

StartChar: five
Encoding: 53 53 24
Width: 578
Flags: W
LayerCount: 2
Fore
SplineSet
311 462 m 0,0,1
 374 462 374 462 424 436 c 128,-1,2
 474 410 474 410 503 360 c 128,-1,3
 532 310 532 310 532 239 c 0,4,5
 532 120 532 120 460 55 c 128,-1,6
 388 -10 388 -10 245 -10 c 0,7,8
 186 -10 186 -10 136 0 c 128,-1,9
 86 10 86 10 48 29 c 1,10,-1
 48 172 l 1,11,12
 85 153 85 153 137.5 139.5 c 128,-1,13
 190 126 190 126 235 126 c 0,14,15
 296 126 296 126 328.5 151.5 c 128,-1,16
 361 177 361 177 361 229 c 0,17,18
 361 276 361 276 328.5 301.5 c 128,-1,19
 296 327 296 327 229 327 c 0,20,21
 202 327 202 327 174 321.5 c 128,-1,22
 146 316 146 316 126 311 c 1,23,-1
 61 344 l 1,24,-1
 88 714 l 1,25,-1
 484 714 l 1,26,-1
 484 571 l 1,27,-1
 234 571 l 1,28,-1
 223 452 l 1,29,30
 240 455 240 455 258 458.5 c 128,-1,31
 276 462 276 462 311 462 c 0,0,1
EndSplineSet
Substitution2: "'case' Case-Sensitive Forms lookup 35 subtable" five.lf
Substitution2: "'onum' Oldstyle Figures lookup 32 subtable" five.tosf
Substitution2: "'pnum' Proportional Numbers lookup 30 subtable" five.lf
Substitution2: "'frac' Diagonal Fractions lookup 23 subtable" five.numr
Substitution2: "'dnom' Denominators lookup 21 subtable" five.dnom
Substitution2: "'numr' Numerators lookup 20 subtable" five.numr
Substitution2: "'sups' Superscript lookup 19 subtable" uni2075
Substitution2: "'subs' Subscript lookup 18 subtable" uni2085
EndChar

StartChar: six
Encoding: 54 54 25
Width: 578
Flags: W
LayerCount: 2
Fore
SplineSet
35 303 m 0,0,1
 35 364 35 364 44 425 c 128,-1,2
 53 486 53 486 75.5 539.5 c 128,-1,3
 98 593 98 593 139 634.5 c 128,-1,4
 180 676 180 676 244 699.5 c 128,-1,5
 308 723 308 723 400 723 c 0,6,7
 421 723 421 723 450.5 721 c 128,-1,8
 480 719 480 719 499 715 c 1,9,-1
 499 581 l 1,10,11
 479 585 479 585 455.5 587.5 c 128,-1,12
 432 590 432 590 403 590 c 0,13,14
 322 590 322 590 277 565 c 128,-1,15
 232 540 232 540 212.5 494 c 128,-1,16
 193 448 193 448 190 387 c 1,17,-1
 196 387 l 1,18,19
 216 422 216 422 251 446 c 128,-1,20
 286 470 286 470 344 470 c 0,21,22
 438 470 438 470 492 410 c 128,-1,23
 546 350 546 350 546 241 c 0,24,25
 546 122 546 122 479.5 56 c 128,-1,26
 413 -10 413 -10 299 -10 c 0,27,28
 224 -10 224 -10 164.5 23.5 c 128,-1,29
 105 57 105 57 70 126.5 c 128,-1,30
 35 196 35 196 35 303 c 0,0,1
296 126 m 0,31,32
 334 126 334 126 357.5 153 c 128,-1,33
 381 180 381 180 381 238 c 0,34,35
 381 284 381 284 361 311 c 128,-1,36
 341 338 341 338 298 338 c 0,37,38
 254 338 254 338 229 310 c 128,-1,39
 204 282 204 282 204 249 c 0,40,41
 204 220 204 220 214 191.5 c 128,-1,42
 224 163 224 163 244.5 144.5 c 128,-1,43
 265 126 265 126 296 126 c 0,31,32
EndSplineSet
Substitution2: "'case' Case-Sensitive Forms lookup 35 subtable" six.lf
Substitution2: "'onum' Oldstyle Figures lookup 32 subtable" six.tosf
Substitution2: "'pnum' Proportional Numbers lookup 30 subtable" six.lf
Substitution2: "'frac' Diagonal Fractions lookup 23 subtable" six.numr
Substitution2: "'dnom' Denominators lookup 21 subtable" six.dnom
Substitution2: "'numr' Numerators lookup 20 subtable" six.numr
Substitution2: "'sups' Superscript lookup 19 subtable" uni2076
Substitution2: "'subs' Subscript lookup 18 subtable" uni2086
EndChar

StartChar: seven
Encoding: 55 55 26
Width: 578
Flags: W
LayerCount: 2
Fore
SplineSet
107 0 m 1,0,-1
 364 572 l 1,1,-1
 32 572 l 1,2,-1
 32 714 l 1,3,-1
 545 714 l 1,4,-1
 545 610 l 1,5,-1
 284 0 l 1,6,-1
 107 0 l 1,0,-1
EndSplineSet
Substitution2: "'case' Case-Sensitive Forms lookup 35 subtable" seven.lf
Substitution2: "'onum' Oldstyle Figures lookup 32 subtable" seven.tosf
Substitution2: "'pnum' Proportional Numbers lookup 30 subtable" seven.lf
Substitution2: "'frac' Diagonal Fractions lookup 23 subtable" seven.numr
Substitution2: "'dnom' Denominators lookup 21 subtable" seven.dnom
Substitution2: "'numr' Numerators lookup 20 subtable" seven.numr
Substitution2: "'sups' Superscript lookup 19 subtable" uni2077
Substitution2: "'subs' Subscript lookup 18 subtable" uni2087
EndChar

StartChar: eight
Encoding: 56 56 27
Width: 578
Flags: W
LayerCount: 2
Fore
SplineSet
290 723 m 0,0,1
 356 723 356 723 408.5 704 c 128,-1,2
 461 685 461 685 492 646.5 c 128,-1,3
 523 608 523 608 523 551 c 0,4,5
 523 486 523 486 487.5 444.5 c 128,-1,6
 452 403 452 403 397 377 c 1,7,8
 433 357 433 357 466.5 331 c 128,-1,9
 500 305 500 305 522 269.5 c 128,-1,10
 544 234 544 234 544 187 c 0,11,12
 544 99 544 99 477.5 44.5 c 128,-1,13
 411 -10 411 -10 289 -10 c 0,14,15
 162 -10 162 -10 98 43 c 128,-1,16
 34 96 34 96 34 184 c 0,17,18
 34 258 34 258 72.5 301.5 c 128,-1,19
 111 345 111 345 168 373 c 1,20,21
 122 403 122 403 89 445.5 c 128,-1,22
 56 488 56 488 56 552 c 0,23,24
 56 608 56 608 87.5 646.5 c 128,-1,25
 119 685 119 685 172 704 c 128,-1,26
 225 723 225 723 290 723 c 0,0,1
289 600 m 256,27,28
 258 600 258 600 237 583 c 128,-1,29
 216 566 216 566 216 537 c 0,30,31
 216 506 216 506 237.5 485 c 128,-1,32
 259 464 259 464 289 449 c 1,33,34
 317 462 317 462 340 482 c 128,-1,35
 363 502 363 502 363 537 c 0,36,37
 363 566 363 566 341.5 583 c 128,-1,38
 320 600 320 600 289 600 c 256,27,28
191 193 m 0,39,40
 191 158 191 158 215.5 136 c 128,-1,41
 240 114 240 114 287 114 c 0,42,43
 338 114 338 114 362.5 135 c 128,-1,44
 387 156 387 156 387 190 c 0,45,46
 387 215 387 215 372.5 234.5 c 128,-1,47
 358 254 358 254 337 268.5 c 128,-1,48
 316 283 316 283 298 294 c 2,49,-1
 285 302 l 1,50,51
 244 282 244 282 217.5 256 c 128,-1,52
 191 230 191 230 191 193 c 0,39,40
EndSplineSet
Substitution2: "'case' Case-Sensitive Forms lookup 35 subtable" eight.lf
Substitution2: "'onum' Oldstyle Figures lookup 32 subtable" eight.tosf
Substitution2: "'pnum' Proportional Numbers lookup 30 subtable" eight.lf
Substitution2: "'frac' Diagonal Fractions lookup 23 subtable" eight.numr
Substitution2: "'dnom' Denominators lookup 21 subtable" eight.dnom
Substitution2: "'numr' Numerators lookup 20 subtable" eight.numr
Substitution2: "'sups' Superscript lookup 19 subtable" uni2078
Substitution2: "'subs' Subscript lookup 18 subtable" uni2088
EndChar

StartChar: nine
Encoding: 57 57 28
Width: 578
Flags: W
LayerCount: 2
Fore
SplineSet
543 405 m 0,0,1
 543 320 543 320 525.5 244.5 c 128,-1,2
 508 169 508 169 466.5 112 c 128,-1,3
 425 55 425 55 354.5 22.5 c 128,-1,4
 284 -10 284 -10 178 -10 c 0,5,6
 157 -10 157 -10 128.5 -8.5 c 128,-1,7
 100 -7 100 -7 81 -4 c 1,8,-1
 81 132 l 1,9,10
 122 123 122 123 169 123 c 0,11,12
 254 123 254 123 300.5 148.5 c 128,-1,13
 347 174 347 174 366 220 c 128,-1,14
 385 266 385 266 388 326 c 1,15,-1
 382 326 l 1,16,17
 362 291 362 291 329 267 c 128,-1,18
 296 243 296 243 231 243 c 0,19,20
 140 243 140 243 86 303 c 128,-1,21
 32 363 32 363 32 473 c 0,22,23
 32 590 32 590 98 656.5 c 128,-1,24
 164 723 164 723 279 723 c 0,25,26
 353 723 353 723 413 689 c 128,-1,27
 473 655 473 655 508 584.5 c 128,-1,28
 543 514 543 514 543 405 c 0,0,1
283 587 m 0,29,30
 244 587 244 587 220 560 c 128,-1,31
 196 533 196 533 196 475 c 0,32,33
 196 428 196 428 217 401 c 128,-1,34
 238 374 238 374 281 374 c 0,35,36
 322 374 322 374 348 402.5 c 128,-1,37
 374 431 374 431 374 463 c 0,38,39
 374 493 374 493 364 521.5 c 128,-1,40
 354 550 354 550 334 568.5 c 128,-1,41
 314 587 314 587 283 587 c 0,29,30
EndSplineSet
Substitution2: "'case' Case-Sensitive Forms lookup 35 subtable" nine.lf
Substitution2: "'onum' Oldstyle Figures lookup 32 subtable" nine.tosf
Substitution2: "'pnum' Proportional Numbers lookup 30 subtable" nine.lf
Substitution2: "'frac' Diagonal Fractions lookup 23 subtable" nine.numr
Substitution2: "'dnom' Denominators lookup 21 subtable" nine.dnom
Substitution2: "'numr' Numerators lookup 20 subtable" nine.numr
Substitution2: "'sups' Superscript lookup 19 subtable" uni2079
Substitution2: "'subs' Subscript lookup 18 subtable" uni2089
EndChar

StartChar: colon
Encoding: 58 58 29
Width: 287
Flags: W
LayerCount: 2
Fore
SplineSet
50 470 m 0,0,1
 50 518 50 518 77.5 538 c 128,-1,2
 105 558 105 558 144 558 c 0,3,4
 182 558 182 558 209 538 c 128,-1,5
 236 518 236 518 236 470 c 0,6,7
 236 424 236 424 209 403 c 128,-1,8
 182 382 182 382 144 382 c 0,9,10
 105 382 105 382 77.5 403 c 128,-1,11
 50 424 50 424 50 470 c 0,0,1
50 75 m 0,12,13
 50 124 50 124 77.5 143.5 c 128,-1,14
 105 163 105 163 144 163 c 0,15,16
 182 163 182 163 209 143.5 c 128,-1,17
 236 124 236 124 236 75 c 0,18,19
 236 28 236 28 209 7.5 c 128,-1,20
 182 -13 182 -13 144 -13 c 0,21,22
 105 -13 105 -13 77.5 7.5 c 128,-1,23
 50 28 50 28 50 75 c 0,12,13
EndSplineSet
EndChar

StartChar: semicolon
Encoding: 59 59 30
Width: 291
Flags: W
LayerCount: 2
Fore
SplineSet
51 470 m 0,0,1
 51 518 51 518 78.5 538 c 128,-1,2
 106 558 106 558 145 558 c 0,3,4
 182 558 182 558 210 538 c 128,-1,5
 238 518 238 518 238 470 c 0,6,7
 238 424 238 424 210 403 c 128,-1,8
 182 382 182 382 145 382 c 0,9,10
 106 382 106 382 78.5 403 c 128,-1,11
 51 424 51 424 51 470 c 0,0,1
229 130 m 1,12,-1
 236 119 l 1,13,14
 227 83 227 83 213 38 c 128,-1,15
 199 -7 199 -7 182.5 -52 c 128,-1,16
 166 -97 166 -97 150 -134 c 1,17,-1
 30 -134 l 1,18,19
 44 -70 44 -70 57.5 2 c 128,-1,20
 71 74 71 74 78 130 c 1,21,-1
 229 130 l 1,12,-1
EndSplineSet
EndChar

StartChar: less
Encoding: 60 60 31
Width: 578
Flags: W
LayerCount: 2
Fore
SplineSet
533 93 m 1,0,-1
 44 310 l 1,1,-1
 44 386 l 1,2,-1
 533 631 l 1,3,-1
 533 501 l 1,4,-1
 213 353 l 1,5,-1
 533 223 l 1,6,-1
 533 93 l 1,0,-1
EndSplineSet
EndChar

StartChar: equal
Encoding: 61 61 32
Width: 578
Flags: W
LayerCount: 2
Fore
SplineSet
44 396 m 1,0,-1
 44 513 l 1,1,-1
 534 513 l 1,2,-1
 534 396 l 1,3,-1
 44 396 l 1,0,-1
44 191 m 1,4,-1
 44 309 l 1,5,-1
 534 309 l 1,6,-1
 534 191 l 1,7,-1
 44 191 l 1,4,-1
EndSplineSet
Substitution2: "'sups' Superscript lookup 19 subtable" uni207C
Substitution2: "'subs' Subscript lookup 18 subtable" uni208C
EndChar

StartChar: greater
Encoding: 62 62 33
Width: 578
Flags: W
LayerCount: 2
Fore
SplineSet
44 223 m 1,0,-1
 364 353 l 1,1,-1
 44 501 l 1,2,-1
 44 631 l 1,3,-1
 533 386 l 1,4,-1
 533 310 l 1,5,-1
 44 93 l 1,6,-1
 44 223 l 1,0,-1
EndSplineSet
EndChar

StartChar: question
Encoding: 63 63 34
Width: 490
Flags: W
LayerCount: 2
Fore
SplineSet
139 244 m 1,0,-1
 139 283 l 2,1,2
 139 330 139 330 158.5 364 c 128,-1,3
 178 398 178 398 230 433 c 0,4,5
 277 465 277 465 293.5 486.5 c 128,-1,6
 310 508 310 508 310 535 c 0,7,8
 310 561 310 561 288.5 575.5 c 128,-1,9
 267 590 267 590 231 590 c 0,10,11
 191 590 191 590 149 577 c 128,-1,12
 107 564 107 564 62 540 c 1,13,-1
 2 659 l 1,14,15
 53 688 53 688 112.5 706 c 128,-1,16
 172 724 172 724 243 724 c 0,17,18
 350 724 350 724 409.5 674.5 c 128,-1,19
 469 625 469 625 469 547 c 0,20,21
 469 487 469 487 440.5 446 c 128,-1,22
 412 405 412 405 352 364 c 0,23,24
 308 333 308 333 293 315.5 c 128,-1,25
 278 298 278 298 278 271 c 2,26,-1
 278 244 l 1,27,-1
 139 244 l 1,0,-1
121 75 m 0,28,29
 121 124 121 124 148.5 143.5 c 128,-1,30
 176 163 176 163 215 163 c 0,31,32
 252 163 252 163 279.5 143.5 c 128,-1,33
 307 124 307 124 307 75 c 0,34,35
 307 28 307 28 279.5 7.5 c 128,-1,36
 252 -13 252 -13 215 -13 c 0,37,38
 176 -13 176 -13 148.5 7.5 c 128,-1,39
 121 28 121 28 121 75 c 0,28,29
EndSplineSet
Substitution2: "'smcp' Lowercase to Small Capitals lookup 34 subtable" question.sc
Substitution2: "'c2sc' Capitals to Small Capitals lookup 33 subtable" question.sc
EndChar

StartChar: at
Encoding: 64 64 35
Width: 897
Flags: W
LayerCount: 2
Fore
SplineSet
852 363 m 0,0,1
 852 316 852 316 840.5 271 c 128,-1,2
 829 226 829 226 806 189.5 c 128,-1,3
 783 153 783 153 748.5 131 c 128,-1,4
 714 109 714 109 669 109 c 0,5,6
 632 109 632 109 602 125.5 c 128,-1,7
 572 142 572 142 558 170 c 1,8,-1
 550 170 l 1,9,10
 529 145 529 145 496.5 127 c 128,-1,11
 464 109 464 109 420 109 c 0,12,13
 328 109 328 109 281 163 c 128,-1,14
 234 217 234 217 234 305 c 0,15,16
 234 372 234 372 262.5 423.5 c 128,-1,17
 291 475 291 475 345.5 505 c 128,-1,18
 400 535 400 535 476 535 c 0,19,20
 524 535 524 535 573 526.5 c 128,-1,21
 622 518 622 518 652 507 c 1,22,-1
 642 302 l 2,23,24
 641 294 641 294 641 282 c 128,-1,25
 641 270 641 270 641 262 c 0,26,27
 641 229 641 229 650 217.5 c 128,-1,28
 659 206 659 206 672 206 c 0,29,30
 692 206 692 206 706 227.5 c 128,-1,31
 720 249 720 249 727 285 c 128,-1,32
 734 321 734 321 734 364 c 0,33,34
 734 483 734 483 665 550.5 c 128,-1,35
 596 618 596 618 478 618 c 0,36,37
 376 618 376 618 306 576 c 128,-1,38
 236 534 236 534 200.5 460 c 128,-1,39
 165 386 165 386 165 292 c 0,40,41
 165 164 165 164 234.5 92.5 c 128,-1,42
 304 21 304 21 439 21 c 0,43,44
 496 21 496 21 561 34 c 128,-1,45
 626 47 626 47 682 67 c 1,46,-1
 682 -35 l 1,47,48
 632 -56 632 -56 571.5 -68 c 128,-1,49
 511 -80 511 -80 444 -80 c 0,50,51
 318 -80 318 -80 229 -35.5 c 128,-1,52
 140 9 140 9 92.5 92 c 128,-1,53
 45 175 45 175 45 291 c 0,54,55
 45 381 45 381 75 459 c 128,-1,56
 105 537 105 537 161.5 595 c 128,-1,57
 218 653 218 653 297.5 685.5 c 128,-1,58
 377 718 377 718 476 718 c 0,59,60
 587 718 587 718 671.5 675 c 128,-1,61
 756 632 756 632 804 552.5 c 128,-1,62
 852 473 852 473 852 363 c 0,0,1
358 304 m 0,63,64
 358 252 358 252 378.5 229 c 128,-1,65
 399 206 399 206 433 206 c 0,66,67
 479 206 479 206 497.5 240.5 c 128,-1,68
 516 275 516 275 520 341 c 2,69,-1
 526 434 l 1,70,71
 507 438 507 438 481 438 c 0,72,73
 437 438 437 438 410 419 c 128,-1,74
 383 400 383 400 370.5 369.5 c 128,-1,75
 358 339 358 339 358 304 c 0,63,64
EndSplineSet
EndChar

StartChar: A
Encoding: 65 65 36
Width: 707
GlyphClass: 2
Flags: W
AnchorPoint: "Anchor-3" 611 714 basechar 0
AnchorPoint: "Anchor-2" 353 714 basechar 0
AnchorPoint: "Anchor-0" 353 0 basechar 0
LayerCount: 2
Fore
SplineSet
521 0 m 1,0,-1
 477 153 l 1,1,-1
 230 153 l 1,2,-1
 186 0 l 1,3,-1
 0 0 l 1,4,-1
 243 717 l 1,5,-1
 461 717 l 1,6,-1
 707 0 l 1,7,-1
 521 0 l 1,0,-1
439 295 m 1,8,-1
 397 438 l 2,9,10
 392 456 392 456 383.5 486.5 c 128,-1,11
 375 517 375 517 366.5 549 c 128,-1,12
 358 581 358 581 353 603 c 1,13,14
 348 581 348 581 340 548.5 c 128,-1,15
 332 516 332 516 324 485.5 c 128,-1,16
 316 455 316 455 311 438 c 2,17,-1
 269 295 l 1,18,-1
 439 295 l 1,8,-1
EndSplineSet
Substitution2: "'c2sc' Capitals to Small Capitals lookup 33 subtable" a.sc
Substitution2: "Single Substitution lookup 28 subtable" ordfeminine
EndChar

StartChar: B
Encoding: 66 66 37
Width: 673
GlyphClass: 2
Flags: W
AnchorPoint: "Anchor-3" 653 714 basechar 0
AnchorPoint: "Anchor-2" 340 714 basechar 0
AnchorPoint: "Anchor-0" 339 0 basechar 0
LayerCount: 2
Fore
SplineSet
84 714 m 1,0,-1
 318 714 l 2,1,2
 466 714 466 714 536.5 671 c 128,-1,3
 607 628 607 628 607 534 c 0,4,5
 607 469 607 469 574.5 428.5 c 128,-1,6
 542 388 542 388 496 379 c 1,7,-1
 496 374 l 1,8,9
 528 366 528 366 557.5 349 c 128,-1,10
 587 332 587 332 605 298 c 128,-1,11
 623 264 623 264 623 208 c 0,12,13
 623 110 623 110 551.5 55 c 128,-1,14
 480 0 480 0 356 0 c 2,15,-1
 84 0 l 1,16,-1
 84 714 l 1,0,-1
254 435 m 1,17,-1
 329 435 l 2,18,19
 386 435 386 435 409 455.5 c 128,-1,20
 432 476 432 476 432 511 c 0,21,22
 432 580 432 580 322 580 c 2,23,-1
 254 580 l 1,24,-1
 254 435 l 1,17,-1
254 305 m 1,25,-1
 254 136 l 1,26,-1
 339 136 l 2,27,28
 399 136 399 136 422.5 160 c 128,-1,29
 446 184 446 184 446 223 c 0,30,31
 446 258 446 258 422 281.5 c 128,-1,32
 398 305 398 305 335 305 c 2,33,-1
 254 305 l 1,25,-1
EndSplineSet
Substitution2: "'c2sc' Capitals to Small Capitals lookup 33 subtable" b.sc
EndChar

StartChar: C
Encoding: 67 67 38
Width: 643
GlyphClass: 2
Flags: W
AnchorPoint: "Anchor-3" 623 714 basechar 0
AnchorPoint: "Anchor-2" 371 714 basechar 0
AnchorPoint: "Anchor-0" 374 0 basechar 0
LayerCount: 2
Fore
SplineSet
394 583 m 0,0,1
 315 583 315 583 272.5 522.5 c 128,-1,2
 230 462 230 462 230 355 c 0,3,4
 230 246 230 246 271 188.5 c 128,-1,5
 312 131 312 131 399 131 c 0,6,7
 444 131 444 131 488 142.5 c 128,-1,8
 532 154 532 154 581 172 c 1,9,-1
 581 28 l 1,10,11
 534 8 534 8 486 -1 c 128,-1,12
 438 -10 438 -10 382 -10 c 0,13,14
 268 -10 268 -10 196 36 c 128,-1,15
 124 82 124 82 89.5 164 c 128,-1,16
 55 246 55 246 55 356 c 0,17,18
 55 464 55 464 94.5 547 c 128,-1,19
 134 630 134 630 210 677 c 128,-1,20
 286 724 286 724 395 724 c 0,21,22
 448 724 448 724 503 711.5 c 128,-1,23
 558 699 558 699 609 674 c 1,24,-1
 556 538 l 1,25,26
 516 557 516 557 476 570 c 128,-1,27
 436 583 436 583 394 583 c 0,0,1
EndSplineSet
Substitution2: "'c2sc' Capitals to Small Capitals lookup 33 subtable" c.sc
EndChar

StartChar: D
Encoding: 68 68 39
Width: 737
GlyphClass: 2
Flags: W
AnchorPoint: "Anchor-3" 717 714 basechar 0
AnchorPoint: "Anchor-2" 369 714 basechar 0
AnchorPoint: "Anchor-1" 369 357 basechar 0
AnchorPoint: "Anchor-0" 351 0 basechar 0
LayerCount: 2
Fore
SplineSet
682 368 m 0,0,1
 682 184 682 184 580 92 c 128,-1,2
 478 0 478 0 299 0 c 2,3,-1
 84 0 l 1,4,-1
 84 714 l 1,5,-1
 319 714 l 2,6,7
 488 714 488 714 585 625.5 c 128,-1,8
 682 537 682 537 682 368 c 0,0,1
506 362 m 0,9,10
 506 471 506 471 459.5 523 c 128,-1,11
 413 575 413 575 324 575 c 2,12,-1
 254 575 l 1,13,-1
 254 140 l 1,14,-1
 309 140 l 2,15,16
 410 140 410 140 458 195.5 c 128,-1,17
 506 251 506 251 506 362 c 0,9,10
EndSplineSet
Substitution2: "'c2sc' Capitals to Small Capitals lookup 33 subtable" d.sc
EndChar

StartChar: E
Encoding: 69 69 40
Width: 555
GlyphClass: 2
Flags: W
AnchorPoint: "Anchor-3" 535 714 basechar 0
AnchorPoint: "Anchor-2" 295 714 basechar 0
AnchorPoint: "Anchor-0" 299 0 basechar 0
LayerCount: 2
Fore
SplineSet
501 0 m 1,0,-1
 84 0 l 1,1,-1
 84 714 l 1,2,-1
 501 714 l 1,3,-1
 501 576 l 1,4,-1
 254 576 l 1,5,-1
 254 439 l 1,6,-1
 483 439 l 1,7,-1
 483 301 l 1,8,-1
 254 301 l 1,9,-1
 254 140 l 1,10,-1
 501 140 l 1,11,-1
 501 0 l 1,0,-1
EndSplineSet
Substitution2: "'c2sc' Capitals to Small Capitals lookup 33 subtable" e.sc
EndChar

StartChar: F
Encoding: 70 70 41
Width: 544
GlyphClass: 2
Flags: W
AnchorPoint: "Anchor-3" 524 714 basechar 0
AnchorPoint: "Anchor-2" 293 714 basechar 0
AnchorPoint: "Anchor-0" 273 0 basechar 0
LayerCount: 2
Fore
SplineSet
252 0 m 1,0,-1
 84 0 l 1,1,-1
 84 714 l 1,2,-1
 499 714 l 1,3,-1
 499 576 l 1,4,-1
 252 576 l 1,5,-1
 252 414 l 1,6,-1
 481 414 l 1,7,-1
 481 276 l 1,8,-1
 252 276 l 1,9,-1
 252 0 l 1,0,-1
EndSplineSet
Substitution2: "'c2sc' Capitals to Small Capitals lookup 33 subtable" f.sc
EndChar

StartChar: G
Encoding: 71 71 42
Width: 731
GlyphClass: 2
Flags: W
AnchorPoint: "Anchor-3" 711 714 basechar 0
AnchorPoint: "Anchor-2" 400 714 basechar 0
AnchorPoint: "Anchor-0" 385 0 basechar 0
LayerCount: 2
Fore
SplineSet
362 409 m 1,0,-1
 657 409 l 1,1,-1
 657 32 l 1,2,3
 601 13 601 13 535.5 1.5 c 128,-1,4
 470 -10 470 -10 393 -10 c 0,5,6
 236 -10 236 -10 145.5 82.5 c 128,-1,7
 55 175 55 175 55 358 c 0,8,9
 55 470 55 470 98 552 c 128,-1,10
 141 634 141 634 224.5 679 c 128,-1,11
 308 724 308 724 429 724 c 0,12,13
 490 724 490 724 547.5 712 c 128,-1,14
 605 700 605 700 649 680 c 1,15,-1
 594 545 l 1,16,17
 559 562 559 562 517.5 572.5 c 128,-1,18
 476 583 476 583 429 583 c 0,19,20
 364 583 364 583 319.5 553.5 c 128,-1,21
 275 524 275 524 253 472.5 c 128,-1,22
 231 421 231 421 231 355 c 0,23,24
 231 252 231 252 273.5 191.5 c 128,-1,25
 316 131 316 131 406 131 c 0,26,27
 431 131 431 131 454.5 134 c 128,-1,28
 478 137 478 137 494 140 c 1,29,-1
 494 272 l 1,30,-1
 362 272 l 1,31,-1
 362 409 l 1,0,-1
EndSplineSet
Substitution2: "'c2sc' Capitals to Small Capitals lookup 33 subtable" g.sc
EndChar

StartChar: H
Encoding: 72 72 43
Width: 765
GlyphClass: 2
Flags: W
AnchorPoint: "Anchor-3" 745 714 basechar 0
AnchorPoint: "Anchor-2" 383 714 basechar 0
AnchorPoint: "Anchor-1" 383 357 basechar 0
AnchorPoint: "Anchor-0" 381 0 basechar 0
LayerCount: 2
Fore
SplineSet
681 0 m 1,0,-1
 511 0 l 1,1,-1
 511 300 l 1,2,-1
 255 300 l 1,3,-1
 255 0 l 1,4,-1
 84 0 l 1,5,-1
 84 714 l 1,6,-1
 255 714 l 1,7,-1
 255 441 l 1,8,-1
 511 441 l 1,9,-1
 511 714 l 1,10,-1
 681 714 l 1,11,-1
 681 0 l 1,0,-1
EndSplineSet
Substitution2: "'c2sc' Capitals to Small Capitals lookup 33 subtable" h.sc
EndChar

StartChar: I
Encoding: 73 73 44
Width: 413
GlyphClass: 2
Flags: W
AnchorPoint: "Anchor-3" 393 714 basechar 0
AnchorPoint: "Anchor-2" 207 714 basechar 0
AnchorPoint: "Anchor-0" 207 0 basechar 0
LayerCount: 2
Fore
SplineSet
380 0 m 1,0,-1
 33 0 l 1,1,-1
 33 97 l 1,2,-1
 121 134 l 1,3,-1
 121 580 l 1,4,-1
 33 617 l 1,5,-1
 33 714 l 1,6,-1
 380 714 l 1,7,-1
 380 617 l 1,8,-1
 292 580 l 1,9,-1
 292 134 l 1,10,-1
 380 97 l 1,11,-1
 380 0 l 1,0,-1
EndSplineSet
Substitution2: "'c2sc' Capitals to Small Capitals lookup 33 subtable" i.sc
EndChar

StartChar: J
Encoding: 74 74 45
Width: 341
GlyphClass: 2
Flags: W
AnchorPoint: "Anchor-3" 321 714 basechar 0
AnchorPoint: "Anchor-2" 171 714 basechar 0
AnchorPoint: "Anchor-0" 18 -196 basechar 0
LayerCount: 2
Fore
SplineSet
18 -216 m 0,0,1
 -14 -216 -14 -216 -37 -213 c 128,-1,2
 -60 -210 -60 -210 -76 -206 c 1,3,-1
 -76 -69 l 1,4,5
 -60 -72 -60 -72 -42.5 -75.5 c 128,-1,6
 -25 -79 -25 -79 -5 -79 c 0,7,8
 40 -79 40 -79 63 -51 c 128,-1,9
 86 -23 86 -23 86 49 c 2,10,-1
 86 714 l 1,11,-1
 257 714 l 1,12,-1
 257 57 l 2,13,14
 257 -42 257 -42 226.5 -102 c 128,-1,15
 196 -162 196 -162 142 -189 c 128,-1,16
 88 -216 88 -216 18 -216 c 0,0,1
EndSplineSet
Substitution2: "'c2sc' Capitals to Small Capitals lookup 33 subtable" j.sc
EndChar

StartChar: K
Encoding: 75 75 46
Width: 675
GlyphClass: 2
Flags: W
AnchorPoint: "Anchor-3" 655 714 basechar 0
AnchorPoint: "Anchor-2" 356 714 basechar 0
AnchorPoint: "Anchor-0" 354 0 basechar 0
LayerCount: 2
Fore
SplineSet
675 0 m 1,0,-1
 481 0 l 1,1,-1
 316 288 l 1,2,-1
 255 248 l 1,3,-1
 255 0 l 1,4,-1
 84 0 l 1,5,-1
 84 714 l 1,6,-1
 255 714 l 1,7,-1
 255 395 l 1,8,9
 268 417 268 417 283.5 439 c 128,-1,10
 299 461 299 461 314 482 c 2,11,-1
 488 714 l 1,12,-1
 675 714 l 1,13,-1
 437 396 l 1,14,-1
 675 0 l 1,0,-1
EndSplineSet
Substitution2: "'c2sc' Capitals to Small Capitals lookup 33 subtable" k.sc
EndChar

StartChar: L
Encoding: 76 76 47
Width: 573
GlyphClass: 2
Flags: W
AnchorPoint: "Anchor-3" 375 714 basechar 0
AnchorPoint: "Anchor-2" 167 714 basechar 0
AnchorPoint: "Anchor-1" 287 357 basechar 0
AnchorPoint: "Anchor-0" 308 0 basechar 0
LayerCount: 2
Fore
SplineSet
84 0 m 1,0,-1
 84 714 l 1,1,-1
 254 714 l 1,2,-1
 254 139 l 1,3,-1
 537 139 l 1,4,-1
 537 0 l 1,5,-1
 84 0 l 1,0,-1
EndSplineSet
Substitution2: "'c2sc' Capitals to Small Capitals lookup 33 subtable" l.sc
EndChar

StartChar: M
Encoding: 77 77 48
Width: 954
GlyphClass: 2
Flags: W
AnchorPoint: "Anchor-3" 934 714 basechar 0
AnchorPoint: "Anchor-2" 478 714 basechar 0
AnchorPoint: "Anchor-0" 472 0 basechar 0
LayerCount: 2
Fore
SplineSet
390 0 m 1,0,-1
 230 539 l 1,1,-1
 226 539 l 1,2,3
 228 519 228 519 230 481.5 c 128,-1,4
 232 444 232 444 234 401 c 128,-1,5
 236 358 236 358 236 322 c 2,6,-1
 236 0 l 1,7,-1
 84 0 l 1,8,-1
 84 714 l 1,9,-1
 314 714 l 1,10,-1
 473 186 l 1,11,-1
 477 186 l 1,12,-1
 641 714 l 1,13,-1
 870 714 l 1,14,-1
 870 0 l 1,15,-1
 712 0 l 1,16,-1
 712 326 l 2,17,18
 712 360 712 360 713.5 401.5 c 128,-1,19
 715 443 715 443 716.5 480.5 c 128,-1,20
 718 518 718 518 719 538 c 1,21,-1
 715 538 l 1,22,-1
 550 0 l 1,23,-1
 390 0 l 1,0,-1
EndSplineSet
Substitution2: "'c2sc' Capitals to Small Capitals lookup 33 subtable" m.sc
EndChar

StartChar: N
Encoding: 78 78 49
Width: 823
GlyphClass: 2
Flags: W
AnchorPoint: "Anchor-3" 803 714 basechar 0
AnchorPoint: "Anchor-2" 412 714 basechar 0
AnchorPoint: "Anchor-0" 412 0 basechar 0
LayerCount: 2
Fore
SplineSet
739 0 m 1,0,-1
 519 0 l 1,1,-1
 231 523 l 1,2,-1
 227 523 l 1,3,4
 228 504 228 504 229.5 472 c 128,-1,5
 231 440 231 440 233 402.5 c 128,-1,6
 235 365 235 365 236 330 c 2,7,-1
 236 0 l 1,8,-1
 84 0 l 1,9,-1
 84 714 l 1,10,-1
 303 714 l 1,11,-1
 590 197 l 1,12,-1
 593 197 l 1,13,14
 592 215 592 215 590.5 246 c 128,-1,15
 589 277 589 277 587.5 313.5 c 128,-1,16
 586 350 586 350 586 383 c 2,17,-1
 586 714 l 1,18,-1
 739 714 l 1,19,-1
 739 0 l 1,0,-1
EndSplineSet
Substitution2: "'c2sc' Capitals to Small Capitals lookup 33 subtable" n.sc
EndChar

StartChar: O
Encoding: 79 79 50
Width: 796
GlyphClass: 2
Flags: W
AnchorPoint: "Anchor-3" 776 714 basechar 0
AnchorPoint: "Anchor-2" 398 714 basechar 0
AnchorPoint: "Anchor-1" 398 357 basechar 0
AnchorPoint: "Anchor-0" 399 0 basechar 0
LayerCount: 2
Fore
SplineSet
741 358 m 256,0,1
 741 247 741 247 705 164.5 c 128,-1,2
 669 82 669 82 593.5 36 c 128,-1,3
 518 -10 518 -10 398 -10 c 0,4,5
 280 -10 280 -10 204 36 c 128,-1,6
 128 82 128 82 91.5 165 c 128,-1,7
 55 248 55 248 55 359 c 256,8,9
 55 470 55 470 91.5 552 c 128,-1,10
 128 634 128 634 204 679.5 c 128,-1,11
 280 725 280 725 399 725 c 256,12,13
 518 725 518 725 593.5 679.5 c 128,-1,14
 669 634 669 634 705 551.5 c 128,-1,15
 741 469 741 469 741 358 c 256,0,1
234 358 m 256,16,17
 234 253 234 253 272.5 193 c 128,-1,18
 311 133 311 133 398 133 c 0,19,20
 486 133 486 133 524 193 c 128,-1,21
 562 253 562 253 562 358 c 256,22,23
 562 463 562 463 524.5 523.5 c 128,-1,24
 487 584 487 584 399 584 c 256,25,26
 311 584 311 584 272.5 523.5 c 128,-1,27
 234 463 234 463 234 358 c 256,16,17
EndSplineSet
Substitution2: "'c2sc' Capitals to Small Capitals lookup 33 subtable" o.sc
Substitution2: "Single Substitution lookup 28 subtable" ordmasculine
EndChar

StartChar: P
Encoding: 80 80 51
Width: 630
GlyphClass: 2
Flags: W
AnchorPoint: "Anchor-3" 610 714 basechar 0
AnchorPoint: "Anchor-2" 325 714 basechar 0
AnchorPoint: "Anchor-0" 315 0 basechar 0
LayerCount: 2
Fore
SplineSet
321 714 m 2,0,1
 458 714 458 714 523.5 655 c 128,-1,2
 589 596 589 596 589 489 c 0,3,4
 589 426 589 426 563 370.5 c 128,-1,5
 537 315 537 315 477 280.5 c 128,-1,6
 417 246 417 246 314 246 c 2,7,-1
 254 246 l 1,8,-1
 254 0 l 1,9,-1
 84 0 l 1,10,-1
 84 714 l 1,11,-1
 321 714 l 2,0,1
315 575 m 2,12,-1
 254 575 l 1,13,-1
 254 385 l 1,14,-1
 299 385 l 2,15,16
 351 385 351 385 384 408 c 128,-1,17
 417 431 417 431 417 484 c 0,18,19
 417 575 417 575 315 575 c 2,12,-1
EndSplineSet
Substitution2: "'c2sc' Capitals to Small Capitals lookup 33 subtable" p.sc
EndChar

StartChar: Q
Encoding: 81 81 52
Width: 796
GlyphClass: 2
Flags: W
AnchorPoint: "Anchor-3" 776 714 basechar 0
AnchorPoint: "Anchor-2" 398 714 basechar 0
AnchorPoint: "Anchor-0" 398 -170 basechar 0
LayerCount: 2
Fore
SplineSet
741 358 m 0,0,1
 741 242 741 242 701 155.5 c 128,-1,2
 661 69 661 69 575 26 c 1,3,-1
 748 -170 l 1,4,-1
 533 -170 l 1,5,-1
 407 -10 l 1,6,-1
 398 -10 l 2,7,8
 280 -10 280 -10 204 36 c 128,-1,9
 128 82 128 82 91.5 165 c 128,-1,10
 55 248 55 248 55 359 c 256,11,12
 55 470 55 470 91.5 552 c 128,-1,13
 128 634 128 634 204 679.5 c 128,-1,14
 280 725 280 725 399 725 c 256,15,16
 518 725 518 725 593.5 679.5 c 128,-1,17
 669 634 669 634 705 551.5 c 128,-1,18
 741 469 741 469 741 358 c 0,0,1
234 358 m 256,19,20
 234 253 234 253 272.5 193 c 128,-1,21
 311 133 311 133 398 133 c 0,22,23
 486 133 486 133 524 193 c 128,-1,24
 562 253 562 253 562 358 c 256,25,26
 562 463 562 463 524.5 523.5 c 128,-1,27
 487 584 487 584 399 584 c 256,28,29
 311 584 311 584 272.5 523.5 c 128,-1,30
 234 463 234 463 234 358 c 256,19,20
EndSplineSet
Substitution2: "'c2sc' Capitals to Small Capitals lookup 33 subtable" q.sc
EndChar

StartChar: R
Encoding: 82 82 53
Width: 668
GlyphClass: 2
Flags: W
AnchorPoint: "Anchor-3" 648 714 basechar 0
AnchorPoint: "Anchor-2" 338 714 basechar 0
AnchorPoint: "Anchor-0" 356 0 basechar 0
LayerCount: 2
Fore
SplineSet
304 714 m 2,0,1
 592 714 592 714 592 501 c 0,2,3
 592 431 592 431 555.5 385 c 128,-1,4
 519 339 519 339 464 311 c 1,5,-1
 673 0 l 1,6,-1
 482 0 l 1,7,-1
 321 268 l 1,8,-1
 254 268 l 1,9,-1
 254 0 l 1,10,-1
 84 0 l 1,11,-1
 84 714 l 1,12,-1
 304 714 l 2,0,1
297 580 m 2,13,-1
 254 580 l 1,14,-1
 254 401 l 1,15,-1
 297 401 l 2,16,17
 358 401 358 401 388.5 423.5 c 128,-1,18
 419 446 419 446 419 495 c 0,19,20
 419 538 419 538 390 559 c 128,-1,21
 361 580 361 580 297 580 c 2,13,-1
EndSplineSet
Substitution2: "'c2sc' Capitals to Small Capitals lookup 33 subtable" r.sc
EndChar

StartChar: S
Encoding: 83 83 54
Width: 563
GlyphClass: 2
Flags: W
AnchorPoint: "Anchor-3" 543 714 basechar 0
AnchorPoint: "Anchor-2" 286 714 basechar 0
AnchorPoint: "Anchor-0" 278 0 basechar 0
LayerCount: 2
Fore
SplineSet
526 207 m 0,0,1
 526 146 526 146 496 96.5 c 128,-1,2
 466 47 466 47 406 18.5 c 128,-1,3
 346 -10 346 -10 255 -10 c 0,4,5
 191 -10 191 -10 141.5 1 c 128,-1,6
 92 12 92 12 45 34 c 1,7,-1
 45 189 l 1,8,9
 99 164 99 164 155.5 147 c 128,-1,10
 212 130 212 130 264 130 c 0,11,12
 314 130 314 130 335.5 148 c 128,-1,13
 357 166 357 166 357 195 c 0,14,15
 357 230 357 230 322.5 251 c 128,-1,16
 288 272 288 272 223 302 c 0,17,18
 181 322 181 322 141.5 347.5 c 128,-1,19
 102 373 102 373 77 413.5 c 128,-1,20
 52 454 52 454 52 518 c 0,21,22
 52 618 52 618 121 671 c 128,-1,23
 190 724 190 724 306 724 c 0,24,25
 368 724 368 724 421.5 710 c 128,-1,26
 475 696 475 696 525 674 c 1,27,-1
 471 541 l 1,28,29
 423 562 423 562 381.5 573.5 c 128,-1,30
 340 585 340 585 301 585 c 0,31,32
 260 585 260 585 240 568 c 128,-1,33
 220 551 220 551 220 525 c 0,34,35
 220 504 220 504 234 488.5 c 128,-1,36
 248 473 248 473 278 457 c 128,-1,37
 308 441 308 441 357 418 c 0,38,39
 410 394 410 394 448 366 c 128,-1,40
 486 338 486 338 506 300 c 128,-1,41
 526 262 526 262 526 207 c 0,0,1
EndSplineSet
Substitution2: "'c2sc' Capitals to Small Capitals lookup 33 subtable" s.sc
EndChar

StartChar: T
Encoding: 84 84 55
Width: 585
GlyphClass: 2
Flags: W
AnchorPoint: "Anchor-3" 565 714 basechar 0
AnchorPoint: "Anchor-2" 293 714 basechar 0
AnchorPoint: "Anchor-1" 293 357 basechar 0
AnchorPoint: "Anchor-0" 293 0 basechar 0
LayerCount: 2
Fore
SplineSet
377 0 m 1,0,-1
 207 0 l 1,1,-1
 207 573 l 1,2,-1
 22 573 l 1,3,-1
 22 714 l 1,4,-1
 562 714 l 1,5,-1
 562 573 l 1,6,-1
 377 573 l 1,7,-1
 377 0 l 1,0,-1
EndSplineSet
Substitution2: "'c2sc' Capitals to Small Capitals lookup 33 subtable" t.sc
EndChar

StartChar: U
Encoding: 85 85 56
Width: 756
GlyphClass: 2
Flags: W
AnchorPoint: "Anchor-3" 736 714 basechar 0
AnchorPoint: "Anchor-2" 378 714 basechar 0
AnchorPoint: "Anchor-0" 376 0 basechar 0
LayerCount: 2
Fore
SplineSet
677 714 m 1,0,-1
 677 267 l 2,1,2
 677 186 677 186 644 123.5 c 128,-1,3
 611 61 611 61 543.5 25.5 c 128,-1,4
 476 -10 476 -10 375 -10 c 0,5,6
 231 -10 231 -10 155 64 c 128,-1,7
 79 138 79 138 79 266 c 2,8,-1
 79 714 l 1,9,-1
 250 714 l 1,10,-1
 250 285 l 2,11,12
 250 202 250 202 282.5 167.5 c 128,-1,13
 315 133 315 133 379 133 c 0,14,15
 446 133 446 133 476.5 169.5 c 128,-1,16
 507 206 507 206 507 286 c 2,17,-1
 507 714 l 1,18,-1
 677 714 l 1,0,-1
EndSplineSet
Substitution2: "'c2sc' Capitals to Small Capitals lookup 33 subtable" u.sc
EndChar

StartChar: V
Encoding: 86 86 57
Width: 670
GlyphClass: 2
Flags: W
AnchorPoint: "Anchor-3" 650 714 basechar 0
AnchorPoint: "Anchor-2" 336 714 basechar 0
AnchorPoint: "Anchor-0" 332 0 basechar 0
LayerCount: 2
Fore
SplineSet
670 714 m 1,0,-1
 431 0 l 1,1,-1
 238 0 l 1,2,-1
 0 714 l 1,3,-1
 183 714 l 1,4,-1
 299 318 l 2,5,6
 304 302 304 302 311.5 272 c 128,-1,7
 319 242 319 242 326 209.5 c 128,-1,8
 333 177 333 177 335 156 c 1,9,10
 338 177 338 177 344.5 209 c 128,-1,11
 351 241 351 241 358.5 271.5 c 128,-1,12
 366 302 366 302 370 317 c 2,13,-1
 488 714 l 1,14,-1
 670 714 l 1,0,-1
EndSplineSet
Substitution2: "'c2sc' Capitals to Small Capitals lookup 33 subtable" v.sc
EndChar

StartChar: W
Encoding: 87 87 58
Width: 1000
GlyphClass: 2
Flags: W
AnchorPoint: "Anchor-3" 980 714 basechar 0
AnchorPoint: "Anchor-2" 501 714 basechar 0
AnchorPoint: "Anchor-0" 500 0 basechar 0
LayerCount: 2
Fore
SplineSet
993 714 m 1,0,-1
 814 0 l 1,1,-1
 616 0 l 1,2,-1
 533 345 l 2,3,4
 531 355 531 355 526 377 c 128,-1,5
 521 399 521 399 516 425 c 128,-1,6
 511 451 511 451 506.5 475.5 c 128,-1,7
 502 500 502 500 501 516 c 1,8,9
 499 500 499 500 494.5 475.5 c 128,-1,10
 490 451 490 451 485 425 c 128,-1,11
 480 399 480 399 475.5 377.5 c 128,-1,12
 471 356 471 356 468 345 c 2,13,-1
 384 0 l 1,14,-1
 187 0 l 1,15,-1
 7 714 l 1,16,-1
 173 714 l 1,17,-1
 258 339 l 2,18,19
 263 318 263 318 270 283 c 128,-1,20
 277 248 277 248 283.5 211 c 128,-1,21
 290 174 290 174 293 151 c 1,22,23
 297 183 297 183 305 226.5 c 128,-1,24
 313 270 313 270 321.5 310.5 c 128,-1,25
 330 351 330 351 336 374 c 2,26,-1
 421 714 l 1,27,-1
 580 714 l 1,28,-1
 665 374 l 2,29,30
 669 357 669 357 674.5 329 c 128,-1,31
 680 301 680 301 686.5 268.5 c 128,-1,32
 693 236 693 236 698.5 205 c 128,-1,33
 704 174 704 174 707 151 c 1,34,35
 710 176 710 176 716.5 211.5 c 128,-1,36
 723 247 723 247 730 282 c 128,-1,37
 737 317 737 317 742 338 c 2,38,-1
 827 714 l 1,39,-1
 993 714 l 1,0,-1
EndSplineSet
Substitution2: "'c2sc' Capitals to Small Capitals lookup 33 subtable" w.sc
EndChar

StartChar: X
Encoding: 88 88 59
Width: 693
GlyphClass: 2
Flags: W
AnchorPoint: "Anchor-3" 673 714 basechar 0
AnchorPoint: "Anchor-2" 344 714 basechar 0
AnchorPoint: "Anchor-0" 347 0 basechar 0
LayerCount: 2
Fore
SplineSet
691 0 m 1,0,-1
 495 0 l 1,1,-1
 342 248 l 1,2,-1
 189 0 l 1,3,-1
 1 0 l 1,4,-1
 238 367 l 1,5,-1
 15 714 l 1,6,-1
 204 714 l 1,7,-1
 347 474 l 1,8,-1
 485 714 l 1,9,-1
 674 714 l 1,10,-1
 450 355 l 1,11,-1
 691 0 l 1,0,-1
EndSplineSet
Substitution2: "'c2sc' Capitals to Small Capitals lookup 33 subtable" x.sc
EndChar

StartChar: Y
Encoding: 89 89 60
Width: 642
GlyphClass: 2
Flags: W
AnchorPoint: "Anchor-3" 622 714 basechar 0
AnchorPoint: "Anchor-2" 321 714 basechar 0
AnchorPoint: "Anchor-0" 321 0 basechar 0
LayerCount: 2
Fore
SplineSet
321 433 m 1,0,-1
 458 714 l 1,1,-1
 642 714 l 1,2,-1
 406 278 l 1,3,-1
 406 0 l 1,4,-1
 236 0 l 1,5,-1
 236 273 l 1,6,-1
 0 714 l 1,7,-1
 185 714 l 1,8,-1
 321 433 l 1,0,-1
EndSplineSet
Substitution2: "'c2sc' Capitals to Small Capitals lookup 33 subtable" y.sc
EndChar

StartChar: Z
Encoding: 90 90 61
Width: 594
GlyphClass: 2
Flags: W
AnchorPoint: "Anchor-3" 574 714 basechar 0
AnchorPoint: "Anchor-2" 304 714 basechar 0
AnchorPoint: "Anchor-0" 311 0 basechar 0
LayerCount: 2
Fore
SplineSet
569 0 m 1,0,-1
 27 0 l 1,1,-1
 27 108 l 1,2,-1
 354 575 l 1,3,-1
 35 575 l 1,4,-1
 35 714 l 1,5,-1
 561 714 l 1,6,-1
 561 606 l 1,7,-1
 234 139 l 1,8,-1
 569 139 l 1,9,-1
 569 0 l 1,0,-1
EndSplineSet
Substitution2: "'c2sc' Capitals to Small Capitals lookup 33 subtable" z.sc
EndChar

StartChar: bracketleft
Encoding: 91 91 62
Width: 328
Flags: W
LayerCount: 2
Fore
SplineSet
304 -163 m 1,0,-1
 64 -163 l 1,1,-1
 64 723 l 1,2,-1
 304 723 l 1,3,-1
 304 611 l 1,4,-1
 204 611 l 1,5,-1
 204 -50 l 1,6,-1
 304 -50 l 1,7,-1
 304 -163 l 1,0,-1
EndSplineSet
Substitution2: "'smcp' Lowercase to Small Capitals lookup 34 subtable" bracketleft.sc
Substitution2: "'c2sc' Capitals to Small Capitals lookup 33 subtable" bracketleft.sc
EndChar

StartChar: backslash
Encoding: 92 92 63
Width: 426
Flags: W
LayerCount: 2
Fore
SplineSet
155 719 m 1,0,-1
 421 -5 l 1,1,-1
 271 -5 l 1,2,-1
 5 719 l 1,3,-1
 155 719 l 1,0,-1
EndSplineSet
EndChar

StartChar: bracketright
Encoding: 93 93 64
Width: 328
Flags: W
LayerCount: 2
Fore
SplineSet
24 -50 m 1,0,-1
 124 -50 l 1,1,-1
 124 611 l 1,2,-1
 24 611 l 1,3,-1
 24 723 l 1,4,-1
 264 723 l 1,5,-1
 264 -163 l 1,6,-1
 24 -163 l 1,7,-1
 24 -50 l 1,0,-1
EndSplineSet
Substitution2: "'smcp' Lowercase to Small Capitals lookup 34 subtable" bracketright.sc
Substitution2: "'c2sc' Capitals to Small Capitals lookup 33 subtable" bracketright.sc
EndChar

StartChar: asciicircum
Encoding: 94 94 65
Width: 550
Flags: W
LayerCount: 2
Fore
SplineSet
9 250 m 1,0,-1
 223 718 l 1,1,-1
 299 718 l 1,2,-1
 544 250 l 1,3,-1
 414 250 l 1,4,-1
 265 549 l 1,5,-1
 135 250 l 1,6,-1
 9 250 l 1,0,-1
EndSplineSet
EndChar

StartChar: underscore
Encoding: 95 95 66
Width: 452
Flags: W
LayerCount: 2
Fore
SplineSet
454 -170 m 1,0,-1
 -2 -170 l 1,1,-1
 -2 -78 l 1,2,-1
 454 -78 l 1,3,-1
 454 -170 l 1,0,-1
EndSplineSet
EndChar

StartChar: grave
Encoding: 96 96 67
Width: 388
Flags: W
LayerCount: 2
Fore
SplineSet
227 766 m 1,0,1
 242 744 242 744 264.5 716.5 c 128,-1,2
 287 689 287 689 309.5 663.5 c 128,-1,3
 332 638 332 638 348 619 c 1,4,-1
 348 606 l 1,5,-1
 236 606 l 1,6,7
 216 619 216 619 189.5 638.5 c 128,-1,8
 163 658 163 658 134.5 680 c 128,-1,9
 106 702 106 702 81 722 c 128,-1,10
 56 742 56 742 40 756 c 1,11,-1
 40 766 l 1,12,-1
 227 766 l 1,0,1
EndSplineSet
EndChar

StartChar: a
Encoding: 97 97 68
Width: 613
GlyphClass: 2
Flags: W
AnchorPoint: "Anchor-3" 570 549 basechar 0
AnchorPoint: "Anchor-2" 307 549 basechar 0
AnchorPoint: "Anchor-0" 307 0 basechar 0
LayerCount: 2
Fore
SplineSet
318 560 m 0,0,1
 425 560 425 560 484 510.5 c 128,-1,2
 543 461 543 461 543 364 c 2,3,-1
 543 0 l 1,4,-1
 426 0 l 1,5,-1
 393 74 l 1,6,-1
 389 74 l 1,7,8
 354 30 354 30 315 10 c 128,-1,9
 276 -10 276 -10 208 -10 c 0,10,11
 135 -10 135 -10 87 33 c 128,-1,12
 39 76 39 76 39 166 c 0,13,14
 39 254 39 254 100.5 296 c 128,-1,15
 162 338 162 338 281 343 c 2,16,-1
 375 346 l 1,17,-1
 375 362 l 2,18,19
 375 402 375 402 354.5 420 c 128,-1,20
 334 438 334 438 298 438 c 0,21,22
 261 438 261 438 222.5 426.5 c 128,-1,23
 184 415 184 415 144 398 c 1,24,-1
 93 510 l 1,25,26
 138 534 138 534 195 547 c 128,-1,27
 252 560 252 560 318 560 c 0,0,1
375 250 m 1,28,-1
 324 248 l 2,29,30
 261 246 261 246 236 225.5 c 128,-1,31
 211 205 211 205 211 170 c 0,32,33
 211 138 211 138 228.5 124.5 c 128,-1,34
 246 111 246 111 275 111 c 0,35,36
 317 111 317 111 346 136.5 c 128,-1,37
 375 162 375 162 375 206 c 2,38,-1
 375 250 l 1,28,-1
EndSplineSet
Substitution2: "'smcp' Lowercase to Small Capitals lookup 34 subtable" a.sc
Substitution2: "Single Substitution lookup 28 subtable" ordfeminine
EndChar

StartChar: b
Encoding: 98 98 69
Width: 638
GlyphClass: 2
Flags: W
AnchorPoint: "Anchor-3" 561 760 basechar 0
AnchorPoint: "Anchor-2" 326 760 basechar 0
AnchorPoint: "Anchor-0" 333 0 basechar 0
LayerCount: 2
Fore
SplineSet
241 760 m 1,0,-1
 241 585 l 2,1,2
 241 555 241 555 239 526.5 c 128,-1,3
 237 498 237 498 234 478 c 1,4,-1
 241 478 l 1,5,6
 262 512 262 512 298 535.5 c 128,-1,7
 334 559 334 559 392 559 c 0,8,9
 481 559 481 559 537.5 487 c 128,-1,10
 594 415 594 415 594 276 c 0,11,12
 594 135 594 135 536.5 62.5 c 128,-1,13
 479 -10 479 -10 387 -10 c 0,14,15
 328 -10 328 -10 295 11 c 128,-1,16
 262 32 262 32 241 57 c 1,17,-1
 230 57 l 1,18,-1
 203 0 l 1,19,-1
 72 0 l 1,20,-1
 72 760 l 1,21,-1
 241 760 l 1,0,-1
334 426 m 0,22,23
 284 426 284 426 263 393.5 c 128,-1,24
 242 361 242 361 241 294 c 2,25,-1
 241 273 l 2,26,27
 241 200 241 200 261.5 163 c 128,-1,28
 282 126 282 126 336 126 c 0,29,30
 376 126 376 126 399 165 c 128,-1,31
 422 204 422 204 422 278 c 0,32,33
 422 426 422 426 334 426 c 0,22,23
EndSplineSet
Substitution2: "'smcp' Lowercase to Small Capitals lookup 34 subtable" b.sc
EndChar

StartChar: c
Encoding: 99 99 70
Width: 526
GlyphClass: 2
Flags: W
AnchorPoint: "Anchor-3" 498 549 basechar 0
AnchorPoint: "Anchor-2" 290 549 basechar 0
AnchorPoint: "Anchor-0" 302 0 basechar 0
LayerCount: 2
Fore
SplineSet
308 -10 m 0,0,1
 184 -10 184 -10 114 57.5 c 128,-1,2
 44 125 44 125 44 272 c 0,3,4
 44 372 44 372 80 435.5 c 128,-1,5
 116 499 116 499 178.5 529 c 128,-1,6
 241 559 241 559 322 559 c 0,7,8
 376 559 376 559 419 548 c 128,-1,9
 462 537 462 537 497 520 c 1,10,-1
 448 393 l 1,11,12
 413 407 413 407 383 416 c 128,-1,13
 353 425 353 425 322 425 c 0,14,15
 270 425 270 425 242.5 387.5 c 128,-1,16
 215 350 215 350 215 273 c 256,17,18
 215 196 215 196 244 160.5 c 128,-1,19
 273 125 273 125 323 125 c 0,20,21
 366 125 366 125 405 137.5 c 128,-1,22
 444 150 444 150 479 173 c 1,23,-1
 479 35 l 1,24,25
 444 12 444 12 404.5 1 c 128,-1,26
 365 -10 365 -10 308 -10 c 0,0,1
EndSplineSet
Substitution2: "'smcp' Lowercase to Small Capitals lookup 34 subtable" c.sc
EndChar

StartChar: d
Encoding: 100 100 71
Width: 638
GlyphClass: 2
Flags: W
AnchorPoint: "Anchor-3" 592 760 basechar 0
AnchorPoint: "Anchor-2" 242 760 basechar 0
AnchorPoint: "Anchor-1" 319 275 basechar 0
AnchorPoint: "Anchor-0" 307 0 basechar 0
LayerCount: 2
Fore
SplineSet
245 -10 m 0,0,1
 156 -10 156 -10 100 62 c 128,-1,2
 44 134 44 134 44 274 c 0,3,4
 44 415 44 415 101 487 c 128,-1,5
 158 559 158 559 250 559 c 0,6,7
 308 559 308 559 344 536 c 128,-1,8
 380 513 380 513 402 479 c 1,9,-1
 406 479 l 1,10,11
 403 497 403 497 399.5 530.5 c 128,-1,12
 396 564 396 564 396 597 c 2,13,-1
 396 760 l 1,14,-1
 565 760 l 1,15,-1
 565 0 l 1,16,-1
 437 0 l 1,17,-1
 403 71 l 1,18,-1
 396 71 l 1,19,20
 375 37 375 37 339.5 13.5 c 128,-1,21
 304 -10 304 -10 245 -10 c 0,0,1
309 124 m 0,22,23
 363 124 363 124 385.5 157 c 128,-1,24
 408 190 408 190 409 257 c 2,25,-1
 409 272 l 2,26,27
 409 346 409 346 387.5 384.5 c 128,-1,28
 366 423 366 423 307 423 c 0,29,30
 264 423 264 423 239 385 c 128,-1,31
 214 347 214 347 214 271 c 0,32,33
 214 196 214 196 239.5 160 c 128,-1,34
 265 124 265 124 309 124 c 0,22,23
EndSplineSet
Substitution2: "'smcp' Lowercase to Small Capitals lookup 34 subtable" d.sc
EndChar

StartChar: e
Encoding: 101 101 72
Width: 603
GlyphClass: 2
Flags: W
AnchorPoint: "Anchor-3" 583 549 basechar 0
AnchorPoint: "Anchor-2" 302 549 basechar 0
AnchorPoint: "Anchor-0" 313 0 basechar 0
LayerCount: 2
Fore
SplineSet
309 559 m 0,0,1
 425 559 425 559 493 495.5 c 128,-1,2
 561 432 561 432 561 309 c 2,3,-1
 561 231 l 1,4,-1
 214 231 l 1,5,6
 216 177 216 177 249 145 c 128,-1,7
 282 113 282 113 343 113 c 0,8,9
 396 113 396 113 439 123 c 128,-1,10
 482 133 482 133 528 155 c 1,11,-1
 528 30 l 1,12,13
 488 9 488 9 442 -0.5 c 128,-1,14
 396 -10 396 -10 329 -10 c 0,15,16
 246 -10 246 -10 181.5 20 c 128,-1,17
 117 50 117 50 80.5 112 c 128,-1,18
 44 174 44 174 44 271 c 0,19,20
 44 417 44 417 117 488 c 128,-1,21
 190 559 190 559 309 559 c 0,0,1
312 442 m 0,22,23
 273 442 273 442 247.5 417 c 128,-1,24
 222 392 222 392 217 340 c 1,25,-1
 406 340 l 1,26,27
 405 384 405 384 381.5 413 c 128,-1,28
 358 442 358 442 312 442 c 0,22,23
EndSplineSet
Substitution2: "'smcp' Lowercase to Small Capitals lookup 34 subtable" e.sc
EndChar

StartChar: f
Encoding: 102 102 73
Width: 399
GlyphClass: 2
Flags: W
AnchorPoint: "Anchor-3" 423 765 basechar 0
AnchorPoint: "Anchor-2" 272 765 basechar 0
AnchorPoint: "Anchor-0" 182 0 basechar 0
LayerCount: 2
Fore
SplineSet
391 423 m 1,0,-1
 267 423 l 1,1,-1
 267 0 l 1,2,-1
 99 0 l 1,3,-1
 99 423 l 1,4,-1
 21 423 l 1,5,-1
 21 505 l 1,6,-1
 101 548 l 1,7,-1
 101 574 l 2,8,9
 101 680 101 680 149 722.5 c 128,-1,10
 197 765 197 765 291 765 c 0,11,12
 334 765 334 765 369.5 758.5 c 128,-1,13
 405 752 405 752 435 741 c 1,14,-1
 395 625 l 1,15,16
 379 630 379 630 360.5 633.5 c 128,-1,17
 342 637 342 637 319 637 c 0,18,19
 267 637 267 637 267 574 c 2,20,-1
 267 549 l 1,21,-1
 391 549 l 1,22,-1
 391 423 l 1,0,-1
EndSplineSet
Substitution2: "'smcp' Lowercase to Small Capitals lookup 34 subtable" f.sc
EndChar

StartChar: g
Encoding: 103 103 74
Width: 638
GlyphClass: 2
Flags: W
AnchorPoint: "Anchor-3" 591 549 basechar 0
AnchorPoint: "Anchor-2" 314 549 basechar 0
AnchorPoint: "Anchor-0" 295 -240 basechar 0
LayerCount: 2
Fore
SplineSet
249 559 m 0,0,1
 303 559 303 559 340.5 538 c 128,-1,2
 378 517 378 517 404 480 c 1,3,-1
 408 480 l 1,4,-1
 421 549 l 1,5,-1
 565 549 l 1,6,-1
 565 -1 l 2,7,8
 565 -118 565 -118 494.5 -179 c 128,-1,9
 424 -240 424 -240 282 -240 c 0,10,11
 220 -240 220 -240 169.5 -233 c 128,-1,12
 119 -226 119 -226 72 -208 c 1,13,-1
 72 -71 l 1,14,15
 122 -92 122 -92 171.5 -102.5 c 128,-1,16
 221 -113 221 -113 282 -113 c 0,17,18
 397 -113 397 -113 397 -8 c 2,19,-1
 397 3 l 2,20,21
 397 33 397 33 402 71 c 1,22,-1
 397 71 l 1,23,24
 373 33 373 33 335.5 11.5 c 128,-1,25
 298 -10 298 -10 246 -10 c 0,26,27
 153 -10 153 -10 98.5 64 c 128,-1,28
 44 138 44 138 44 274 c 0,29,30
 44 411 44 411 99.5 485 c 128,-1,31
 155 559 155 559 249 559 c 0,0,1
308 426 m 0,32,33
 215 426 215 426 215 271 c 0,34,35
 215 194 215 194 238 157.5 c 128,-1,36
 261 121 261 121 310 121 c 0,37,38
 362 121 362 121 385.5 152.5 c 128,-1,39
 409 184 409 184 409 254 c 2,40,-1
 409 275 l 2,41,42
 409 352 409 352 386.5 389 c 128,-1,43
 364 426 364 426 308 426 c 0,32,33
EndSplineSet
Substitution2: "'smcp' Lowercase to Small Capitals lookup 34 subtable" g.sc
EndChar

StartChar: h
Encoding: 104 104 75
Width: 663
GlyphClass: 2
Flags: W
AnchorPoint: "Anchor-3" 581 760 basechar 0
AnchorPoint: "Anchor-2" 159 760 basechar 0
AnchorPoint: "Anchor-1" 332 275 basechar 0
AnchorPoint: "Anchor-0" 335 0 basechar 0
LayerCount: 2
Fore
SplineSet
241 760 m 1,0,-1
 241 627 l 2,1,2
 241 577 241 577 238 537.5 c 128,-1,3
 235 498 235 498 233 480 c 1,4,-1
 242 480 l 1,5,6
 268 523 268 523 308 541 c 128,-1,7
 348 559 348 559 397 559 c 0,8,9
 454 559 454 559 498 538 c 128,-1,10
 542 517 542 517 567.5 472.5 c 128,-1,11
 593 428 593 428 593 358 c 2,12,-1
 593 0 l 1,13,-1
 424 0 l 1,14,-1
 424 311 l 2,15,16
 424 426 424 426 346 426 c 0,17,18
 286 426 286 426 263.5 380.5 c 128,-1,19
 241 335 241 335 241 251 c 2,20,-1
 241 0 l 1,21,-1
 72 0 l 1,22,-1
 72 760 l 1,23,-1
 241 760 l 1,0,-1
EndSplineSet
Substitution2: "'smcp' Lowercase to Small Capitals lookup 34 subtable" h.sc
Substitution2: "'subs' Subscript lookup 18 subtable" uni2095
EndChar

StartChar: i
Encoding: 105 105 76
Width: 314
GlyphClass: 2
Flags: W
AnchorPoint: "Anchor-3" 294 767 basechar 0
AnchorPoint: "Anchor-2" 158 767 basechar 0
AnchorPoint: "Anchor-0" 160 0 basechar 0
LayerCount: 2
Fore
SplineSet
158 767 m 0,0,1
 195 767 195 767 221.5 751 c 128,-1,2
 248 735 248 735 248 689 c 0,3,4
 248 644 248 644 221.5 627.5 c 128,-1,5
 195 611 195 611 158 611 c 0,6,7
 120 611 120 611 93.5 627.5 c 128,-1,8
 67 644 67 644 67 689 c 0,9,10
 67 735 67 735 93.5 751 c 128,-1,11
 120 767 120 767 158 767 c 0,0,1
241 549 m 1,12,-1
 241 0 l 1,13,-1
 73 0 l 1,14,-1
 73 549 l 1,15,-1
 241 549 l 1,12,-1
EndSplineSet
Substitution2: "'smcp' Lowercase to Small Capitals lookup 34 subtable" i.sc
Substitution2: "Single Substitution lookup 5 subtable" dotlessi
Substitution2: "Single Substitution lookup 4 subtable" dotlessi
EndChar

StartChar: j
Encoding: 106 106 77
Width: 314
GlyphClass: 2
Flags: W
AnchorPoint: "Anchor-3" 294 767 basechar 0
AnchorPoint: "Anchor-2" 157 767 basechar 0
AnchorPoint: "Anchor-0" 42 -240 basechar 0
LayerCount: 2
Fore
SplineSet
67 689 m 0,0,1
 67 735 67 735 93.5 751 c 128,-1,2
 120 767 120 767 157 767 c 256,3,4
 194 767 194 767 221 751 c 128,-1,5
 248 735 248 735 248 689 c 0,6,7
 248 644 248 644 221 627.5 c 128,-1,8
 194 611 194 611 157 611 c 256,9,10
 120 611 120 611 93.5 627.5 c 128,-1,11
 67 644 67 644 67 689 c 0,0,1
42 -240 m 0,12,13
 18 -240 18 -240 -10.5 -236.5 c 128,-1,14
 -39 -233 -39 -233 -58 -228 c 1,15,-1
 -58 -96 l 1,16,17
 -41 -100 -41 -100 -26.5 -102.5 c 128,-1,18
 -12 -105 -12 -105 7 -105 c 0,19,20
 34 -105 34 -105 53 -88.5 c 128,-1,21
 72 -72 72 -72 72 -22 c 2,22,-1
 72 549 l 1,23,-1
 241 549 l 1,24,-1
 241 -53 l 2,25,26
 241 -103 241 -103 221.5 -145.5 c 128,-1,27
 202 -188 202 -188 158.5 -214 c 128,-1,28
 115 -240 115 -240 42 -240 c 0,12,13
EndSplineSet
Substitution2: "'smcp' Lowercase to Small Capitals lookup 34 subtable" j.sc
Substitution2: "Single Substitution lookup 5 subtable" uni0237
Substitution2: "Single Substitution lookup 4 subtable" uni0237
EndChar

StartChar: k
Encoding: 107 107 78
Width: 638
GlyphClass: 2
Flags: W
AnchorPoint: "Anchor-3" 637 760 basechar 0
AnchorPoint: "Anchor-2" 161 760 basechar 0
AnchorPoint: "Anchor-0" 319 0 basechar 0
LayerCount: 2
Fore
SplineSet
241 760 m 1,0,-1
 241 439 l 2,1,2
 241 407 241 407 238.5 371 c 128,-1,3
 236 335 236 335 232 303 c 1,4,-1
 235 303 l 1,5,6
 243 315 243 315 261 340.5 c 128,-1,7
 279 366 279 366 297 388 c 2,8,-1
 437 549 l 1,9,-1
 625 549 l 1,10,-1
 420 313 l 1,11,-1
 638 0 l 1,12,-1
 445 0 l 1,13,-1
 304 210 l 1,14,-1
 241 161 l 1,15,-1
 241 0 l 1,16,-1
 72 0 l 1,17,-1
 72 760 l 1,18,-1
 241 760 l 1,0,-1
EndSplineSet
Substitution2: "'smcp' Lowercase to Small Capitals lookup 34 subtable" k.sc
Substitution2: "'subs' Subscript lookup 18 subtable" uni2096
EndChar

StartChar: l
Encoding: 108 108 79
Width: 385
GlyphClass: 2
Flags: W
AnchorPoint: "Anchor-0" 161 -7 basechar 0
AnchorPoint: "Anchor-2" 161 760 basechar 0
LayerCount: 2
Fore
SplineSet
250 -7 m 0,0,1
 184 -7 184 -7 146 16 c 128,-1,2
 108 39 108 39 92 80 c 128,-1,3
 76 121 76 121 76 175 c 2,4,-1
 76 760 l 1,5,-1
 245 760 l 1,6,-1
 245 178 l 2,7,8
 245 155 245 155 258 141.5 c 128,-1,9
 271 128 271 128 292 128 c 0,10,11
 309 128 309 128 321 130.5 c 128,-1,12
 333 133 333 133 347 138 c 1,13,-1
 347 9 l 1,14,15
 330 0 330 0 303.5 -3.5 c 128,-1,16
 277 -7 277 -7 250 -7 c 0,0,1
EndSplineSet
Substitution2: "'smcp' Lowercase to Small Capitals lookup 34 subtable" l.sc
Substitution2: "'subs' Subscript lookup 18 subtable" uni2097
EndChar

StartChar: m
Encoding: 109 109 80
Width: 990
GlyphClass: 2
Flags: W
AnchorPoint: "Anchor-3" 948 549 basechar 0
AnchorPoint: "Anchor-2" 510 549 basechar 0
AnchorPoint: "Anchor-0" 499 0 basechar 0
LayerCount: 2
Fore
SplineSet
729 559 m 0,0,1
 823 559 823 559 871.5 511.5 c 128,-1,2
 920 464 920 464 920 358 c 2,3,-1
 920 0 l 1,4,-1
 752 0 l 1,5,-1
 752 311 l 2,6,7
 752 371 752 371 733 398.5 c 128,-1,8
 714 426 714 426 677 426 c 0,9,10
 624 426 624 426 602 385 c 128,-1,11
 580 344 580 344 580 267 c 2,12,-1
 580 0 l 1,13,-1
 412 0 l 1,14,-1
 412 311 l 2,15,16
 412 370 412 370 394 398 c 128,-1,17
 376 426 376 426 338 426 c 0,18,19
 282 426 282 426 261.5 380.5 c 128,-1,20
 241 335 241 335 241 250 c 2,21,-1
 241 0 l 1,22,-1
 72 0 l 1,23,-1
 72 549 l 1,24,-1
 200 549 l 1,25,-1
 224 480 l 1,26,-1
 231 480 l 1,27,28
 254 518 254 518 296.5 538.5 c 128,-1,29
 339 559 339 559 393 559 c 0,30,31
 511 559 511 559 558 481 c 1,32,-1
 568 481 l 1,33,34
 594 520 594 520 637 539.5 c 128,-1,35
 680 559 680 559 729 559 c 0,0,1
EndSplineSet
Substitution2: "'smcp' Lowercase to Small Capitals lookup 34 subtable" m.sc
Substitution2: "'subs' Subscript lookup 18 subtable" uni2098
EndChar

StartChar: n
Encoding: 110 110 81
Width: 663
GlyphClass: 2
Flags: W
AnchorPoint: "Anchor-3" 620 549 basechar 0
AnchorPoint: "Anchor-2" 332 549 basechar 0
AnchorPoint: "Anchor-0" 332 0 basechar 0
LayerCount: 2
Fore
SplineSet
399 559 m 0,0,1
 486 559 486 559 539.5 511.5 c 128,-1,2
 593 464 593 464 593 358 c 2,3,-1
 593 0 l 1,4,-1
 425 0 l 1,5,-1
 425 311 l 2,6,7
 425 368 425 368 406 397 c 128,-1,8
 387 426 387 426 346 426 c 0,9,10
 284 426 284 426 262.5 380.5 c 128,-1,11
 241 335 241 335 241 250 c 2,12,-1
 241 0 l 1,13,-1
 72 0 l 1,14,-1
 72 549 l 1,15,-1
 200 549 l 1,16,-1
 223 478 l 1,17,-1
 231 478 l 1,18,19
 257 518 257 518 300.5 538.5 c 128,-1,20
 344 559 344 559 399 559 c 0,0,1
EndSplineSet
Substitution2: "'smcp' Lowercase to Small Capitals lookup 34 subtable" n.sc
Substitution2: "'sups' Superscript lookup 19 subtable" nsuperior
Substitution2: "'subs' Subscript lookup 18 subtable" uni2099
EndChar

StartChar: o
Encoding: 111 111 82
Width: 627
GlyphClass: 2
Flags: W
AnchorPoint: "Anchor-3" 607 549 basechar 0
AnchorPoint: "Anchor-2" 314 549 basechar 0
AnchorPoint: "Anchor-1" 314 275 basechar 0
AnchorPoint: "Anchor-0" 313 0 basechar 0
LayerCount: 2
Fore
SplineSet
583 276 m 0,0,1
 583 138 583 138 510.5 64 c 128,-1,2
 438 -10 438 -10 312 -10 c 0,3,4
 234 -10 234 -10 173.5 23 c 128,-1,5
 113 56 113 56 78.5 120 c 128,-1,6
 44 184 44 184 44 276 c 0,7,8
 44 412 44 412 116 485.5 c 128,-1,9
 188 559 188 559 315 559 c 0,10,11
 393 559 393 559 453.5 526 c 128,-1,12
 514 493 514 493 548.5 430 c 128,-1,13
 583 367 583 367 583 276 c 0,0,1
215 276 m 256,14,15
 215 200 215 200 238 160 c 128,-1,16
 261 120 261 120 314 120 c 0,17,18
 366 120 366 120 389 160 c 128,-1,19
 412 200 412 200 412 276 c 256,20,21
 412 352 412 352 389 390.5 c 128,-1,22
 366 429 366 429 313 429 c 0,23,24
 261 429 261 429 238 390.5 c 128,-1,25
 215 352 215 352 215 276 c 256,14,15
EndSplineSet
Substitution2: "'smcp' Lowercase to Small Capitals lookup 34 subtable" o.sc
Substitution2: "Single Substitution lookup 28 subtable" ordmasculine
EndChar

StartChar: p
Encoding: 112 112 83
Width: 638
GlyphClass: 2
Flags: W
AnchorPoint: "Anchor-3" 618 549 basechar 0
AnchorPoint: "Anchor-2" 335 549 basechar 0
AnchorPoint: "Anchor-0" 158 -240 basechar 0
LayerCount: 2
Fore
SplineSet
392 559 m 0,0,1
 484 559 484 559 539 486.5 c 128,-1,2
 594 414 594 414 594 276 c 0,3,4
 594 182 594 182 567 118.5 c 128,-1,5
 540 55 540 55 493.5 22.5 c 128,-1,6
 447 -10 447 -10 387 -10 c 0,7,8
 328 -10 328 -10 294.5 11 c 128,-1,9
 261 32 261 32 241 57 c 1,10,-1
 234 57 l 1,11,12
 237 38 237 38 239 17 c 128,-1,13
 241 -4 241 -4 241 -28 c 2,14,-1
 241 -240 l 1,15,-1
 72 -240 l 1,16,-1
 72 549 l 1,17,-1
 209 549 l 1,18,-1
 233 479 l 1,19,-1
 241 479 l 1,20,21
 262 511 262 511 298 535 c 128,-1,22
 334 559 334 559 392 559 c 0,0,1
333 426 m 0,23,24
 282 426 282 426 262 393 c 128,-1,25
 242 360 242 360 241 292 c 2,26,-1
 241 277 l 2,27,28
 241 204 241 204 261 165 c 128,-1,29
 281 126 281 126 335 126 c 0,30,31
 422 126 422 126 422 278 c 0,32,33
 422 354 422 354 400 390 c 128,-1,34
 378 426 378 426 333 426 c 0,23,24
EndSplineSet
Substitution2: "'smcp' Lowercase to Small Capitals lookup 34 subtable" p.sc
Substitution2: "'subs' Subscript lookup 18 subtable" uni209A
EndChar

StartChar: q
Encoding: 113 113 84
Width: 638
GlyphClass: 2
Flags: W
AnchorPoint: "Anchor-3" 592 549 basechar 0
AnchorPoint: "Anchor-2" 319 549 basechar 0
AnchorPoint: "Anchor-0" 480 -240 basechar 0
LayerCount: 2
Fore
SplineSet
397 -240 m 1,0,-1
 397 -11 l 2,1,2
 397 30 397 30 403 71 c 1,3,-1
 397 71 l 1,4,5
 377 37 377 37 340.5 13.5 c 128,-1,6
 304 -10 304 -10 246 -10 c 0,7,8
 155 -10 155 -10 99.5 62 c 128,-1,9
 44 134 44 134 44 274 c 256,10,11
 44 414 44 414 101 486.5 c 128,-1,12
 158 559 158 559 249 559 c 0,13,14
 308 559 308 559 345 536.5 c 128,-1,15
 382 514 382 514 404 480 c 1,16,-1
 408 480 l 1,17,-1
 421 549 l 1,18,-1
 565 549 l 1,19,-1
 565 -240 l 1,20,-1
 397 -240 l 1,0,-1
310 121 m 0,21,22
 365 121 365 121 386.5 154 c 128,-1,23
 408 187 408 187 409 254 c 2,24,-1
 409 275 l 2,25,26
 409 347 409 347 387.5 386.5 c 128,-1,27
 366 426 366 426 308 426 c 0,28,29
 261 426 261 426 238 386.5 c 128,-1,30
 215 347 215 347 215 271 c 0,31,32
 215 194 215 194 238 157.5 c 128,-1,33
 261 121 261 121 310 121 c 0,21,22
EndSplineSet
Substitution2: "'smcp' Lowercase to Small Capitals lookup 34 subtable" q.sc
EndChar

StartChar: r
Encoding: 114 114 85
Width: 461
GlyphClass: 2
Flags: W
AnchorPoint: "Anchor-3" 441 549 basechar 0
AnchorPoint: "Anchor-2" 253 549 basechar 0
AnchorPoint: "Anchor-0" 160 0 basechar 0
LayerCount: 2
Fore
SplineSet
391 559 m 0,0,1
 404 559 404 559 420 557.5 c 128,-1,2
 436 556 436 556 445 554 c 1,3,-1
 431 396 l 1,4,5
 411 401 411 401 377 401 c 0,6,7
 345 401 345 401 313.5 390.5 c 128,-1,8
 282 380 282 380 261.5 353 c 128,-1,9
 241 326 241 326 241 275 c 2,10,-1
 241 0 l 1,11,-1
 72 0 l 1,12,-1
 72 549 l 1,13,-1
 199 549 l 1,14,-1
 225 459 l 1,15,-1
 232 459 l 1,16,17
 256 500 256 500 297.5 529.5 c 128,-1,18
 339 559 339 559 391 559 c 0,0,1
EndSplineSet
Substitution2: "'smcp' Lowercase to Small Capitals lookup 34 subtable" r.sc
EndChar

StartChar: s
Encoding: 115 115 86
Width: 506
GlyphClass: 2
Flags: W
AnchorPoint: "Anchor-3" 475 549 basechar 0
AnchorPoint: "Anchor-2" 250 549 basechar 0
AnchorPoint: "Anchor-0" 250 0 basechar 0
LayerCount: 2
Fore
SplineSet
467 166 m 0,0,1
 467 84 467 84 410.5 37 c 128,-1,2
 354 -10 354 -10 234 -10 c 0,3,4
 176 -10 176 -10 132.5 -3 c 128,-1,5
 89 4 89 4 45 22 c 1,6,-1
 45 158 l 1,7,8
 93 136 93 136 145 124.5 c 128,-1,9
 197 113 197 113 233 113 c 0,10,11
 271 113 271 113 288 123 c 128,-1,12
 305 133 305 133 305 151 c 0,13,14
 305 164 305 164 296.5 174 c 128,-1,15
 288 184 288 184 262.5 196.5 c 128,-1,16
 237 209 237 209 187 230 c 0,17,18
 138 250 138 250 106.5 272.5 c 128,-1,19
 75 295 75 295 59.5 325.5 c 128,-1,20
 44 356 44 356 44 402 c 0,21,22
 44 480 44 480 104 519.5 c 128,-1,23
 164 559 164 559 265 559 c 0,24,25
 318 559 318 559 365 548 c 128,-1,26
 412 537 412 537 462 514 c 1,27,-1
 414 400 l 1,28,29
 374 418 374 418 335 429 c 128,-1,30
 296 440 296 440 265 440 c 0,31,32
 207 440 207 440 207 410 c 0,33,34
 207 398 207 398 215.5 389.5 c 128,-1,35
 224 381 224 381 248.5 369.5 c 128,-1,36
 273 358 273 358 320 338 c 0,37,38
 367 319 367 319 400 298 c 128,-1,39
 433 277 433 277 450 245.5 c 128,-1,40
 467 214 467 214 467 166 c 0,0,1
EndSplineSet
Substitution2: "'smcp' Lowercase to Small Capitals lookup 34 subtable" s.sc
Substitution2: "'subs' Subscript lookup 18 subtable" uni209B
EndChar

StartChar: t
Encoding: 116 116 87
Width: 446
GlyphClass: 2
Flags: W
AnchorPoint: "Anchor-3" 408 663 basechar 0
AnchorPoint: "Anchor-2" 208 663 basechar 0
AnchorPoint: "Anchor-1" 223 275 basechar 0
AnchorPoint: "Anchor-0" 252 0 basechar 0
LayerCount: 2
Fore
SplineSet
321 124 m 0,0,1
 346 124 346 124 368.5 129 c 128,-1,2
 391 134 391 134 414 142 c 1,3,-1
 414 18 l 1,4,5
 387 6 387 6 352 -2 c 128,-1,6
 317 -10 317 -10 269 -10 c 0,7,8
 218 -10 218 -10 178.5 6.5 c 128,-1,9
 139 23 139 23 116.5 63.5 c 128,-1,10
 94 104 94 104 94 176 c 2,11,-1
 94 423 l 1,12,-1
 24 423 l 1,13,-1
 24 493 l 1,14,-1
 108 547 l 1,15,-1
 154 663 l 1,16,-1
 262 663 l 1,17,-1
 262 549 l 1,18,-1
 408 549 l 1,19,-1
 408 423 l 1,20,-1
 262 423 l 1,21,-1
 262 182 l 2,22,23
 262 153 262 153 278 138.5 c 128,-1,24
 294 124 294 124 321 124 c 0,0,1
EndSplineSet
Substitution2: "'smcp' Lowercase to Small Capitals lookup 34 subtable" t.sc
Substitution2: "'subs' Subscript lookup 18 subtable" uni209C
EndChar

StartChar: u
Encoding: 117 117 88
Width: 663
GlyphClass: 2
Flags: W
AnchorPoint: "Anchor-3" 619 549 basechar 0
AnchorPoint: "Anchor-2" 332 549 basechar 0
AnchorPoint: "Anchor-0" 323 0 basechar 0
LayerCount: 2
Fore
SplineSet
591 549 m 1,0,-1
 591 0 l 1,1,-1
 463 0 l 1,2,-1
 441 70 l 1,3,-1
 431 70 l 1,4,5
 405 28 405 28 360 9 c 128,-1,6
 315 -10 315 -10 264 -10 c 0,7,8
 179 -10 179 -10 124.5 37.5 c 128,-1,9
 70 85 70 85 70 191 c 2,10,-1
 70 549 l 1,11,-1
 239 549 l 1,12,-1
 239 238 l 2,13,14
 239 182 239 182 257.5 153 c 128,-1,15
 276 124 276 124 317 124 c 0,16,17
 378 124 378 124 400 169 c 128,-1,18
 422 214 422 214 422 299 c 2,19,-1
 422 549 l 1,20,-1
 591 549 l 1,0,-1
EndSplineSet
Substitution2: "'smcp' Lowercase to Small Capitals lookup 34 subtable" u.sc
EndChar

StartChar: v
Encoding: 118 118 89
Width: 588
GlyphClass: 2
Flags: W
AnchorPoint: "Anchor-3" 568 549 basechar 0
AnchorPoint: "Anchor-2" 292 549 basechar 0
AnchorPoint: "Anchor-0" 295 0 basechar 0
LayerCount: 2
Fore
SplineSet
209 0 m 1,0,-1
 0 549 l 1,1,-1
 176 549 l 1,2,-1
 276 231 l 2,3,4
 281 214 281 214 285.5 189.5 c 128,-1,5
 290 165 290 165 291 145 c 1,6,-1
 295 145 l 1,7,8
 296 166 296 166 300.5 188.5 c 128,-1,9
 305 211 305 211 311 230 c 2,10,-1
 413 549 l 1,11,-1
 588 549 l 1,12,-1
 379 0 l 1,13,-1
 209 0 l 1,0,-1
EndSplineSet
Substitution2: "'smcp' Lowercase to Small Capitals lookup 34 subtable" v.sc
EndChar

StartChar: w
Encoding: 119 119 90
Width: 881
GlyphClass: 2
Flags: W
AnchorPoint: "Anchor-3" 861 549 basechar 0
AnchorPoint: "Anchor-2" 440 549 basechar 0
AnchorPoint: "Anchor-0" 440 0 basechar 0
LayerCount: 2
Fore
SplineSet
534 0 m 1,0,-1
 485 215 l 2,1,2
 481 233 481 233 474.5 261.5 c 128,-1,3
 468 290 468 290 461.5 322 c 128,-1,4
 455 354 455 354 449.5 380.5 c 128,-1,5
 444 407 444 407 441 420 c 1,6,-1
 437 420 l 1,7,8
 435 407 435 407 429.5 380 c 128,-1,9
 424 353 424 353 417 321 c 128,-1,10
 410 289 410 289 403.5 259.5 c 128,-1,11
 397 230 397 230 393 210 c 2,12,-1
 343 0 l 1,13,-1
 164 0 l 1,14,-1
 11 549 l 1,15,-1
 177 549 l 1,16,-1
 232 321 l 2,17,18
 238 296 238 296 243.5 262.5 c 128,-1,19
 249 229 249 229 253.5 196.5 c 128,-1,20
 258 164 258 164 260 141 c 1,21,-1
 263 141 l 1,22,23
 264 158 264 158 267.5 182.5 c 128,-1,24
 271 207 271 207 275.5 232.5 c 128,-1,25
 280 258 280 258 284 278 c 128,-1,26
 288 298 288 298 289 305 c 2,27,-1
 349 549 l 1,28,-1
 535 549 l 1,29,-1
 591 304 l 2,30,31
 594 288 594 288 600 257.5 c 128,-1,32
 606 227 606 227 611 195 c 128,-1,33
 616 163 616 163 617 141 c 1,34,-1
 620 141 l 1,35,36
 622 162 622 162 626.5 195.5 c 128,-1,37
 631 229 631 229 637 263.5 c 128,-1,38
 643 298 643 298 649 321 c 2,39,-1
 706 549 l 1,40,-1
 870 549 l 1,41,-1
 715 0 l 1,42,-1
 534 0 l 1,0,-1
EndSplineSet
Substitution2: "'smcp' Lowercase to Small Capitals lookup 34 subtable" w.sc
EndChar

StartChar: x
Encoding: 120 120 91
Width: 602
GlyphClass: 2
Flags: W
AnchorPoint: "Anchor-3" 582 549 basechar 0
AnchorPoint: "Anchor-2" 300 549 basechar 0
AnchorPoint: "Anchor-0" 301 0 basechar 0
LayerCount: 2
Fore
SplineSet
187 280 m 1,0,-1
 14 549 l 1,1,-1
 205 549 l 1,2,-1
 301 384 l 1,3,-1
 398 549 l 1,4,-1
 589 549 l 1,5,-1
 414 280 l 1,6,-1
 597 0 l 1,7,-1
 406 0 l 1,8,-1
 301 178 l 1,9,-1
 196 0 l 1,10,-1
 5 0 l 1,11,-1
 187 280 l 1,0,-1
EndSplineSet
Substitution2: "'smcp' Lowercase to Small Capitals lookup 34 subtable" x.sc
EndChar

StartChar: y
Encoding: 121 121 92
Width: 588
GlyphClass: 2
Flags: W
AnchorPoint: "Anchor-3" 568 549 basechar 0
AnchorPoint: "Anchor-2" 294 549 basechar 0
AnchorPoint: "Anchor-0" 128 -240 basechar 0
LayerCount: 2
Fore
SplineSet
0 549 m 1,0,-1
 180 549 l 1,1,-1
 279 238 l 2,2,3
 290 202 290 202 293 159 c 1,4,-1
 296 159 l 1,5,6
 299 182 299 182 303.5 201 c 128,-1,7
 308 220 308 220 313 237 c 2,8,-1
 412 549 l 1,9,-1
 588 549 l 1,10,-1
 362 -54 l 2,11,12
 328 -146 328 -146 269 -193 c 128,-1,13
 210 -240 210 -240 118 -240 c 0,14,15
 92 -240 92 -240 73.5 -237.5 c 128,-1,16
 55 -235 55 -235 41 -232 c 1,17,-1
 41 -99 l 1,18,19
 52 -101 52 -101 67.5 -103 c 128,-1,20
 83 -105 83 -105 100 -105 c 0,21,22
 147 -105 147 -105 172.5 -77 c 128,-1,23
 198 -49 198 -49 211 -11 c 2,24,-1
 217 6 l 1,25,-1
 0 549 l 1,0,-1
EndSplineSet
Substitution2: "'smcp' Lowercase to Small Capitals lookup 34 subtable" y.sc
EndChar

StartChar: z
Encoding: 122 122 93
Width: 497
GlyphClass: 2
Flags: W
AnchorPoint: "Anchor-3" 467 549 basechar 0
AnchorPoint: "Anchor-2" 249 549 basechar 0
AnchorPoint: "Anchor-0" 251 0 basechar 0
LayerCount: 2
Fore
SplineSet
469 0 m 1,0,-1
 26 0 l 1,1,-1
 26 98 l 1,2,-1
 268 420 l 1,3,-1
 40 420 l 1,4,-1
 40 549 l 1,5,-1
 459 549 l 1,6,-1
 459 443 l 1,7,-1
 226 129 l 1,8,-1
 469 129 l 1,9,-1
 469 0 l 1,0,-1
EndSplineSet
Substitution2: "'smcp' Lowercase to Small Capitals lookup 34 subtable" z.sc
EndChar

StartChar: braceleft
Encoding: 123 123 94
Width: 412
Flags: W
LayerCount: 2
Fore
SplineSet
376 -163 m 1,0,1
 282 -163 282 -163 232.5 -147.5 c 128,-1,2
 183 -132 183 -132 164 -98.5 c 128,-1,3
 145 -65 145 -65 145 -12 c 2,4,-1
 145 127 l 2,5,6
 145 174 145 174 110 193 c 128,-1,7
 75 212 75 212 22 212 c 1,8,-1
 22 343 l 1,9,10
 76 343 76 343 110.5 362.5 c 128,-1,11
 145 382 145 382 145 428 c 2,12,-1
 145 569 l 2,13,14
 145 621 145 621 163.5 654 c 128,-1,15
 182 687 182 687 232 703 c 128,-1,16
 282 719 282 719 376 719 c 1,17,-1
 376 597 l 1,18,19
 352 596 352 596 332 592 c 128,-1,20
 312 588 312 588 299.5 575 c 128,-1,21
 287 562 287 562 287 535 c 2,22,-1
 287 396 l 2,23,24
 287 344 287 344 257.5 316.5 c 128,-1,25
 228 289 228 289 172 281 c 1,26,-1
 172 275 l 1,27,28
 228 267 228 267 257.5 239.5 c 128,-1,29
 287 212 287 212 287 161 c 2,30,-1
 287 21 l 2,31,32
 287 -6 287 -6 299.5 -19 c 128,-1,33
 312 -32 312 -32 332.5 -36 c 128,-1,34
 353 -40 353 -40 376 -41 c 1,35,-1
 376 -163 l 1,0,1
EndSplineSet
Substitution2: "'smcp' Lowercase to Small Capitals lookup 34 subtable" braceleft.sc
Substitution2: "'c2sc' Capitals to Small Capitals lookup 33 subtable" braceleft.sc
EndChar

StartChar: bar
Encoding: 124 124 95
Width: 532
Flags: W
LayerCount: 2
Fore
SplineSet
207 758 m 1,0,-1
 325 758 l 1,1,-1
 325 -223 l 1,2,-1
 207 -223 l 1,3,-1
 207 758 l 1,0,-1
EndSplineSet
EndChar

StartChar: braceright
Encoding: 125 125 96
Width: 412
Flags: W
LayerCount: 2
Fore
SplineSet
36 -163 m 1,0,-1
 36 -41 l 1,1,2
 59 -40 59 -40 79.5 -36 c 128,-1,3
 100 -32 100 -32 112.5 -19 c 128,-1,4
 125 -6 125 -6 125 21 c 2,5,-1
 125 161 l 2,6,7
 125 212 125 212 154.5 239.5 c 128,-1,8
 184 267 184 267 240 275 c 1,9,-1
 240 281 l 1,10,11
 184 289 184 289 154.5 316.5 c 128,-1,12
 125 344 125 344 125 396 c 2,13,-1
 125 535 l 2,14,15
 125 562 125 562 112.5 575 c 128,-1,16
 100 588 100 588 80 592 c 128,-1,17
 60 596 60 596 36 597 c 1,18,-1
 36 719 l 1,19,20
 130 719 130 719 180 703 c 128,-1,21
 230 687 230 687 248.5 654 c 128,-1,22
 267 621 267 621 267 569 c 2,23,-1
 267 428 l 2,24,25
 267 382 267 382 301.5 362.5 c 128,-1,26
 336 343 336 343 390 343 c 1,27,-1
 390 212 l 1,28,29
 337 212 337 212 302 193 c 128,-1,30
 267 174 267 174 267 127 c 2,31,-1
 267 -12 l 2,32,33
 267 -65 267 -65 248 -98.5 c 128,-1,34
 229 -132 229 -132 179.5 -147.5 c 128,-1,35
 130 -163 130 -163 36 -163 c 1,0,-1
EndSplineSet
Substitution2: "'smcp' Lowercase to Small Capitals lookup 34 subtable" braceright.sc
Substitution2: "'c2sc' Capitals to Small Capitals lookup 33 subtable" braceright.sc
EndChar

StartChar: asciitilde
Encoding: 126 126 97
Width: 578
Flags: W
LayerCount: 2
Fore
SplineSet
271 295 m 0,0,1
 234 311 234 311 207 316.5 c 128,-1,2
 180 322 180 322 158 322 c 0,3,4
 129 322 129 322 99 305 c 128,-1,5
 69 288 69 288 44 263 c 1,6,-1
 44 388 l 1,7,8
 94 441 94 441 171 441 c 0,9,10
 200 441 200 441 229.5 435.5 c 128,-1,11
 259 430 259 430 307 410 c 0,12,13
 344 394 344 394 371 388.5 c 128,-1,14
 398 383 398 383 420 383 c 0,15,16
 448 383 448 383 478 400 c 128,-1,17
 508 417 508 417 534 442 c 1,18,-1
 534 317 l 1,19,20
 483 264 483 264 407 264 c 0,21,22
 378 264 378 264 348.5 270 c 128,-1,23
 319 276 319 276 271 295 c 0,0,1
EndSplineSet
EndChar

StartChar: exclamdown
Encoding: 161 161 99
Width: 288
Flags: W
LayerCount: 2
Fore
SplineSet
238 466 m 0,0,1
 238 418 238 418 210.5 398 c 128,-1,2
 183 378 183 378 144 378 c 0,3,4
 106 378 106 378 78.5 398 c 128,-1,5
 51 418 51 418 51 466 c 0,6,7
 51 512 51 512 78.5 533 c 128,-1,8
 106 554 106 554 144 554 c 0,9,10
 183 554 183 554 210.5 533 c 128,-1,11
 238 512 238 512 238 466 c 0,0,1
74 297 m 1,12,-1
 213 297 l 1,13,-1
 238 -172 l 1,14,-1
 49 -172 l 1,15,-1
 74 297 l 1,12,-1
EndSplineSet
Substitution2: "'smcp' Lowercase to Small Capitals lookup 34 subtable" exclamdown.sc
Substitution2: "'c2sc' Capitals to Small Capitals lookup 33 subtable" exclamdown.sc
EndChar

StartChar: cent
Encoding: 162 162 100
Width: 578
Flags: W
LayerCount: 2
Fore
SplineSet
369 724 m 1,0,-1
 369 648 l 1,1,2
 415 646 415 646 452 635.5 c 128,-1,3
 489 625 489 625 520 610 c 1,4,-1
 471 483 l 1,5,6
 436 497 436 497 406 506 c 128,-1,7
 376 515 376 515 345 515 c 0,8,9
 294 515 294 515 266 477.5 c 128,-1,10
 238 440 238 440 238 363 c 256,11,12
 238 286 238 286 267 250.5 c 128,-1,13
 296 215 296 215 346 215 c 0,14,15
 390 215 390 215 427.5 226.5 c 128,-1,16
 465 238 465 238 503 258 c 1,17,-1
 503 121 l 1,18,19
 472 104 472 104 440 94 c 128,-1,20
 408 84 408 84 369 80 c 1,21,-1
 369 -10 l 1,22,-1
 275 -10 l 1,23,-1
 275 84 l 1,24,25
 178 98 178 98 122.5 165 c 128,-1,26
 67 232 67 232 67 362 c 0,27,28
 67 451 67 451 93 509.5 c 128,-1,29
 119 568 119 568 166 600 c 128,-1,30
 213 632 213 632 275 643 c 1,31,-1
 275 724 l 1,32,-1
 369 724 l 1,0,-1
EndSplineSet
EndChar

StartChar: sterling
Encoding: 163 163 101
Width: 578
Flags: W
LayerCount: 2
Fore
SplineSet
347 724 m 0,0,1
 401 724 401 724 450.5 712.5 c 128,-1,2
 500 701 500 701 541 684 c 1,3,-1
 492 559 l 1,4,5
 419 588 419 588 363 588 c 0,6,7
 335 588 335 588 315 572 c 128,-1,8
 295 556 295 556 295 512 c 2,9,-1
 295 437 l 1,10,-1
 471 437 l 1,11,-1
 471 318 l 1,12,-1
 295 318 l 1,13,-1
 295 258 l 2,14,15
 295 207 295 207 270 181 c 128,-1,16
 245 155 245 155 219 142 c 1,17,-1
 560 142 l 1,18,-1
 560 0 l 1,19,-1
 45 0 l 1,20,-1
 45 136 l 1,21,22
 72 150 72 150 90.5 164 c 128,-1,23
 109 178 109 178 119 199.5 c 128,-1,24
 129 221 129 221 129 257 c 2,25,-1
 129 318 l 1,26,-1
 45 318 l 1,27,-1
 45 437 l 1,28,-1
 129 437 l 1,29,-1
 129 515 l 2,30,31
 129 590 129 590 157.5 636 c 128,-1,32
 186 682 186 682 235.5 703 c 128,-1,33
 285 724 285 724 347 724 c 0,0,1
EndSplineSet
EndChar

StartChar: currency
Encoding: 164 164 102
Width: 569
Flags: W
LayerCount: 2
Fore
SplineSet
90 353 m 0,0,1
 90 378 90 378 96 401 c 128,-1,2
 102 424 102 424 113 444 c 1,3,-1
 51 505 l 1,4,-1
 131 584 l 1,5,-1
 192 523 l 1,6,7
 212 534 212 534 236 540.5 c 128,-1,8
 260 547 260 547 282 547 c 0,9,10
 307 547 307 547 329.5 540.5 c 128,-1,11
 352 534 352 534 374 522 c 1,12,-1
 434 584 l 1,13,-1
 515 507 l 1,14,-1
 453 445 l 1,15,16
 464 426 464 426 470 402 c 128,-1,17
 476 378 476 378 476 353 c 0,18,19
 476 304 476 304 453 261 c 1,20,-1
 513 201 l 1,21,-1
 434 123 l 1,22,-1
 374 183 l 1,23,24
 354 173 354 173 330.5 166.5 c 128,-1,25
 307 160 307 160 282 160 c 256,26,27
 257 160 257 160 233.5 165.5 c 128,-1,28
 210 171 210 171 190 182 c 1,29,-1
 131 124 l 1,30,-1
 52 202 l 1,31,-1
 113 262 l 1,32,33
 90 305 90 305 90 353 c 0,0,1
202 353 m 0,34,35
 202 319 202 319 225.5 296 c 128,-1,36
 249 273 249 273 282 273 c 0,37,38
 316 273 316 273 340.5 296 c 128,-1,39
 365 319 365 319 365 353 c 0,40,41
 365 388 365 388 340.5 411 c 128,-1,42
 316 434 316 434 282 434 c 0,43,44
 249 434 249 434 225.5 411 c 128,-1,45
 202 388 202 388 202 353 c 0,34,35
EndSplineSet
EndChar

StartChar: yen
Encoding: 165 165 103
Width: 578
Flags: W
LayerCount: 2
Fore
SplineSet
289 442 m 1,0,-1
 402 714 l 1,1,-1
 574 714 l 1,2,-1
 392 357 l 1,3,-1
 487 357 l 1,4,-1
 487 262 l 1,5,-1
 367 262 l 1,6,-1
 367 200 l 1,7,-1
 487 200 l 1,8,-1
 487 106 l 1,9,-1
 367 106 l 1,10,-1
 367 0 l 1,11,-1
 210 0 l 1,12,-1
 210 106 l 1,13,-1
 89 106 l 1,14,-1
 89 200 l 1,15,-1
 210 200 l 1,16,-1
 210 262 l 1,17,-1
 89 262 l 1,18,-1
 89 357 l 1,19,-1
 182 357 l 1,20,-1
 3 714 l 1,21,-1
 176 714 l 1,22,-1
 289 442 l 1,0,-1
EndSplineSet
EndChar

StartChar: brokenbar
Encoding: 166 166 104
Width: 532
Flags: W
LayerCount: 2
Fore
SplineSet
207 758 m 1,0,-1
 325 758 l 1,1,-1
 325 355 l 1,2,-1
 207 355 l 1,3,-1
 207 758 l 1,0,-1
207 181 m 1,4,-1
 325 181 l 1,5,-1
 325 -223 l 1,6,-1
 207 -223 l 1,7,-1
 207 181 l 1,4,-1
EndSplineSet
EndChar

StartChar: section
Encoding: 167 167 105
Width: 492
Flags: W
LayerCount: 2
Fore
SplineSet
56 391 m 0,0,1
 56 432 56 432 78 461.5 c 128,-1,2
 100 491 100 491 128 509 c 1,3,4
 96 531 96 531 78.5 559.5 c 128,-1,5
 61 588 61 588 61 625 c 0,6,7
 61 688 61 688 114 727.5 c 128,-1,8
 167 767 167 767 259 767 c 0,9,10
 308 767 308 767 353 755.5 c 128,-1,11
 398 744 398 744 438 726 c 1,12,-1
 394 626 l 1,13,14
 361 642 361 642 326.5 654.5 c 128,-1,15
 292 667 292 667 257 667 c 0,16,17
 191 667 191 667 191 627 c 0,18,19
 191 606 191 606 212.5 588.5 c 128,-1,20
 234 571 234 571 287 549 c 0,21,22
 364 518 364 518 404 479 c 128,-1,23
 444 440 444 440 444 386 c 0,24,25
 444 336 444 336 424.5 307.5 c 128,-1,26
 405 279 405 279 378 260 c 1,27,28
 406 240 406 240 422.5 212.5 c 128,-1,29
 439 185 439 185 439 148 c 0,30,31
 439 78 439 78 383 33.5 c 128,-1,32
 327 -11 327 -11 225 -11 c 0,33,34
 173 -11 173 -11 131 -0.5 c 128,-1,35
 89 10 89 10 54 29 c 1,36,-1
 54 139 l 1,37,38
 94 117 94 117 142 102.5 c 128,-1,39
 190 88 190 88 226 88 c 0,40,41
 273 88 273 88 290.5 103 c 128,-1,42
 308 118 308 118 308 141 c 0,43,44
 308 156 308 156 301 167.5 c 128,-1,45
 294 179 294 179 274.5 191.5 c 128,-1,46
 255 204 255 204 216 220 c 0,47,48
 166 241 166 241 130.5 263.5 c 128,-1,49
 95 286 95 286 75.5 316 c 128,-1,50
 56 346 56 346 56 391 c 0,0,1
180 404 m 0,51,52
 180 377 180 377 204 355.5 c 128,-1,53
 228 334 228 334 280 311 c 1,54,-1
 289 306 l 1,55,56
 300 315 300 315 309.5 330 c 128,-1,57
 319 345 319 345 319 368 c 0,58,59
 319 396 319 396 298 418 c 128,-1,60
 277 440 277 440 217 463 c 1,61,62
 203 457 203 457 191.5 441.5 c 128,-1,63
 180 426 180 426 180 404 c 0,51,52
EndSplineSet
EndChar

StartChar: dieresis
Encoding: 168 168 106
Width: 605
Flags: W
LayerCount: 2
Fore
SplineSet
124 688 m 0,0,1
 124 725 124 725 145 742 c 128,-1,2
 166 759 166 759 198 759 c 0,3,4
 229 759 229 759 251.5 742 c 128,-1,5
 274 725 274 725 274 688 c 0,6,7
 274 652 274 652 251.5 635 c 128,-1,8
 229 618 229 618 198 618 c 0,9,10
 166 618 166 618 145 635 c 128,-1,11
 124 652 124 652 124 688 c 0,0,1
338 688 m 0,12,13
 338 725 338 725 359.5 742 c 128,-1,14
 381 759 381 759 414 759 c 0,15,16
 444 759 444 759 466.5 742 c 128,-1,17
 489 725 489 725 489 688 c 0,18,19
 489 652 489 652 466.5 635 c 128,-1,20
 444 618 444 618 414 618 c 0,21,22
 381 618 381 618 359.5 635 c 128,-1,23
 338 652 338 652 338 688 c 0,12,13
EndSplineSet
EndChar

StartChar: copyright
Encoding: 169 169 107
Width: 828
Flags: W
LayerCount: 2
Fore
SplineSet
414 -10 m 256,0,1
 334 -10 334 -10 267 17 c 128,-1,2
 200 44 200 44 150.5 93.5 c 128,-1,3
 101 143 101 143 74 210 c 128,-1,4
 47 277 47 277 47 357 c 0,5,6
 47 435 47 435 74.5 502 c 128,-1,7
 102 569 102 569 151.5 618.5 c 128,-1,8
 201 668 201 668 268 696 c 128,-1,9
 335 724 335 724 414 724 c 0,10,11
 492 724 492 724 559 697 c 128,-1,12
 626 670 626 670 675.5 620.5 c 128,-1,13
 725 571 725 571 753 504 c 128,-1,14
 781 437 781 437 781 357 c 256,15,16
 781 277 781 277 754 210 c 128,-1,17
 727 143 727 143 677.5 93.5 c 128,-1,18
 628 44 628 44 561 17 c 128,-1,19
 494 -10 494 -10 414 -10 c 256,0,1
414 61 m 0,20,21
 496 61 496 61 561 99 c 128,-1,22
 626 137 626 137 664 203.5 c 128,-1,23
 702 270 702 270 702 357 c 0,24,25
 702 441 702 441 664.5 508 c 128,-1,26
 627 575 627 575 562 614 c 128,-1,27
 497 653 497 653 414 653 c 0,28,29
 330 653 330 653 264.5 615 c 128,-1,30
 199 577 199 577 161.5 510.5 c 128,-1,31
 124 444 124 444 124 357 c 256,32,33
 124 270 124 270 161 203.5 c 128,-1,34
 198 137 198 137 263.5 99 c 128,-1,35
 329 61 329 61 414 61 c 0,20,21
423 128 m 0,36,37
 318 128 318 128 265.5 191 c 128,-1,38
 213 254 213 254 213 358 c 0,39,40
 213 425 213 425 236.5 476.5 c 128,-1,41
 260 528 260 528 307 557 c 128,-1,42
 354 586 354 586 423 586 c 0,43,44
 460 586 460 586 495 577 c 128,-1,45
 530 568 530 568 561 552 c 1,46,-1
 525 470 l 1,47,48
 500 483 500 483 476 489.5 c 128,-1,49
 452 496 452 496 427 496 c 0,50,51
 378 496 378 496 350 459.5 c 128,-1,52
 322 423 322 423 322 357 c 0,53,54
 322 287 322 287 347 252 c 128,-1,55
 372 217 372 217 428 217 c 0,56,57
 455 217 455 217 485.5 224.5 c 128,-1,58
 516 232 516 232 543 245 c 1,59,-1
 543 155 l 1,60,61
 516 142 516 142 488 135 c 128,-1,62
 460 128 460 128 423 128 c 0,36,37
EndSplineSet
EndChar

StartChar: ordfeminine
Encoding: 170 170 108
Width: 389
Flags: W
LayerCount: 2
Fore
SplineSet
206 722 m 0,0,1
 274 722 274 722 311 686 c 128,-1,2
 348 650 348 650 348 585 c 2,3,-1
 348 368 l 1,4,-1
 276 368 l 1,5,-1
 258 426 l 1,6,7
 237 394 237 394 208.5 378 c 128,-1,8
 180 362 180 362 140 362 c 0,9,10
 89 362 89 362 56 389.5 c 128,-1,11
 23 417 23 417 23 474 c 0,12,13
 23 535 23 535 67.5 559 c 128,-1,14
 112 583 112 583 193 587 c 2,15,-1
 239 589 l 1,16,-1
 239 595 l 2,17,18
 239 638 239 638 182 638 c 0,19,20
 158 638 158 638 133 631 c 128,-1,21
 108 624 108 624 78 610 c 1,22,-1
 43 682 l 1,23,24
 78 699 78 699 115.5 710.5 c 128,-1,25
 153 722 153 722 206 722 c 0,0,1
239 527 m 1,26,-1
 194 524 l 2,27,28
 156 521 156 521 145 507.5 c 128,-1,29
 134 494 134 494 134 477 c 256,30,31
 134 460 134 460 144 451.5 c 128,-1,32
 154 443 154 443 170 443 c 0,33,34
 203 443 203 443 221 463.5 c 128,-1,35
 239 484 239 484 239 512 c 2,36,-1
 239 527 l 1,26,-1
EndSplineSet
EndChar

StartChar: guillemotleft
Encoding: 171 171 109
Width: 645
Flags: W
LayerCount: 2
Fore
SplineSet
38 283 m 1,0,-1
 223 512 l 1,1,-1
 344 447 l 1,2,-1
 210 277 l 1,3,-1
 344 107 l 1,4,-1
 223 43 l 1,5,-1
 38 270 l 1,6,-1
 38 283 l 1,0,-1
301 283 m 1,7,-1
 486 512 l 1,8,-1
 607 447 l 1,9,-1
 472 277 l 1,10,-1
 607 107 l 1,11,-1
 486 43 l 1,12,-1
 301 270 l 1,13,-1
 301 283 l 1,7,-1
EndSplineSet
EndChar

StartChar: logicalnot
Encoding: 172 172 110
Width: 578
Flags: W
LayerCount: 2
Fore
SplineSet
534 412 m 1,0,-1
 534 119 l 1,1,-1
 415 119 l 1,2,-1
 415 293 l 1,3,-1
 44 293 l 1,4,-1
 44 412 l 1,5,-1
 534 412 l 1,0,-1
EndSplineSet
EndChar

StartChar: registered
Encoding: 174 174 112
Width: 828
Flags: W
LayerCount: 2
Fore
SplineSet
414 -10 m 256,0,1
 334 -10 334 -10 267 17 c 128,-1,2
 200 44 200 44 150.5 93.5 c 128,-1,3
 101 143 101 143 74 210 c 128,-1,4
 47 277 47 277 47 357 c 0,5,6
 47 435 47 435 74.5 502 c 128,-1,7
 102 569 102 569 151.5 618.5 c 128,-1,8
 201 668 201 668 268 696 c 128,-1,9
 335 724 335 724 414 724 c 0,10,11
 492 724 492 724 559 697 c 128,-1,12
 626 670 626 670 675.5 620.5 c 128,-1,13
 725 571 725 571 753 504 c 128,-1,14
 781 437 781 437 781 357 c 256,15,16
 781 277 781 277 754 210 c 128,-1,17
 727 143 727 143 677.5 93.5 c 128,-1,18
 628 44 628 44 561 17 c 128,-1,19
 494 -10 494 -10 414 -10 c 256,0,1
414 61 m 0,20,21
 496 61 496 61 561 99 c 128,-1,22
 626 137 626 137 664 203.5 c 128,-1,23
 702 270 702 270 702 357 c 0,24,25
 702 441 702 441 664.5 508 c 128,-1,26
 627 575 627 575 562 614 c 128,-1,27
 497 653 497 653 414 653 c 0,28,29
 330 653 330 653 264.5 615 c 128,-1,30
 199 577 199 577 161.5 510.5 c 128,-1,31
 124 444 124 444 124 357 c 256,32,33
 124 270 124 270 161 203.5 c 128,-1,34
 198 137 198 137 263.5 99 c 128,-1,35
 329 61 329 61 414 61 c 0,20,21
264 145 m 1,36,-1
 264 580 l 1,37,-1
 399 580 l 2,38,39
 491 580 491 580 532 545.5 c 128,-1,40
 573 511 573 511 573 447 c 0,41,42
 573 398 573 398 551 371 c 128,-1,43
 529 344 529 344 499 331 c 1,44,-1
 605 145 l 1,45,-1
 494 145 l 1,46,-1
 410 307 l 1,47,-1
 368 307 l 1,48,-1
 368 145 l 1,49,-1
 264 145 l 1,36,-1
368 383 m 1,50,-1
 398 383 l 2,51,52
 468 383 468 383 468 444 c 0,53,54
 468 475 468 475 451 487 c 128,-1,55
 434 499 434 499 398 499 c 2,56,-1
 368 499 l 1,57,-1
 368 383 l 1,50,-1
EndSplineSet
EndChar

StartChar: overscore
Encoding: 175 175 113
Width: 500
Flags: W
LayerCount: 2
Fore
SplineSet
503 760 m 1,0,-1
 -3 760 l 1,1,-1
 -3 868 l 1,2,-1
 503 868 l 1,3,-1
 503 760 l 1,0,-1
EndSplineSet
Substitution2: "'smcp' Lowercase to Small Capitals lookup 34 subtable" overscore.sc
Substitution2: "'c2sc' Capitals to Small Capitals lookup 33 subtable" overscore.sc
EndChar

StartChar: degree
Encoding: 176 176 114
Width: 425
Flags: W
LayerCount: 2
Fore
SplineSet
213 377 m 256,0,1
 161 377 161 377 121 399 c 128,-1,2
 81 421 81 421 58 460 c 128,-1,3
 35 499 35 499 35 550 c 0,4,5
 35 600 35 600 58 639.5 c 128,-1,6
 81 679 81 679 121 701.5 c 128,-1,7
 161 724 161 724 213 724 c 256,8,9
 265 724 265 724 304.5 701.5 c 128,-1,10
 344 679 344 679 366.5 639.5 c 128,-1,11
 389 600 389 600 389 550 c 0,12,13
 389 499 389 499 366.5 460 c 128,-1,14
 344 421 344 421 304.5 399 c 128,-1,15
 265 377 265 377 213 377 c 256,0,1
213 481 m 0,16,17
 243 481 243 481 263 499.5 c 128,-1,18
 283 518 283 518 283 550 c 0,19,20
 283 583 283 583 263 602 c 128,-1,21
 243 621 243 621 213 621 c 0,22,23
 182 621 182 621 162 602 c 128,-1,24
 142 583 142 583 142 550 c 0,25,26
 142 518 142 518 162 499.5 c 128,-1,27
 182 481 182 481 213 481 c 0,16,17
EndSplineSet
EndChar

StartChar: plusminus
Encoding: 177 177 115
Width: 578
Flags: W
LayerCount: 2
Fore
SplineSet
348 448 m 1,0,-1
 534 448 l 1,1,-1
 534 329 l 1,2,-1
 348 329 l 1,3,-1
 348 147 l 1,4,-1
 230 147 l 1,5,-1
 230 329 l 1,6,-1
 44 329 l 1,7,-1
 44 448 l 1,8,-1
 230 448 l 1,9,-1
 230 632 l 1,10,-1
 348 632 l 1,11,-1
 348 448 l 1,0,-1
44 0 m 1,12,-1
 44 118 l 1,13,-1
 534 118 l 1,14,-1
 534 0 l 1,15,-1
 44 0 l 1,12,-1
EndSplineSet
EndChar

StartChar: uni00B2
Encoding: 178 178 116
Width: 388
Flags: W
LayerCount: 2
Fore
SplineSet
354 416 m 1,0,-1
 32 416 l 1,1,-1
 32 507 l 1,2,-1
 139 612 l 2,3,4
 182 655 182 655 198 678 c 128,-1,5
 214 701 214 701 214 722 c 0,6,7
 214 756 214 756 177 756 c 0,8,9
 158 756 158 756 137.5 746.5 c 128,-1,10
 117 737 117 737 90 713 c 1,11,-1
 26 790 l 1,12,13
 58 818 58 818 99 836 c 128,-1,14
 140 854 140 854 198 854 c 0,15,16
 266 854 266 854 304.5 822.5 c 128,-1,17
 343 791 343 791 343 735 c 0,18,19
 343 684 343 684 311.5 644.5 c 128,-1,20
 280 605 280 605 225 557 c 2,21,-1
 183 520 l 1,22,-1
 354 520 l 1,23,-1
 354 416 l 1,0,-1
EndSplineSet
EndChar

StartChar: uni00B3
Encoding: 179 179 117
Width: 388
Flags: W
LayerCount: 2
Fore
SplineSet
190 853 m 0,0,1
 258 853 258 853 298 823.5 c 128,-1,2
 338 794 338 794 338 744 c 0,3,4
 338 708 338 708 319 682.5 c 128,-1,5
 300 657 300 657 257 642 c 1,6,-1
 257 637 l 1,7,8
 306 626 306 626 329 599 c 128,-1,9
 352 572 352 572 352 534 c 0,10,11
 352 474 352 474 306.5 441 c 128,-1,12
 261 408 261 408 173 408 c 0,13,14
 92 408 92 408 31 442 c 1,15,-1
 31 545 l 1,16,17
 96 503 96 503 169 503 c 0,18,19
 233 503 233 503 233 546 c 0,20,21
 233 563 233 563 219 576.5 c 128,-1,22
 205 590 205 590 159 590 c 2,23,-1
 106 590 l 1,24,-1
 106 676 l 1,25,-1
 148 676 l 2,26,27
 194 676 194 676 208.5 690 c 128,-1,28
 223 704 223 704 223 722 c 0,29,30
 223 738 223 738 212 749 c 128,-1,31
 201 760 201 760 176 760 c 0,32,33
 152 760 152 760 131 751 c 128,-1,34
 110 742 110 742 83 723 c 1,35,-1
 30 799 l 1,36,37
 60 822 60 822 99.5 837.5 c 128,-1,38
 139 853 139 853 190 853 c 0,0,1
EndSplineSet
EndChar

StartChar: acute
Encoding: 180 180 118
Width: 388
Flags: W
LayerCount: 2
Fore
SplineSet
348 766 m 1,0,-1
 348 756 l 1,1,2
 332 742 332 742 307 722 c 128,-1,3
 282 702 282 702 253.5 680 c 128,-1,4
 225 658 225 658 198.5 638.5 c 128,-1,5
 172 619 172 619 152 606 c 1,6,-1
 40 606 l 1,7,-1
 40 619 l 1,8,9
 56 638 56 638 79 663.5 c 128,-1,10
 102 689 102 689 124 716.5 c 128,-1,11
 146 744 146 744 161 766 c 1,12,-1
 348 766 l 1,0,-1
EndSplineSet
EndChar

StartChar: uni00B5
Encoding: 181 181 119
Width: 666
Flags: W
LayerCount: 2
Fore
SplineSet
593 549 m 1,0,-1
 593 0 l 1,1,-1
 466 0 l 1,2,-1
 443 73 l 1,3,-1
 435 73 l 1,4,5
 399 -10 399 -10 322 -10 c 0,6,7
 294 -10 294 -10 273.5 1 c 128,-1,8
 253 12 253 12 238 33 c 1,9,-1
 235 33 l 1,10,11
 237 14 237 14 239 -21.5 c 128,-1,12
 241 -57 241 -57 241 -84 c 2,13,-1
 241 -240 l 1,14,-1
 72 -240 l 1,15,-1
 72 549 l 1,16,-1
 241 549 l 1,17,-1
 241 239 l 2,18,19
 241 181 241 181 260 152.5 c 128,-1,20
 279 124 279 124 322 124 c 0,21,22
 380 124 380 124 402 169 c 128,-1,23
 424 214 424 214 424 299 c 2,24,-1
 424 549 l 1,25,-1
 593 549 l 1,0,-1
EndSplineSet
EndChar

StartChar: paragraph
Encoding: 182 182 120
Width: 649
Flags: W
LayerCount: 2
Fore
SplineSet
574 -127 m 1,0,-1
 489 -127 l 1,1,-1
 489 656 l 1,2,-1
 410 656 l 1,3,-1
 410 -127 l 1,4,-1
 324 -127 l 1,5,-1
 324 273 l 1,6,7
 309 268 309 268 294 266 c 128,-1,8
 279 264 279 264 258 264 c 0,9,10
 196 264 196 264 150 287 c 128,-1,11
 104 310 104 310 78.5 364 c 128,-1,12
 53 418 53 418 53 509 c 0,13,14
 53 604 53 604 80.5 659 c 128,-1,15
 108 714 108 714 158 737 c 128,-1,16
 208 760 208 760 273 760 c 2,17,-1
 574 760 l 1,18,-1
 574 -127 l 1,0,-1
EndSplineSet
EndChar

StartChar: cedilla
Encoding: 184 184 122
Width: 243
Flags: W
LayerCount: 2
Fore
SplineSet
232 -122 m 0,0,1
 232 -178 232 -178 197 -209 c 128,-1,2
 162 -240 162 -240 89 -240 c 0,3,4
 61 -240 61 -240 38.5 -236 c 128,-1,5
 16 -232 16 -232 0 -227 c 1,6,-1
 0 -139 l 1,7,8
 16 -144 16 -144 34 -147 c 128,-1,9
 52 -150 52 -150 68 -150 c 256,10,11
 84 -150 84 -150 94.5 -143 c 128,-1,12
 105 -136 105 -136 105 -121 c 0,13,14
 105 -103 105 -103 88 -91 c 128,-1,15
 71 -79 71 -79 29 -72 c 1,16,-1
 63 0 l 1,17,-1
 158 0 l 1,18,-1
 147 -30 l 1,19,20
 177 -38 177 -38 204.5 -59.5 c 128,-1,21
 232 -81 232 -81 232 -122 c 0,0,1
EndSplineSet
EndChar

StartChar: uni00B9
Encoding: 185 185 123
Width: 388
Flags: W
LayerCount: 2
Fore
SplineSet
292 844 m 1,0,-1
 292 416 l 1,1,-1
 166 416 l 1,2,-1
 166 614 l 2,3,4
 166 626 166 626 167 647.5 c 128,-1,5
 168 669 168 669 169 689.5 c 128,-1,6
 170 710 170 710 171 717 c 1,7,8
 166 709 166 709 155 698 c 128,-1,9
 144 687 144 687 137 680 c 2,10,-1
 98 649 l 1,11,-1
 37 720 l 1,12,-1
 193 844 l 1,13,-1
 292 844 l 1,0,-1
EndSplineSet
EndChar

StartChar: ordmasculine
Encoding: 186 186 124
Width: 390
Flags: W
LayerCount: 2
Fore
SplineSet
364 542 m 0,0,1
 364 456 364 456 318 409 c 128,-1,2
 272 362 272 362 194 362 c 0,3,4
 120 362 120 362 73 409.5 c 128,-1,5
 26 457 26 457 26 542 c 0,6,7
 26 628 26 628 71.5 675 c 128,-1,8
 117 722 117 722 196 722 c 0,9,10
 244 722 244 722 282 701 c 128,-1,11
 320 680 320 680 342 639.5 c 128,-1,12
 364 599 364 599 364 542 c 0,0,1
136 542 m 0,13,14
 136 451 136 451 195 451 c 0,15,16
 253 451 253 451 253 542 c 0,17,18
 253 634 253 634 195 634 c 0,19,20
 136 634 136 634 136 542 c 0,13,14
EndSplineSet
EndChar

StartChar: guillemotright
Encoding: 187 187 125
Width: 645
Flags: W
LayerCount: 2
Fore
SplineSet
607 270 m 1,0,-1
 423 43 l 1,1,-1
 301 107 l 1,2,-1
 436 277 l 1,3,-1
 301 447 l 1,4,-1
 423 512 l 1,5,-1
 607 283 l 1,6,-1
 607 270 l 1,0,-1
345 270 m 1,7,-1
 160 43 l 1,8,-1
 39 107 l 1,9,-1
 173 277 l 1,10,-1
 39 447 l 1,11,-1
 160 512 l 1,12,-1
 345 283 l 1,13,-1
 345 270 l 1,7,-1
EndSplineSet
EndChar

StartChar: onequarter
Encoding: 188 188 126
Width: 856
Flags: W
LayerCount: 2
Fore
SplineSet
164 0 m 1,0,-1
 547 714 l 1,1,-1
 678 714 l 1,2,-1
 295 0 l 1,3,-1
 164 0 l 1,0,-1
138 286 m 1,4,-1
 138 484 l 2,5,6
 138 495 138 495 138.5 514.5 c 128,-1,7
 139 534 139 534 140.5 554 c 128,-1,8
 142 574 142 574 143 587 c 1,9,10
 138 580 138 580 128.5 569.5 c 128,-1,11
 119 559 119 559 110 551 c 2,12,-1
 70 519 l 1,13,-1
 9 590 l 1,14,-1
 165 714 l 1,15,-1
 264 714 l 1,16,-1
 264 286 l 1,17,-1
 138 286 l 1,4,-1
662 0 m 1,18,-1
 662 71 l 1,19,-1
 478 71 l 1,20,-1
 478 154 l 1,21,-1
 658 431 l 1,22,-1
 786 431 l 1,23,-1
 786 161 l 1,24,-1
 847 161 l 1,25,-1
 847 71 l 1,26,-1
 786 71 l 1,27,-1
 786 0 l 1,28,-1
 662 0 l 1,18,-1
574 161 m 1,29,-1
 662 161 l 1,30,-1
 662 241 l 2,31,32
 662 280 662 280 665 320 c 1,33,34
 658 301 658 301 648 280.5 c 128,-1,35
 638 260 638 260 631 249 c 2,36,-1
 574 161 l 1,29,-1
EndSplineSet
EndChar

StartChar: onehalf
Encoding: 189 189 127
Width: 898
Flags: W
LayerCount: 2
Fore
SplineSet
170 0 m 1,0,-1
 553 714 l 1,1,-1
 684 714 l 1,2,-1
 301 0 l 1,3,-1
 170 0 l 1,0,-1
138 286 m 1,4,-1
 138 484 l 2,5,6
 138 494 138 494 139 516.5 c 128,-1,7
 140 539 140 539 141 560.5 c 128,-1,8
 142 582 142 582 143 587 c 1,9,10
 138 580 138 580 127.5 569 c 128,-1,11
 117 558 117 558 108 550 c 2,12,-1
 70 519 l 1,13,-1
 9 590 l 1,14,-1
 165 714 l 1,15,-1
 264 714 l 1,16,-1
 264 286 l 1,17,-1
 138 286 l 1,4,-1
541 0 m 1,18,-1
 541 91 l 1,19,-1
 649 196 l 2,20,21
 692 239 692 239 708 261.5 c 128,-1,22
 724 284 724 284 724 306 c 0,23,24
 724 340 724 340 686 340 c 0,25,26
 647 340 647 340 600 297 c 1,27,-1
 536 374 l 1,28,29
 571 406 571 406 612 422 c 128,-1,30
 653 438 653 438 708 438 c 0,31,32
 775 438 775 438 813.5 407 c 128,-1,33
 852 376 852 376 852 319 c 0,34,35
 852 276 852 276 830 242 c 128,-1,36
 808 208 808 208 765 168 c 2,37,-1
 693 104 l 1,38,-1
 863 104 l 1,39,-1
 863 0 l 1,40,-1
 541 0 l 1,18,-1
EndSplineSet
EndChar

StartChar: threequarters
Encoding: 190 190 128
Width: 881
Flags: W
LayerCount: 2
Fore
SplineSet
185 278 m 0,0,1
 106 278 106 278 44 312 c 1,2,-1
 44 415 l 1,3,4
 75 395 75 395 108.5 384 c 128,-1,5
 142 373 142 373 182 373 c 0,6,7
 246 373 246 373 246 416 c 0,8,9
 246 436 246 436 229.5 448 c 128,-1,10
 213 460 213 460 172 460 c 2,11,-1
 119 460 l 1,12,-1
 119 546 l 1,13,-1
 161 546 l 2,14,15
 204 546 204 546 219.5 559 c 128,-1,16
 235 572 235 572 235 592 c 0,17,18
 235 608 235 608 224 619 c 128,-1,19
 213 630 213 630 188 630 c 0,20,21
 165 630 165 630 144 621.5 c 128,-1,22
 123 613 123 613 96 593 c 1,23,-1
 43 669 l 1,24,25
 76 694 76 694 115 708.5 c 128,-1,26
 154 723 154 723 203 723 c 0,27,28
 269 723 269 723 310 693.5 c 128,-1,29
 351 664 351 664 351 614 c 0,30,31
 351 578 351 578 332 552.5 c 128,-1,32
 313 527 313 527 270 512 c 1,33,-1
 270 507 l 1,34,35
 319 496 319 496 342 469 c 128,-1,36
 365 442 365 442 365 404 c 0,37,38
 365 345 365 345 319.5 311.5 c 128,-1,39
 274 278 274 278 185 278 c 0,0,1
208 0 m 1,40,-1
 591 714 l 1,41,-1
 722 714 l 1,42,-1
 338 0 l 1,43,-1
 208 0 l 1,40,-1
686 0 m 1,44,-1
 686 71 l 1,45,-1
 502 71 l 1,46,-1
 502 154 l 1,47,-1
 682 431 l 1,48,-1
 811 431 l 1,49,-1
 811 161 l 1,50,-1
 872 161 l 1,51,-1
 872 71 l 1,52,-1
 811 71 l 1,53,-1
 811 0 l 1,54,-1
 686 0 l 1,44,-1
598 161 m 1,55,-1
 686 161 l 1,56,-1
 686 241 l 2,57,58
 686 280 686 280 689 320 c 1,59,60
 682 301 682 301 672 280.5 c 128,-1,61
 662 260 662 260 655 249 c 2,62,-1
 598 161 l 1,55,-1
EndSplineSet
EndChar

StartChar: AE
Encoding: 198 198 136
Width: 949
GlyphClass: 2
Flags: W
AnchorPoint: "Anchor-2" 516 714 basechar 0
AnchorPoint: "Anchor-0" 475 0 basechar 0
LayerCount: 2
Fore
SplineSet
895 0 m 1,0,-1
 470 0 l 1,1,-1
 470 153 l 1,2,-1
 242 153 l 1,3,-1
 180 0 l 1,4,-1
 -2 0 l 1,5,-1
 312 714 l 1,6,-1
 895 714 l 1,7,-1
 895 576 l 1,8,-1
 641 576 l 1,9,-1
 641 439 l 1,10,-1
 878 439 l 1,11,-1
 878 301 l 1,12,-1
 641 301 l 1,13,-1
 641 140 l 1,14,-1
 895 140 l 1,15,-1
 895 0 l 1,0,-1
299 296 m 1,16,-1
 470 296 l 1,17,-1
 470 569 l 1,18,-1
 411 569 l 1,19,-1
 299 296 l 1,16,-1
EndSplineSet
Substitution2: "'c2sc' Capitals to Small Capitals lookup 33 subtable" ae.sc
EndChar

StartChar: Eth
Encoding: 208 208 146
Width: 737
GlyphClass: 2
Flags: W
AnchorPoint: "Anchor-2" 369 714 basechar 0
AnchorPoint: "Anchor-0" 369 0 basechar 0
LayerCount: 2
Fore
SplineSet
319 714 m 2,0,1
 488 714 488 714 585 625.5 c 128,-1,2
 682 537 682 537 682 368 c 0,3,4
 682 184 682 184 580 92 c 128,-1,5
 478 0 478 0 299 0 c 2,6,-1
 84 0 l 1,7,-1
 84 284 l 1,8,-1
 19 284 l 1,9,-1
 19 422 l 1,10,-1
 84 422 l 1,11,-1
 84 714 l 1,12,-1
 319 714 l 2,0,1
323 575 m 2,13,-1
 254 575 l 1,14,-1
 254 422 l 1,15,-1
 364 422 l 1,16,-1
 364 284 l 1,17,-1
 254 284 l 1,18,-1
 254 140 l 1,19,-1
 309 140 l 2,20,21
 506 140 506 140 506 362 c 0,22,23
 506 471 506 471 459 523 c 128,-1,24
 412 575 412 575 323 575 c 2,13,-1
EndSplineSet
Substitution2: "'c2sc' Capitals to Small Capitals lookup 33 subtable" eth.sc
EndChar

StartChar: multiply
Encoding: 215 215 153
Width: 578
Flags: W
LayerCount: 2
Fore
SplineSet
429 575 m 1,0,-1
 512 495 l 1,1,-1
 370 353 l 1,2,-1
 510 212 l 1,3,-1
 429 131 l 1,4,-1
 287 271 l 1,5,-1
 147 132 l 1,6,-1
 67 213 l 1,7,-1
 204 353 l 1,8,-1
 66 493 l 1,9,-1
 147 575 l 1,10,-1
 287 437 l 1,11,-1
 429 575 l 1,0,-1
EndSplineSet
EndChar

StartChar: Oslash
Encoding: 216 216 154
Width: 796
GlyphClass: 2
Flags: W
AnchorPoint: "Anchor-2" 402 714 basechar 0
AnchorPoint: "Anchor-0" 398 0 basechar 0
LayerCount: 2
Fore
SplineSet
741 358 m 0,0,1
 741 247 741 247 705 164.5 c 128,-1,2
 669 82 669 82 593.5 36 c 128,-1,3
 518 -10 518 -10 398 -10 c 0,4,5
 308 -10 308 -10 240 17 c 1,6,-1
 198 -48 l 1,7,-1
 112 9 l 1,8,-1
 155 72 l 1,9,10
 103 121 103 121 79 194 c 128,-1,11
 55 267 55 267 55 359 c 0,12,13
 55 470 55 470 91.5 552 c 128,-1,14
 128 634 128 634 204 679.5 c 128,-1,15
 280 725 280 725 399 725 c 0,16,17
 448 725 448 725 489 717 c 128,-1,18
 530 709 530 709 564 694 c 1,19,-1
 603 754 l 1,20,-1
 688 701 l 1,21,-1
 646 638 l 1,22,23
 695 590 695 590 718 518 c 128,-1,24
 741 446 741 446 741 358 c 0,0,1
234 358 m 0,25,26
 234 318 234 318 239 284 c 128,-1,27
 244 250 244 250 255 223 c 1,28,-1
 479 566 l 1,29,30
 462 574 462 574 442 579 c 128,-1,31
 422 584 422 584 399 584 c 0,32,33
 311 584 311 584 272.5 523.5 c 128,-1,34
 234 463 234 463 234 358 c 0,25,26
562 358 m 0,35,36
 562 433 562 433 544 484 c 1,37,-1
 324 146 l 1,38,39
 340 140 340 140 358 136.5 c 128,-1,40
 376 133 376 133 398 133 c 0,41,42
 486 133 486 133 524 193 c 128,-1,43
 562 253 562 253 562 358 c 0,35,36
EndSplineSet
Substitution2: "'c2sc' Capitals to Small Capitals lookup 33 subtable" oslash.sc
EndChar

StartChar: Thorn
Encoding: 222 222 160
Width: 628
GlyphClass: 2
Flags: W
AnchorPoint: "Anchor-2" 314 714 basechar 0
AnchorPoint: "Anchor-0" 314 0 basechar 0
LayerCount: 2
Fore
SplineSet
589 379 m 0,0,1
 589 316 589 316 563.5 261 c 128,-1,2
 538 206 538 206 479 172 c 128,-1,3
 420 138 420 138 320 138 c 2,4,-1
 254 138 l 1,5,-1
 254 0 l 1,6,-1
 84 0 l 1,7,-1
 84 714 l 1,8,-1
 254 714 l 1,9,-1
 254 606 l 1,10,-1
 326 606 l 2,11,12
 460 606 460 606 524.5 545.5 c 128,-1,13
 589 485 589 485 589 379 c 0,0,1
254 277 m 1,14,-1
 297 277 l 2,15,16
 352 277 352 277 384 300.5 c 128,-1,17
 416 324 416 324 416 379 c 0,18,19
 416 422 416 422 391 444.5 c 128,-1,20
 366 467 366 467 310 467 c 2,21,-1
 254 467 l 1,22,-1
 254 277 l 1,14,-1
EndSplineSet
Substitution2: "'c2sc' Capitals to Small Capitals lookup 33 subtable" thorn.sc
EndChar

StartChar: germandbls
Encoding: 223 223 161
Width: 729
GlyphClass: 2
Flags: W
AnchorPoint: "Anchor-2" 365 765 basechar 0
AnchorPoint: "Anchor-0" 365 0 basechar 0
LayerCount: 2
Fore
SplineSet
630 594 m 0,0,1
 630 559 630 559 616.5 532.5 c 128,-1,2
 603 506 603 506 582.5 486 c 128,-1,3
 562 466 562 466 541.5 451 c 128,-1,4
 521 436 521 436 507.5 424.5 c 128,-1,5
 494 413 494 413 494 402 c 0,6,7
 494 382 494 382 520 368 c 128,-1,8
 546 354 546 354 598 319 c 0,9,10
 647 288 647 288 672 253.5 c 128,-1,11
 697 219 697 219 697 161 c 0,12,13
 697 77 697 77 640 33.5 c 128,-1,14
 583 -10 583 -10 474 -10 c 0,15,16
 417 -10 417 -10 379 -3 c 128,-1,17
 341 4 341 4 310 20 c 1,18,-1
 310 149 l 1,19,20
 326 139 326 139 350 130 c 128,-1,21
 374 121 374 121 400 115 c 128,-1,22
 426 109 426 109 447 109 c 0,23,24
 482 109 482 109 502.5 121.5 c 128,-1,25
 523 134 523 134 523 160 c 0,26,27
 523 174 523 174 516.5 185.5 c 128,-1,28
 510 197 510 197 490.5 211 c 128,-1,29
 471 225 471 225 431 247 c 0,30,31
 370 281 370 281 346 309.5 c 128,-1,32
 322 338 322 338 322 378 c 0,33,34
 322 409 322 409 335.5 431 c 128,-1,35
 349 453 349 453 369.5 469 c 128,-1,36
 390 485 390 485 410.5 499.5 c 128,-1,37
 431 514 431 514 444.5 531 c 128,-1,38
 458 548 458 548 458 571 c 0,39,40
 458 600 458 600 429.5 617.5 c 128,-1,41
 401 635 401 635 355 635 c 0,42,43
 301 635 301 635 271 609.5 c 128,-1,44
 241 584 241 584 241 535 c 2,45,-1
 241 0 l 1,46,-1
 72 0 l 1,47,-1
 72 547 l 2,48,49
 72 620 72 620 109 668 c 128,-1,50
 146 716 146 716 210 740.5 c 128,-1,51
 274 765 274 765 355 765 c 0,52,53
 434 765 434 765 496.5 745.5 c 128,-1,54
 559 726 559 726 594.5 688 c 128,-1,55
 630 650 630 650 630 594 c 0,0,1
EndSplineSet
Substitution2: "'smcp' Lowercase to Small Capitals lookup 34 subtable" germandbls.sc
EndChar

StartChar: ae
Encoding: 230 230 168
Width: 925
GlyphClass: 2
Flags: W
AnchorPoint: "Anchor-2" 473 549 basechar 0
AnchorPoint: "Anchor-0" 463 0 basechar 0
LayerCount: 2
Fore
SplineSet
647 559 m 0,0,1
 716 559 716 559 769 530.5 c 128,-1,2
 822 502 822 502 852.5 446 c 128,-1,3
 883 390 883 390 883 308 c 2,4,-1
 883 231 l 1,5,-1
 536 231 l 1,6,7
 538 178 538 178 572 145.5 c 128,-1,8
 606 113 606 113 668 113 c 0,9,10
 712 113 712 113 758 122.5 c 128,-1,11
 804 132 804 132 850 155 c 1,12,-1
 850 30 l 1,13,14
 809 9 809 9 764.5 -0.5 c 128,-1,15
 720 -10 720 -10 652 -10 c 0,16,17
 587 -10 587 -10 532 14 c 128,-1,18
 477 38 477 38 441 87 c 1,19,20
 410 52 410 52 380 30.5 c 128,-1,21
 350 9 350 9 311 -0.5 c 128,-1,22
 272 -10 272 -10 214 -10 c 0,23,24
 168 -10 168 -10 128 9 c 128,-1,25
 88 28 88 28 63.5 67 c 128,-1,26
 39 106 39 106 39 167 c 0,27,28
 39 256 39 256 102 297 c 128,-1,29
 165 338 165 338 278 343 c 2,30,-1
 370 346 l 1,31,-1
 370 372 l 2,32,33
 370 408 370 408 349 423 c 128,-1,34
 328 438 328 438 296 438 c 0,35,36
 259 438 259 438 220.5 427.5 c 128,-1,37
 182 417 182 417 145 400 c 1,38,-1
 94 511 l 1,39,40
 139 534 139 534 193.5 547 c 128,-1,41
 248 560 248 560 307 560 c 0,42,43
 413 560 413 560 473 504 c 1,44,45
 506 532 506 532 547 545.5 c 128,-1,46
 588 559 588 559 647 559 c 0,0,1
640 442 m 256,47,48
 597 442 597 442 570 418 c 128,-1,49
 543 394 543 394 539 340 c 1,50,-1
 728 340 l 1,51,52
 727 383 727 383 705 412.5 c 128,-1,53
 683 442 683 442 640 442 c 256,47,48
370 250 m 1,54,-1
 322 248 l 2,55,56
 259 246 259 246 235.5 224.5 c 128,-1,57
 212 203 212 203 212 168 c 0,58,59
 212 136 212 136 229 123.5 c 128,-1,60
 246 111 246 111 274 111 c 0,61,62
 314 111 314 111 342 136.5 c 128,-1,63
 370 162 370 162 370 206 c 2,64,-1
 370 250 l 1,54,-1
EndSplineSet
Substitution2: "'smcp' Lowercase to Small Capitals lookup 34 subtable" ae.sc
EndChar

StartChar: eth
Encoding: 240 240 178
Width: 629
GlyphClass: 2
Flags: W
AnchorPoint: "Anchor-2" 315 767 basechar 0
AnchorPoint: "Anchor-0" 315 0 basechar 0
LayerCount: 2
Fore
SplineSet
229 766 m 1,0,1
 265 750 265 750 297 733.5 c 128,-1,2
 329 717 329 717 356 699 c 1,3,-1
 463 766 l 1,4,-1
 515 685 l 1,5,-1
 438 636 l 1,6,7
 509 568 509 568 546 483.5 c 128,-1,8
 583 399 583 399 583 281 c 0,9,10
 583 190 583 190 550 124.5 c 128,-1,11
 517 59 517 59 456 24.5 c 128,-1,12
 395 -10 395 -10 312 -10 c 0,13,14
 234 -10 234 -10 173.5 19 c 128,-1,15
 113 48 113 48 78.5 104 c 128,-1,16
 44 160 44 160 44 241 c 256,17,18
 44 322 44 322 74.5 377.5 c 128,-1,19
 105 433 105 433 158 461.5 c 128,-1,20
 211 490 211 490 279 490 c 0,21,22
 328 490 328 490 359 479 c 128,-1,23
 390 468 390 468 406 445 c 1,24,-1
 410 447 l 1,25,26
 394 482 394 482 374.5 510.5 c 128,-1,27
 355 539 355 539 327 567 c 1,28,-1
 225 503 l 1,29,-1
 173 585 l 1,30,-1
 251 634 l 1,31,32
 219 655 219 655 178 679 c 1,33,-1
 229 766 l 1,0,1
314 368 m 0,34,35
 261 368 261 368 238.5 337 c 128,-1,36
 216 306 216 306 216 241 c 0,37,38
 216 183 216 183 239 147.5 c 128,-1,39
 262 112 262 112 314 112 c 256,40,41
 366 112 366 112 388.5 149.5 c 128,-1,42
 411 187 411 187 411 263 c 0,43,44
 411 304 411 304 387.5 336 c 128,-1,45
 364 368 364 368 314 368 c 0,34,35
EndSplineSet
Substitution2: "'smcp' Lowercase to Small Capitals lookup 34 subtable" eth.sc
EndChar

StartChar: divide
Encoding: 247 247 185
Width: 578
Flags: W
LayerCount: 2
Fore
SplineSet
288 454 m 0,0,1
 259 454 259 454 238 472.5 c 128,-1,2
 217 491 217 491 217 532 c 0,3,4
 217 576 217 576 238 593 c 128,-1,5
 259 610 259 610 288 610 c 0,6,7
 316 610 316 610 338 593 c 128,-1,8
 360 576 360 576 360 532 c 0,9,10
 360 491 360 491 338 472.5 c 128,-1,11
 316 454 316 454 288 454 c 0,0,1
44 293 m 1,12,-1
 44 412 l 1,13,-1
 534 412 l 1,14,-1
 534 293 l 1,15,-1
 44 293 l 1,12,-1
288 95 m 0,16,17
 259 95 259 95 238 113.5 c 128,-1,18
 217 132 217 132 217 173 c 0,19,20
 217 216 217 216 238 233.5 c 128,-1,21
 259 251 259 251 288 251 c 0,22,23
 316 251 316 251 338 233.5 c 128,-1,24
 360 216 360 216 360 173 c 0,25,26
 360 132 360 132 338 113.5 c 128,-1,27
 316 95 316 95 288 95 c 0,16,17
EndSplineSet
EndChar

StartChar: oslash
Encoding: 248 248 186
Width: 640
GlyphClass: 2
Flags: W
AnchorPoint: "Anchor-2" 322 549 basechar 0
AnchorPoint: "Anchor-0" 321 0 basechar 0
LayerCount: 2
Fore
SplineSet
596 276 m 0,0,1
 596 138 596 138 521.5 64 c 128,-1,2
 447 -10 447 -10 319 -10 c 0,3,4
 258 -10 258 -10 206 10 c 1,5,-1
 169 -46 l 1,6,-1
 90 5 l 1,7,-1
 126 59 l 1,8,9
 87 96 87 96 65.5 150.5 c 128,-1,10
 44 205 44 205 44 276 c 0,11,12
 44 412 44 412 118 485.5 c 128,-1,13
 192 559 192 559 322 559 c 0,14,15
 384 559 384 559 439 537 c 1,16,-1
 470 583 l 1,17,-1
 548 531 l 1,18,-1
 517 486 l 1,19,20
 554 450 554 450 575 397 c 128,-1,21
 596 344 596 344 596 276 c 0,0,1
210 276 m 0,22,23
 210 254 210 254 212 235 c 128,-1,24
 214 216 214 216 218 199 c 1,25,-1
 366 425 l 1,26,27
 346 434 346 434 320 434 c 0,28,29
 261 434 261 434 235.5 394.5 c 128,-1,30
 210 355 210 355 210 276 c 0,22,23
430 276 m 0,31,32
 430 313 430 313 424 343 c 1,33,-1
 279 121 l 1,34,35
 288 118 288 118 298.5 117 c 128,-1,36
 309 116 309 116 321 116 c 0,37,38
 381 116 381 116 405.5 156.5 c 128,-1,39
 430 197 430 197 430 276 c 0,31,32
EndSplineSet
Substitution2: "'smcp' Lowercase to Small Capitals lookup 34 subtable" oslash.sc
EndChar

StartChar: thorn
Encoding: 254 254 192
Width: 638
GlyphClass: 2
Flags: W
AnchorPoint: "Anchor-2" 319 760 basechar 0
AnchorPoint: "Anchor-0" 319 -240 basechar 0
LayerCount: 2
Fore
SplineSet
594 276 m 0,0,1
 594 135 594 135 536.5 62.5 c 128,-1,2
 479 -10 479 -10 389 -10 c 0,3,4
 334 -10 334 -10 298 9.5 c 128,-1,5
 262 29 262 29 241 55 c 1,6,-1
 234 55 l 1,7,8
 237 40 237 40 239 18 c 128,-1,9
 241 -4 241 -4 241 -20 c 2,10,-1
 241 -240 l 1,11,-1
 72 -240 l 1,12,-1
 72 760 l 1,13,-1
 241 760 l 1,14,-1
 241 580 l 2,15,16
 241 548 241 548 238 520.5 c 128,-1,17
 235 493 235 493 233 478 c 1,18,-1
 241 478 l 1,19,20
 260 512 260 512 297.5 535.5 c 128,-1,21
 335 559 335 559 392 559 c 0,22,23
 481 559 481 559 537.5 487.5 c 128,-1,24
 594 416 594 416 594 276 c 0,0,1
422 278 m 256,25,26
 422 352 422 352 401 389 c 128,-1,27
 380 426 380 426 334 426 c 0,28,29
 283 426 283 426 262.5 393 c 128,-1,30
 242 360 242 360 241 292 c 2,31,-1
 241 277 l 2,32,33
 241 204 241 204 261.5 165 c 128,-1,34
 282 126 282 126 336 126 c 0,35,36
 382 126 382 126 402 165 c 128,-1,37
 422 204 422 204 422 278 c 256,25,26
EndSplineSet
Substitution2: "'smcp' Lowercase to Small Capitals lookup 34 subtable" thorn.sc
EndChar

StartChar: dcroat
Encoding: 273 273 211
Width: 655
GlyphClass: 2
Flags: W
AnchorPoint: "Anchor-2" 328 760 basechar 0
AnchorPoint: "Anchor-0" 328 0 basechar 0
LayerCount: 2
Fore
SplineSet
241 -10 m 0,0,1
 154 -10 154 -10 99 57.5 c 128,-1,2
 44 125 44 125 44 254 c 0,3,4
 44 388 44 388 102 454 c 128,-1,5
 160 520 160 520 252 520 c 0,6,7
 309 520 309 520 345.5 497 c 128,-1,8
 382 474 382 474 405 440 c 1,9,-1
 409 440 l 1,10,11
 408 444 408 444 405 463 c 128,-1,12
 402 482 402 482 399 509 c 128,-1,13
 396 536 396 536 396 562 c 2,14,-1
 396 578 l 1,15,-1
 261 578 l 1,16,-1
 261 684 l 1,17,-1
 396 684 l 1,18,-1
 396 760 l 1,19,-1
 565 760 l 1,20,-1
 565 684 l 1,21,-1
 641 684 l 1,22,-1
 641 578 l 1,23,-1
 565 578 l 1,24,-1
 565 0 l 1,25,-1
 432 0 l 1,26,-1
 396 71 l 1,27,-1
 390 71 l 1,28,29
 368 37 368 37 333 13.5 c 128,-1,30
 298 -10 298 -10 241 -10 c 0,0,1
314 124 m 0,31,32
 366 124 366 124 387 153 c 128,-1,33
 408 182 408 182 409 240 c 2,34,-1
 409 253 l 2,35,36
 409 317 409 317 386 350.5 c 128,-1,37
 363 384 363 384 311 384 c 0,38,39
 270 384 270 384 246 352 c 128,-1,40
 222 320 222 320 222 252 c 0,41,42
 222 194 222 194 245 159 c 128,-1,43
 268 124 268 124 314 124 c 0,31,32
EndSplineSet
Substitution2: "'smcp' Lowercase to Small Capitals lookup 34 subtable" dcroat.sc
EndChar

StartChar: eogonek
Encoding: 281 281 219
Width: 603
GlyphClass: 2
Flags: W
AnchorPoint: "Anchor-3" 583 549 basechar 0
AnchorPoint: "Anchor-2" 302 549 basechar 0
AnchorPoint: "Anchor-0" 313 -240 basechar 0
LayerCount: 2
Fore
SplineSet
429 -102 m 0,0,1
 429 -122 429 -122 440.5 -131.5 c 128,-1,2
 452 -141 452 -141 469 -141 c 0,3,4
 484 -141 484 -141 499 -138 c 128,-1,5
 514 -135 514 -135 524 -131 c 1,6,-1
 524 -228 l 1,7,8
 508 -233 508 -233 489 -236.5 c 128,-1,9
 470 -240 470 -240 444 -240 c 0,10,11
 388 -240 388 -240 352 -209 c 128,-1,12
 316 -178 316 -178 316 -128 c 0,13,14
 316 -65 316 -65 387 -8 c 1,15,16
 361 -10 361 -10 329 -10 c 0,17,18
 246 -10 246 -10 181.5 20 c 128,-1,19
 117 50 117 50 80.5 112 c 128,-1,20
 44 174 44 174 44 271 c 0,21,22
 44 417 44 417 117 488 c 128,-1,23
 190 559 190 559 309 559 c 0,24,25
 425 559 425 559 493 495.5 c 128,-1,26
 561 432 561 432 561 309 c 2,27,-1
 561 231 l 1,28,-1
 214 231 l 1,29,30
 216 177 216 177 249 145 c 128,-1,31
 282 113 282 113 343 113 c 0,32,33
 396 113 396 113 439 123 c 128,-1,34
 482 133 482 133 528 155 c 1,35,-1
 528 30 l 1,36,37
 488 -5 488 -5 466.5 -28.5 c 128,-1,38
 445 -52 445 -52 437 -69 c 128,-1,39
 429 -86 429 -86 429 -102 c 0,0,1
312 442 m 0,40,41
 273 442 273 442 247.5 417 c 128,-1,42
 222 392 222 392 217 340 c 1,43,-1
 406 340 l 1,44,45
 405 384 405 384 381.5 413 c 128,-1,46
 358 442 358 442 312 442 c 0,40,41
EndSplineSet
Substitution2: "'smcp' Lowercase to Small Capitals lookup 34 subtable" eogonek.sc
Substitution2: "'locl' Localized Forms in Latin lookup 9 subtable" eogonek.loclNAV
Ligature2: "'ccmp' Glyph Composition/Decomposition lookup 6 subtable" e uni0328
EndChar

StartChar: Hbar
Encoding: 294 294 232
Width: 773
GlyphClass: 2
Flags: W
AnchorPoint: "Anchor-2" 387 714 basechar 0
AnchorPoint: "Anchor-0" 387 0 basechar 0
LayerCount: 2
Fore
SplineSet
88 0 m 1,0,-1
 88 522 l 1,1,-1
 0 522 l 1,2,-1
 0 626 l 1,3,-1
 88 626 l 1,4,-1
 88 714 l 1,5,-1
 258 714 l 1,6,-1
 258 626 l 1,7,-1
 514 626 l 1,8,-1
 514 714 l 1,9,-1
 685 714 l 1,10,-1
 685 626 l 1,11,-1
 773 626 l 1,12,-1
 773 522 l 1,13,-1
 685 522 l 1,14,-1
 685 0 l 1,15,-1
 514 0 l 1,16,-1
 514 300 l 1,17,-1
 258 300 l 1,18,-1
 258 0 l 1,19,-1
 88 0 l 1,0,-1
258 441 m 1,20,-1
 514 441 l 1,21,-1
 514 522 l 1,22,-1
 258 522 l 1,23,-1
 258 441 l 1,20,-1
EndSplineSet
Substitution2: "'c2sc' Capitals to Small Capitals lookup 33 subtable" hbar.sc
EndChar

StartChar: hbar
Encoding: 295 295 233
Width: 668
GlyphClass: 2
Flags: W
AnchorPoint: "Anchor-2" 159 760 basechar 0
AnchorPoint: "Anchor-0" 334 0 basechar 0
LayerCount: 2
Fore
SplineSet
245 760 m 1,0,-1
 245 684 l 1,1,-1
 381 684 l 1,2,-1
 381 578 l 1,3,-1
 245 578 l 1,4,-1
 245 563 l 2,5,6
 245 531 245 531 242.5 495.5 c 128,-1,7
 240 460 240 460 238 441 c 1,8,-1
 248 441 l 1,9,10
 274 483 274 483 313 501.5 c 128,-1,11
 352 520 352 520 403 520 c 0,12,13
 488 520 488 520 543 472.5 c 128,-1,14
 598 425 598 425 598 320 c 2,15,-1
 598 0 l 1,16,-1
 429 0 l 1,17,-1
 429 272 l 2,18,19
 429 387 429 387 351 387 c 0,20,21
 291 387 291 387 268 341.5 c 128,-1,22
 245 296 245 296 245 211 c 2,23,-1
 245 0 l 1,24,-1
 77 0 l 1,25,-1
 77 578 l 1,26,-1
 1 578 l 1,27,-1
 1 684 l 1,28,-1
 77 684 l 1,29,-1
 77 760 l 1,30,-1
 245 760 l 1,0,-1
EndSplineSet
Substitution2: "'smcp' Lowercase to Small Capitals lookup 34 subtable" hbar.sc
EndChar

StartChar: kgreenlandic
Encoding: 312 312 249
Width: 638
GlyphClass: 2
Flags: W
AnchorPoint: "Anchor-2" 319 549 basechar 0
AnchorPoint: "Anchor-0" 319 0 basechar 0
LayerCount: 2
Fore
SplineSet
627 549 m 1,0,-1
 420 303 l 1,1,-1
 638 0 l 1,2,-1
 447 0 l 1,3,-1
 308 202 l 1,4,-1
 241 156 l 1,5,-1
 241 0 l 1,6,-1
 72 0 l 1,7,-1
 72 549 l 1,8,-1
 241 549 l 1,9,-1
 241 417 l 2,10,11
 241 382 241 382 239.5 352 c 128,-1,12
 238 322 238 322 237 298 c 1,13,-1
 240 298 l 1,14,15
 254 315 254 315 270 337 c 128,-1,16
 286 359 286 359 305 382 c 2,17,-1
 442 549 l 1,18,-1
 627 549 l 1,0,-1
EndSplineSet
EndChar

StartChar: Lslash
Encoding: 321 321 258
Width: 585
GlyphClass: 2
Flags: W
AnchorPoint: "Anchor-2" 167 714 basechar 0
AnchorPoint: "Anchor-0" 308 0 basechar 0
LayerCount: 2
Fore
SplineSet
96 0 m 1,0,-1
 96 238 l 1,1,-1
 55 214 l 1,2,-1
 -6 322 l 1,3,-1
 96 383 l 1,4,-1
 96 714 l 1,5,-1
 267 714 l 1,6,-1
 267 488 l 1,7,-1
 352 541 l 1,8,-1
 416 434 l 1,9,-1
 267 342 l 1,10,-1
 267 139 l 1,11,-1
 550 139 l 1,12,-1
 550 0 l 1,13,-1
 96 0 l 1,0,-1
EndSplineSet
Substitution2: "'c2sc' Capitals to Small Capitals lookup 33 subtable" lslash.sc
EndChar

StartChar: lslash
Encoding: 322 322 259
Width: 357
GlyphClass: 2
Flags: W
AnchorPoint: "Anchor-2" 179 760 basechar 0
AnchorPoint: "Anchor-0" 179 0 basechar 0
LayerCount: 2
Fore
SplineSet
95 0 m 1,0,-1
 95 216 l 1,1,-1
 48 190 l 1,2,-1
 -13 297 l 1,3,-1
 95 361 l 1,4,-1
 95 760 l 1,5,-1
 263 760 l 1,6,-1
 263 463 l 1,7,-1
 307 490 l 1,8,-1
 371 383 l 1,9,-1
 263 318 l 1,10,-1
 263 0 l 1,11,-1
 95 0 l 1,0,-1
EndSplineSet
Substitution2: "'smcp' Lowercase to Small Capitals lookup 34 subtable" lslash.sc
EndChar

StartChar: Eng
Encoding: 330 330 267
Width: 823
GlyphClass: 2
Flags: W
AnchorPoint: "Anchor-2" 412 714 basechar 0
AnchorPoint: "Anchor-0" 412 -223 basechar 0
LayerCount: 2
Fore
SplineSet
499 -223 m 0,0,1
 465 -223 465 -223 439.5 -220 c 128,-1,2
 414 -217 414 -217 397 -213 c 1,3,-1
 397 -80 l 1,4,5
 415 -84 415 -84 435 -87 c 128,-1,6
 455 -90 455 -90 479 -90 c 0,7,8
 536 -90 536 -90 563 -68 c 128,-1,9
 590 -46 590 -46 593 1 c 1,10,-1
 231 523 l 1,11,-1
 227 523 l 1,12,13
 227 516 227 516 228.5 494 c 128,-1,14
 230 472 230 472 232 441.5 c 128,-1,15
 234 411 234 411 235 378.5 c 128,-1,16
 236 346 236 346 236 319 c 2,17,-1
 236 0 l 1,18,-1
 84 0 l 1,19,-1
 84 714 l 1,20,-1
 294 714 l 1,21,-1
 590 295 l 1,22,-1
 594 295 l 1,23,24
 593 301 593 301 592 323.5 c 128,-1,25
 591 346 591 346 589.5 376.5 c 128,-1,26
 588 407 588 407 587 439 c 128,-1,27
 586 471 586 471 586 496 c 2,28,-1
 586 714 l 1,29,-1
 739 714 l 1,30,-1
 739 -2 l 2,31,32
 739 -76 739 -76 708.5 -125.5 c 128,-1,33
 678 -175 678 -175 624 -199 c 128,-1,34
 570 -223 570 -223 499 -223 c 0,0,1
EndSplineSet
Substitution2: "'c2sc' Capitals to Small Capitals lookup 33 subtable" eng.sc
AlternateSubs2: "'aalt' Access All Alternates lookup 1 subtable" Eng.alt1 Eng.alt2 Eng.alt3
EndChar

StartChar: eng
Encoding: 331 331 268
Width: 663
GlyphClass: 2
Flags: W
AnchorPoint: "Anchor-2" 332 549 basechar 0
AnchorPoint: "Anchor-0" 332 -240 basechar 0
LayerCount: 2
Fore
SplineSet
405 -240 m 0,0,1
 382 -240 382 -240 354.5 -236.5 c 128,-1,2
 327 -233 327 -233 309 -228 c 1,3,-1
 309 -96 l 1,4,5
 325 -100 325 -100 337.5 -102.5 c 128,-1,6
 350 -105 350 -105 367 -105 c 0,7,8
 390 -105 390 -105 407 -88.5 c 128,-1,9
 424 -72 424 -72 424 -22 c 2,10,-1
 424 325 l 2,11,12
 424 426 424 426 346 426 c 0,13,14
 284 426 284 426 262.5 380.5 c 128,-1,15
 241 335 241 335 241 250 c 2,16,-1
 241 0 l 1,17,-1
 72 0 l 1,18,-1
 72 549 l 1,19,-1
 200 549 l 1,20,-1
 222 480 l 1,21,-1
 233 480 l 1,22,23
 259 522 259 522 304.5 540.5 c 128,-1,24
 350 559 350 559 400 559 c 0,25,26
 456 559 456 559 499.5 538 c 128,-1,27
 543 517 543 517 568 472.5 c 128,-1,28
 593 428 593 428 593 358 c 2,29,-1
 593 -53 l 2,30,31
 593 -103 593 -103 574.5 -145.5 c 128,-1,32
 556 -188 556 -188 515 -214 c 128,-1,33
 474 -240 474 -240 405 -240 c 0,0,1
EndSplineSet
Substitution2: "'smcp' Lowercase to Small Capitals lookup 34 subtable" eng.sc
EndChar

StartChar: OE
Encoding: 338 338 275
Width: 966
GlyphClass: 2
Flags: W
AnchorPoint: "Anchor-2" 483 714 basechar 0
AnchorPoint: "Anchor-0" 483 0 basechar 0
LayerCount: 2
Fore
SplineSet
379 725 m 0,0,1
 405 725 405 725 439 722 c 128,-1,2
 473 719 473 719 495 714 c 1,3,-1
 912 714 l 1,4,-1
 912 576 l 1,5,-1
 657 576 l 1,6,-1
 657 439 l 1,7,-1
 894 439 l 1,8,-1
 894 301 l 1,9,-1
 657 301 l 1,10,-1
 657 140 l 1,11,-1
 912 140 l 1,12,-1
 912 0 l 1,13,-1
 492 0 l 1,14,15
 471 -4 471 -4 437.5 -7 c 128,-1,16
 404 -10 404 -10 378 -10 c 0,17,18
 269 -10 269 -10 197.5 36 c 128,-1,19
 126 82 126 82 90.5 165 c 128,-1,20
 55 248 55 248 55 359 c 256,21,22
 55 470 55 470 90 552 c 128,-1,23
 125 634 125 634 197 679.5 c 128,-1,24
 269 725 269 725 379 725 c 0,0,1
379 584 m 0,25,26
 303 584 303 584 267.5 523.5 c 128,-1,27
 232 463 232 463 232 358 c 256,28,29
 232 253 232 253 267.5 193 c 128,-1,30
 303 133 303 133 378 133 c 0,31,32
 408 133 408 133 438 138 c 128,-1,33
 468 143 468 143 487 153 c 1,34,-1
 487 562 l 1,35,36
 470 572 470 572 439.5 578 c 128,-1,37
 409 584 409 584 379 584 c 0,25,26
EndSplineSet
Substitution2: "'c2sc' Capitals to Small Capitals lookup 33 subtable" oe.sc
EndChar

StartChar: oe
Encoding: 339 339 276
Width: 979
GlyphClass: 2
Flags: W
AnchorPoint: "Anchor-2" 489 549 basechar 0
AnchorPoint: "Anchor-0" 489 0 basechar 0
LayerCount: 2
Fore
SplineSet
690 559 m 0,0,1
 801 559 801 559 868.5 495.5 c 128,-1,2
 936 432 936 432 936 308 c 2,3,-1
 936 231 l 1,4,-1
 583 231 l 1,5,6
 586 178 586 178 620.5 145.5 c 128,-1,7
 655 113 655 113 718 113 c 0,8,9
 765 113 765 113 811 122.5 c 128,-1,10
 857 132 857 132 904 155 c 1,11,-1
 904 30 l 1,12,13
 862 9 862 9 816.5 -0.5 c 128,-1,14
 771 -10 771 -10 703 -10 c 0,15,16
 644 -10 644 -10 594 7.5 c 128,-1,17
 544 25 544 25 507 62 c 1,18,19
 472 26 472 26 422.5 8 c 128,-1,20
 373 -10 373 -10 313 -10 c 0,21,22
 235 -10 235 -10 174 23 c 128,-1,23
 113 56 113 56 78.5 120 c 128,-1,24
 44 184 44 184 44 276 c 0,25,26
 44 412 44 412 115 485.5 c 128,-1,27
 186 559 186 559 314 559 c 0,28,29
 369 559 369 559 416.5 541.5 c 128,-1,30
 464 524 464 524 499 490 c 1,31,32
 535 524 535 524 582 541.5 c 128,-1,33
 629 559 629 559 690 559 c 0,0,1
686 442 m 0,34,35
 646 442 646 442 619 418 c 128,-1,36
 592 394 592 394 587 340 c 1,37,-1
 782 340 l 1,38,39
 781 383 781 383 757 412.5 c 128,-1,40
 733 442 733 442 686 442 c 0,34,35
313 429 m 0,41,42
 261 429 261 429 238 390.5 c 128,-1,43
 215 352 215 352 215 276 c 256,44,45
 215 200 215 200 238 160 c 128,-1,46
 261 120 261 120 314 120 c 0,47,48
 366 120 366 120 389 160 c 128,-1,49
 412 200 412 200 412 276 c 256,50,51
 412 352 412 352 389 390.5 c 128,-1,52
 366 429 366 429 313 429 c 0,41,42
EndSplineSet
Substitution2: "'smcp' Lowercase to Small Capitals lookup 34 subtable" oe.sc
EndChar

StartChar: Tbar
Encoding: 358 358 295
Width: 585
GlyphClass: 2
Flags: W
AnchorPoint: "Anchor-2" 293 714 basechar 0
AnchorPoint: "Anchor-0" 293 0 basechar 0
LayerCount: 2
Fore
SplineSet
207 0 m 1,0,-1
 207 280 l 1,1,-1
 95 280 l 1,2,-1
 95 420 l 1,3,-1
 207 420 l 1,4,-1
 207 573 l 1,5,-1
 22 573 l 1,6,-1
 22 714 l 1,7,-1
 562 714 l 1,8,-1
 562 573 l 1,9,-1
 377 573 l 1,10,-1
 377 420 l 1,11,-1
 490 420 l 1,12,-1
 490 280 l 1,13,-1
 377 280 l 1,14,-1
 377 0 l 1,15,-1
 207 0 l 1,0,-1
EndSplineSet
Substitution2: "'c2sc' Capitals to Small Capitals lookup 33 subtable" tbar.sc
EndChar

StartChar: tbar
Encoding: 359 359 296
Width: 455
GlyphClass: 2
Flags: W
AnchorPoint: "Anchor-3" 408 663 basechar 0
AnchorPoint: "Anchor-2" 208 663 basechar 0
AnchorPoint: "Anchor-1" 223 275 basechar 0
AnchorPoint: "Anchor-0" 252 0 basechar 0
LayerCount: 2
Fore
SplineSet
34 231 m 1,0,-1
 34 338 l 1,1,-1
 94 338 l 1,2,-1
 94 423 l 1,3,-1
 24 423 l 1,4,-1
 24 493 l 1,5,-1
 108 547 l 1,6,-1
 154 663 l 1,7,-1
 262 663 l 1,8,-1
 262 549 l 1,9,-1
 408 549 l 1,10,-1
 408 423 l 1,11,-1
 262 423 l 1,12,-1
 262 338 l 1,13,-1
 391 338 l 1,14,-1
 391 231 l 1,15,-1
 262 231 l 1,16,-1
 262 182 l 2,17,18
 262 153 262 153 278 138.5 c 128,-1,19
 294 124 294 124 321 124 c 0,20,21
 346 124 346 124 368.5 129 c 128,-1,22
 391 134 391 134 414 142 c 1,23,-1
 414 18 l 1,24,25
 387 6 387 6 352 -2 c 128,-1,26
 317 -10 317 -10 269 -10 c 0,27,28
 218 -10 218 -10 178.5 6.5 c 128,-1,29
 139 23 139 23 116.5 63.5 c 128,-1,30
 94 104 94 104 94 176 c 2,31,-1
 94 231 l 1,32,-1
 34 231 l 1,0,-1
EndSplineSet
Substitution2: "'smcp' Lowercase to Small Capitals lookup 34 subtable" tbar.sc
EndChar

StartChar: Uogonek
Encoding: 370 370 307
Width: 756
GlyphClass: 2
Flags: W
AnchorPoint: "Anchor-3" 736 714 basechar 0
AnchorPoint: "Anchor-2" 378 714 basechar 0
AnchorPoint: "Anchor-0" 376 -240 basechar 0
LayerCount: 2
Fore
SplineSet
501 -94 m 0,0,1
 501 -120 501 -120 512 -130.5 c 128,-1,2
 523 -141 523 -141 540 -141 c 0,3,4
 554 -141 554 -141 570 -138 c 128,-1,5
 586 -135 586 -135 596 -131 c 1,6,-1
 596 -228 l 1,7,8
 580 -233 580 -233 561 -236.5 c 128,-1,9
 542 -240 542 -240 516 -240 c 0,10,11
 460 -240 460 -240 424 -208 c 128,-1,12
 388 -176 388 -176 388 -120 c 0,13,14
 388 -61 388 -61 435 -6 c 1,15,16
 406 -10 406 -10 375 -10 c 0,17,18
 231 -10 231 -10 155 64 c 128,-1,19
 79 138 79 138 79 266 c 2,20,-1
 79 714 l 1,21,-1
 250 714 l 1,22,-1
 250 285 l 2,23,24
 250 202 250 202 282.5 167.5 c 128,-1,25
 315 133 315 133 379 133 c 0,26,27
 446 133 446 133 476.5 169.5 c 128,-1,28
 507 206 507 206 507 286 c 2,29,-1
 507 714 l 1,30,-1
 677 714 l 1,31,-1
 677 267 l 2,32,33
 677 199 677 199 654 143.5 c 128,-1,34
 631 88 631 88 584 52 c 1,35,36
 542 8 542 8 521.5 -26 c 128,-1,37
 501 -60 501 -60 501 -94 c 0,0,1
EndSplineSet
Substitution2: "'c2sc' Capitals to Small Capitals lookup 33 subtable" uogonek.sc
Substitution2: "'locl' Localized Forms in Latin lookup 9 subtable" Uogonek.loclNAV
Ligature2: "'ccmp' Glyph Composition/Decomposition lookup 6 subtable" U uni0328
EndChar

StartChar: longs
Encoding: 383 383 320
Width: 392
GlyphClass: 2
Flags: W
AnchorPoint: "Anchor-2" 232 765 basechar 0
AnchorPoint: "Anchor-0" 197 0 basechar 0
LayerCount: 2
Fore
SplineSet
299 638 m 0,0,1
 265 638 265 638 253 619.5 c 128,-1,2
 241 601 241 601 241 568 c 2,3,-1
 241 0 l 1,4,-1
 72 0 l 1,5,-1
 72 574 l 2,6,7
 72 651 72 651 96.5 692.5 c 128,-1,8
 121 734 121 734 165.5 749.5 c 128,-1,9
 210 765 210 765 270 765 c 0,10,11
 320 765 320 765 355 758 c 128,-1,12
 390 751 390 751 414 741 c 1,13,-1
 378 623 l 1,14,15
 360 628 360 628 341.5 633 c 128,-1,16
 323 638 323 638 299 638 c 0,0,1
EndSplineSet
EndChar

StartChar: florin
Encoding: 402 402 321
Width: 564
GlyphClass: 2
Flags: W
AnchorPoint: "Anchor-2" 349 743 basechar 0
AnchorPoint: "Anchor-0" 282 -240 basechar 0
LayerCount: 2
Fore
SplineSet
376 743 m 0,0,1
 420 743 420 743 456 736 c 128,-1,2
 492 729 492 729 518 719 c 1,3,-1
 482 602 l 1,4,5
 466 607 466 607 449 611 c 128,-1,6
 432 615 432 615 413 615 c 0,7,8
 385 615 385 615 373.5 597 c 128,-1,9
 362 579 362 579 362 546 c 2,10,-1
 362 527 l 1,11,-1
 479 527 l 1,12,-1
 479 401 l 1,13,-1
 362 401 l 1,14,-1
 362 -51 l 2,15,16
 362 -134 362 -134 318 -187 c 128,-1,17
 274 -240 274 -240 180 -240 c 0,18,19
 155 -240 155 -240 127.5 -236.5 c 128,-1,20
 100 -233 100 -233 83 -227 c 1,21,-1
 83 -96 l 1,22,23
 98 -100 98 -100 110 -102.5 c 128,-1,24
 122 -105 122 -105 139 -105 c 0,25,26
 163 -105 163 -105 178 -88 c 128,-1,27
 193 -71 193 -71 193 -28 c 2,28,-1
 193 401 l 1,29,-1
 115 401 l 1,30,-1
 115 483 l 1,31,-1
 195 526 l 1,32,-1
 195 556 l 2,33,34
 195 661 195 661 241.5 702 c 128,-1,35
 288 743 288 743 376 743 c 0,0,1
EndSplineSet
EndChar

StartChar: Aringacute
Encoding: 506 506 322
Width: 706
GlyphClass: 2
Flags: W
AnchorPoint: "Anchor-2" 353 958 basechar 0
AnchorPoint: "Anchor-0" 353 0 basechar 0
LayerCount: 2
Fore
SplineSet
282 864 m 1,0,-1
 282 874 l 1,1,2
 303 890 303 890 327 914 c 128,-1,3
 351 938 351 938 367 958 c 1,4,-1
 554 958 l 1,5,-1
 554 950 l 1,6,7
 546 942 546 942 527 930.5 c 128,-1,8
 508 919 508 919 483.5 906.5 c 128,-1,9
 459 894 459 894 435 882.5 c 128,-1,10
 411 871 411 871 394 864 c 1,11,-1
 282 864 l 1,0,-1
0 0 m 1,12,-1
 240 662 l 1,13,14
 227 685 227 685 227 718 c 0,15,16
 227 774 227 774 261.5 805.5 c 128,-1,17
 296 837 296 837 352 837 c 0,18,19
 405 837 405 837 442.5 805.5 c 128,-1,20
 480 774 480 774 480 719 c 0,21,22
 480 702 480 702 476 687.5 c 128,-1,23
 472 673 472 673 465 661 c 1,24,-1
 707 0 l 1,25,-1
 522 0 l 1,26,-1
 476 149 l 1,27,-1
 230 149 l 1,28,-1
 185 0 l 1,29,-1
 0 0 l 1,12,-1
352 674 m 0,30,31
 372 674 372 674 384 685.5 c 128,-1,32
 396 697 396 697 396 718 c 0,33,34
 396 738 396 738 383.5 750 c 128,-1,35
 371 762 371 762 352 762 c 0,36,37
 332 762 332 762 320 750 c 128,-1,38
 308 738 308 738 308 718 c 256,39,40
 308 698 308 698 319 686 c 128,-1,41
 330 674 330 674 352 674 c 0,30,31
268 291 m 1,42,-1
 441 291 l 1,43,-1
 400 414 l 2,44,45
 394 432 394 432 384.5 460.5 c 128,-1,46
 375 489 375 489 366 518.5 c 128,-1,47
 357 548 357 548 353 568 c 1,48,49
 349 548 349 548 340 518 c 128,-1,50
 331 488 331 488 322 459 c 128,-1,51
 313 430 313 430 308 414 c 2,52,-1
 268 291 l 1,42,-1
EndSplineSet
Substitution2: "'c2sc' Capitals to Small Capitals lookup 33 subtable" aringacute.sc
EndChar

StartChar: aringacute
Encoding: 507 507 323
Width: 613
GlyphClass: 2
Flags: W
AnchorPoint: "Anchor-2" 307 961 basechar 0
AnchorPoint: "Anchor-0" 307 0 basechar 0
LayerCount: 2
Fore
SplineSet
492 961 m 1,0,-1
 492 955 l 1,1,2
 482 944 482 944 454 925.5 c 128,-1,3
 426 907 426 907 394 888.5 c 128,-1,4
 362 870 362 870 339 859 c 1,5,-1
 228 859 l 1,6,-1
 228 867 l 1,7,8
 249 886 249 886 273 912.5 c 128,-1,9
 297 939 297 939 313 961 c 1,10,-1
 492 961 l 1,0,-1
312 826 m 0,11,12
 365 826 365 826 402.5 794 c 128,-1,13
 440 762 440 762 440 707 c 0,14,15
 440 651 440 651 403 619 c 128,-1,16
 366 587 366 587 312 587 c 0,17,18
 256 587 256 587 221.5 618.5 c 128,-1,19
 187 650 187 650 187 706 c 256,20,21
 187 762 187 762 221.5 794 c 128,-1,22
 256 826 256 826 312 826 c 0,11,12
312 750 m 256,23,24
 293 750 293 750 280.5 738 c 128,-1,25
 268 726 268 726 268 706 c 256,26,27
 268 686 268 686 279 674 c 128,-1,28
 290 662 290 662 312 662 c 0,29,30
 331 662 331 662 343.5 674 c 128,-1,31
 356 686 356 686 356 706 c 256,32,33
 356 726 356 726 343.5 738 c 128,-1,34
 331 750 331 750 312 750 c 256,23,24
318 560 m 0,35,36
 425 560 425 560 484 510.5 c 128,-1,37
 543 461 543 461 543 364 c 2,38,-1
 543 0 l 1,39,-1
 426 0 l 1,40,-1
 393 74 l 1,41,-1
 389 74 l 1,42,43
 354 30 354 30 315 10 c 128,-1,44
 276 -10 276 -10 208 -10 c 0,45,46
 135 -10 135 -10 87 33 c 128,-1,47
 39 76 39 76 39 167 c 0,48,49
 39 256 39 256 99.5 297 c 128,-1,50
 160 338 160 338 281 343 c 2,51,-1
 375 346 l 1,52,-1
 375 362 l 2,53,54
 375 402 375 402 354.5 420 c 128,-1,55
 334 438 334 438 298 438 c 0,56,57
 261 438 261 438 222.5 426.5 c 128,-1,58
 184 415 184 415 144 398 c 1,59,-1
 93 510 l 1,60,61
 138 534 138 534 195 547 c 128,-1,62
 252 560 252 560 318 560 c 0,35,36
375 250 m 1,63,-1
 324 248 l 2,64,65
 261 246 261 246 236.5 224.5 c 128,-1,66
 212 203 212 203 212 168 c 0,67,68
 212 136 212 136 229 123.5 c 128,-1,69
 246 111 246 111 275 111 c 0,70,71
 317 111 317 111 346 136.5 c 128,-1,72
 375 162 375 162 375 206 c 2,73,-1
 375 250 l 1,63,-1
EndSplineSet
Substitution2: "'smcp' Lowercase to Small Capitals lookup 34 subtable" aringacute.sc
EndChar

StartChar: circumflex
Encoding: 710 710 330
Width: 513
Flags: W
LayerCount: 2
Fore
SplineSet
348 766 m 1,0,1
 362 744 362 744 385 716.5 c 128,-1,2
 408 689 408 689 432 663 c 128,-1,3
 456 637 456 637 473 619 c 1,4,-1
 473 606 l 1,5,-1
 362 606 l 1,6,7
 336 622 336 622 309 641.5 c 128,-1,8
 282 661 282 661 256 686 c 1,9,10
 230 661 230 661 203.5 641.5 c 128,-1,11
 177 622 177 622 151 606 c 1,12,-1
 40 606 l 1,13,-1
 40 619 l 1,14,15
 58 638 58 638 82 663.5 c 128,-1,16
 106 689 106 689 128.5 716.5 c 128,-1,17
 151 744 151 744 165 766 c 1,18,-1
 348 766 l 1,0,1
EndSplineSet
EndChar

StartChar: caron
Encoding: 711 711 331
Width: 513
Flags: W
LayerCount: 2
Fore
SplineSet
165 606 m 1,0,1
 151 628 151 628 128.5 655.5 c 128,-1,2
 106 683 106 683 82 708.5 c 128,-1,3
 58 734 58 734 40 753 c 1,4,-1
 40 766 l 1,5,-1
 151 766 l 1,6,7
 177 750 177 750 203.5 730.5 c 128,-1,8
 230 711 230 711 256 686 c 1,9,10
 282 711 282 711 309 730.5 c 128,-1,11
 336 750 336 750 362 766 c 1,12,-1
 473 766 l 1,13,-1
 473 753 l 1,14,15
 456 735 456 735 432 709 c 128,-1,16
 408 683 408 683 385 655.5 c 128,-1,17
 362 628 362 628 348 606 c 1,18,-1
 165 606 l 1,0,1
EndSplineSet
EndChar

StartChar: macron
Encoding: 713 713 332
Width: 422
Flags: W
LayerCount: 2
Fore
SplineSet
382 715 m 1,0,-1
 382 606 l 1,1,-1
 40 606 l 1,2,-1
 40 715 l 1,3,-1
 382 715 l 1,0,-1
EndSplineSet
EndChar

StartChar: breve
Encoding: 728 728 333
Width: 469
Flags: W
LayerCount: 2
Fore
SplineSet
429 778 m 1,0,1
 424 702 424 702 371.5 654 c 128,-1,2
 319 606 319 606 233 606 c 0,3,4
 142 606 142 606 93 652.5 c 128,-1,5
 44 699 44 699 40 778 c 1,6,-1
 132 778 l 1,7,8
 139 736 139 736 165 726 c 128,-1,9
 191 716 191 716 233 716 c 0,10,11
 267 716 267 716 296.5 727.5 c 128,-1,12
 326 739 326 739 334 778 c 1,13,-1
 429 778 l 1,0,1
EndSplineSet
EndChar

StartChar: dotaccent
Encoding: 729 729 334
Width: 261
Flags: W
LayerCount: 2
Fore
SplineSet
130 767 m 0,0,1
 167 767 167 767 194 751 c 128,-1,2
 221 735 221 735 221 689 c 0,3,4
 221 644 221 644 194 627.5 c 128,-1,5
 167 611 167 611 130 611 c 0,6,7
 92 611 92 611 66 627.5 c 128,-1,8
 40 644 40 644 40 689 c 0,9,10
 40 735 40 735 66 751 c 128,-1,11
 92 767 92 767 130 767 c 0,0,1
EndSplineSet
EndChar

StartChar: ring
Encoding: 730 730 335
Width: 333
Flags: W
LayerCount: 2
Fore
SplineSet
165 605 m 0,0,1
 109 605 109 605 74.5 636.5 c 128,-1,2
 40 668 40 668 40 724 c 256,3,4
 40 780 40 780 74.5 811.5 c 128,-1,5
 109 843 109 843 165 843 c 0,6,7
 218 843 218 843 255.5 811.5 c 128,-1,8
 293 780 293 780 293 725 c 0,9,10
 293 669 293 669 256 637 c 128,-1,11
 219 605 219 605 165 605 c 0,0,1
165 680 m 0,12,13
 184 680 184 680 196.5 692 c 128,-1,14
 209 704 209 704 209 724 c 256,15,16
 209 744 209 744 196.5 756 c 128,-1,17
 184 768 184 768 165 768 c 256,18,19
 146 768 146 768 133 756 c 128,-1,20
 120 744 120 744 120 724 c 256,21,22
 120 704 120 704 131.5 692 c 128,-1,23
 143 680 143 680 165 680 c 0,12,13
EndSplineSet
EndChar

StartChar: ogonek
Encoding: 731 731 336
Width: 288
Flags: W
LayerCount: 2
Fore
SplineSet
153 -105 m 0,0,1
 153 -124 153 -124 163.5 -132.5 c 128,-1,2
 174 -141 174 -141 191 -141 c 0,3,4
 205 -141 205 -141 221.5 -138 c 128,-1,5
 238 -135 238 -135 248 -131 c 1,6,-1
 248 -228 l 1,7,8
 232 -233 232 -233 213 -236.5 c 128,-1,9
 194 -240 194 -240 168 -240 c 0,10,11
 112 -240 112 -240 76 -209 c 128,-1,12
 40 -178 40 -178 40 -128 c 0,13,14
 40 -49 40 -49 152 21 c 1,15,-1
 221 0 l 1,16,17
 187 -32 187 -32 170 -56 c 128,-1,18
 153 -80 153 -80 153 -105 c 0,0,1
EndSplineSet
EndChar

StartChar: tilde
Encoding: 732 732 337
Width: 488
Flags: W
LayerCount: 2
Fore
SplineSet
40 605 m 1,0,1
 46 689 46 689 81 726 c 128,-1,2
 116 763 116 763 168 763 c 0,3,4
 194 763 194 763 221 750.5 c 128,-1,5
 248 738 248 738 274 726 c 128,-1,6
 300 714 300 714 325 714 c 0,7,8
 337 714 337 714 349.5 725 c 128,-1,9
 362 736 362 736 367 764 c 1,10,-1
 448 764 l 1,11,12
 442 681 442 681 406 643.5 c 128,-1,13
 370 606 370 606 321 606 c 0,14,15
 293 606 293 606 265.5 618 c 128,-1,16
 238 630 238 630 212 642.5 c 128,-1,17
 186 655 186 655 162 655 c 0,18,19
 150 655 150 655 138 644.5 c 128,-1,20
 126 634 126 634 120 605 c 1,21,-1
 40 605 l 1,0,1
EndSplineSet
EndChar

StartChar: hungarumlaut
Encoding: 733 733 338
Width: 550
Flags: W
LayerCount: 2
Fore
SplineSet
510 766 m 1,0,-1
 510 756 l 1,1,2
 502 743 502 743 481.5 723 c 128,-1,3
 461 703 461 703 434.5 681 c 128,-1,4
 408 659 408 659 382 639.5 c 128,-1,5
 356 620 356 620 337 606 c 1,6,-1
 249 606 l 1,7,-1
 249 619 l 1,8,9
 263 638 263 638 281.5 664 c 128,-1,10
 300 690 300 690 317.5 717 c 128,-1,11
 335 744 335 744 347 766 c 1,12,-1
 510 766 l 1,0,-1
300 766 m 1,13,-1
 300 756 l 1,14,15
 292 743 292 743 271.5 723 c 128,-1,16
 251 703 251 703 225 681 c 128,-1,17
 199 659 199 659 173 639.5 c 128,-1,18
 147 620 147 620 128 606 c 1,19,-1
 40 606 l 1,20,-1
 40 619 l 1,21,22
 54 638 54 638 72 664 c 128,-1,23
 90 690 90 690 107.5 717 c 128,-1,24
 125 744 125 744 138 766 c 1,25,-1
 300 766 l 1,13,-1
EndSplineSet
EndChar

StartChar: tonos
Encoding: 900 900 339
Width: 560
Flags: W
AnchorPoint: "Anchor-10" 278 549 mark 0
AnchorPoint: "Anchor-6" 278 549 mark 0
AnchorPoint: "Anchor-2" 278 549 mark 0
LayerCount: 2
Fore
SplineSet
218 606 m 1,0,-1
 218 621 l 1,1,2
 225 644 225 644 232.5 675.5 c 128,-1,3
 240 707 240 707 247 738.5 c 128,-1,4
 254 770 254 770 257 796 c 1,5,-1
 408 796 l 1,6,-1
 408 783 l 1,7,8
 391 742 391 742 367.5 698 c 128,-1,9
 344 654 344 654 316 606 c 1,10,-1
 218 606 l 1,0,-1
EndSplineSet
EndChar

StartChar: dieresistonos
Encoding: 901 901 340
Width: 571
Flags: W
AnchorPoint: "Anchor-10" 285 549 mark 0
AnchorPoint: "Anchor-6" 285 549 mark 0
AnchorPoint: "Anchor-2" 285 549 mark 0
LayerCount: 2
Fore
SplineSet
399 838 m 1,0,-1
 399 828 l 1,1,2
 385 795 385 795 362 756.5 c 128,-1,3
 339 718 339 718 311 678 c 1,4,-1
 236 678 l 1,5,-1
 236 691 l 1,6,7
 243 720 243 720 251 763 c 128,-1,8
 259 806 259 806 261 838 c 1,9,-1
 399 838 l 1,0,-1
148 759 m 0,10,11
 178 759 178 759 197.5 742 c 128,-1,12
 217 725 217 725 217 688 c 0,13,14
 217 652 217 652 197.5 635 c 128,-1,15
 178 618 178 618 148 618 c 0,16,17
 116 618 116 618 97.5 635 c 128,-1,18
 79 652 79 652 79 688 c 0,19,20
 79 725 79 725 97.5 742 c 128,-1,21
 116 759 116 759 148 759 c 0,10,11
431 759 m 0,22,23
 462 759 462 759 481.5 742 c 128,-1,24
 501 725 501 725 501 688 c 0,25,26
 501 652 501 652 481.5 635 c 128,-1,27
 462 618 462 618 431 618 c 0,28,29
 399 618 399 618 380 635 c 128,-1,30
 361 652 361 652 361 688 c 0,31,32
 361 725 361 725 380 742 c 128,-1,33
 399 759 399 759 431 759 c 0,22,23
EndSplineSet
EndChar

StartChar: Gamma
Encoding: 915 915 352
Width: 569
GlyphClass: 2
Flags: W
AnchorPoint: "Anchor-2" 327 714 basechar 0
AnchorPoint: "Anchor-0" 285 0 basechar 0
LayerCount: 2
Fore
SplineSet
547 714 m 1,0,-1
 547 575 l 1,1,-1
 255 575 l 1,2,-1
 255 0 l 1,3,-1
 84 0 l 1,4,-1
 84 714 l 1,5,-1
 547 714 l 1,0,-1
EndSplineSet
EndChar

StartChar: uni0394
Encoding: 916 916 353
Width: 680
GlyphClass: 2
Flags: W
AnchorPoint: "Anchor-2" 340 714 basechar 0
AnchorPoint: "Anchor-0" 340 0 basechar 0
LayerCount: 2
Fore
SplineSet
439 718 m 1,0,-1
 658 96 l 1,1,-1
 658 0 l 1,2,-1
 22 0 l 1,3,-1
 22 97 l 1,4,-1
 242 718 l 1,5,-1
 439 718 l 1,0,-1
478 141 m 1,6,-1
 360 499 l 2,7,8
 358 507 358 507 353.5 523 c 128,-1,9
 349 539 349 539 345 555.5 c 128,-1,10
 341 572 341 572 340 581 c 1,11,12
 339 572 339 572 335 555.5 c 128,-1,13
 331 539 331 539 326.5 523 c 128,-1,14
 322 507 322 507 320 499 c 2,15,-1
 203 141 l 1,16,-1
 478 141 l 1,6,-1
EndSplineSet
EndChar

StartChar: Theta
Encoding: 920 920 357
Width: 796
GlyphClass: 2
Flags: W
AnchorPoint: "Anchor-3" 776 714 basechar 0
AnchorPoint: "Anchor-2" 398 714 basechar 0
AnchorPoint: "Anchor-1" 398 357 basechar 0
AnchorPoint: "Anchor-0" 399 0 basechar 0
LayerCount: 2
Fore
SplineSet
741 358 m 256,0,1
 741 247 741 247 705 164.5 c 128,-1,2
 669 82 669 82 593.5 36 c 128,-1,3
 518 -10 518 -10 398 -10 c 0,4,5
 280 -10 280 -10 204 36 c 128,-1,6
 128 82 128 82 91.5 165 c 128,-1,7
 55 248 55 248 55 359 c 256,8,9
 55 470 55 470 91.5 552 c 128,-1,10
 128 634 128 634 204 679.5 c 128,-1,11
 280 725 280 725 399 725 c 256,12,13
 518 725 518 725 593.5 679.5 c 128,-1,14
 669 634 669 634 705 551.5 c 128,-1,15
 741 469 741 469 741 358 c 256,0,1
234 358 m 256,16,17
 234 253 234 253 272.5 193 c 128,-1,18
 311 133 311 133 398 133 c 0,19,20
 486 133 486 133 524 193 c 128,-1,21
 562 253 562 253 562 358 c 256,22,23
 562 463 562 463 524.5 523.5 c 128,-1,24
 487 584 487 584 399 584 c 256,25,26
 311 584 311 584 272.5 523.5 c 128,-1,27
 234 463 234 463 234 358 c 256,16,17
513 430 m 1,28,-1
 513 296 l 1,29,-1
 283 296 l 1,30,-1
 283 430 l 1,31,-1
 513 430 l 1,28,-1
EndSplineSet
EndChar

StartChar: Lambda
Encoding: 923 923 360
Width: 670
GlyphClass: 2
Flags: W
AnchorPoint: "Anchor-2" 335 714 basechar 0
AnchorPoint: "Anchor-0" 335 0 basechar 0
LayerCount: 2
Fore
SplineSet
432 714 m 1,0,-1
 670 0 l 1,1,-1
 488 0 l 1,2,-1
 371 398 l 2,3,4
 366 415 366 415 358.5 446 c 128,-1,5
 351 477 351 477 344.5 509.5 c 128,-1,6
 338 542 338 542 335 561 c 1,7,8
 332 540 332 540 326 508.5 c 128,-1,9
 320 477 320 477 313 446.5 c 128,-1,10
 306 416 306 416 300 398 c 2,11,-1
 182 0 l 1,12,-1
 0 0 l 1,13,-1
 238 714 l 1,14,-1
 432 714 l 1,0,-1
EndSplineSet
EndChar

StartChar: Xi
Encoding: 926 926 363
Width: 572
GlyphClass: 2
Flags: W
AnchorPoint: "Anchor-2" 286 714 basechar 0
AnchorPoint: "Anchor-0" 286 0 basechar 0
LayerCount: 2
Fore
SplineSet
60 576 m 1,0,-1
 60 714 l 1,1,-1
 513 714 l 1,2,-1
 513 576 l 1,3,-1
 60 576 l 1,0,-1
100 301 m 1,4,-1
 100 439 l 1,5,-1
 473 439 l 1,6,-1
 473 301 l 1,7,-1
 100 301 l 1,4,-1
40 0 m 1,8,-1
 40 140 l 1,9,-1
 533 140 l 1,10,-1
 533 0 l 1,11,-1
 40 0 l 1,8,-1
EndSplineSet
EndChar

StartChar: Pi
Encoding: 928 928 365
Width: 742
GlyphClass: 2
Flags: W
AnchorPoint: "Anchor-2" 372 714 basechar 0
AnchorPoint: "Anchor-0" 372 0 basechar 0
LayerCount: 2
Fore
SplineSet
84 0 m 1,0,-1
 84 714 l 1,1,-1
 658 714 l 1,2,-1
 658 0 l 1,3,-1
 487 0 l 1,4,-1
 487 573 l 1,5,-1
 255 573 l 1,6,-1
 255 0 l 1,7,-1
 84 0 l 1,0,-1
EndSplineSet
EndChar

StartChar: Sigma
Encoding: 931 931 367
Width: 597
GlyphClass: 2
Flags: W
AnchorPoint: "Anchor-2" 299 714 basechar 0
AnchorPoint: "Anchor-0" 299 0 basechar 0
LayerCount: 2
Fore
SplineSet
37 0 m 1,0,-1
 37 133 l 1,1,-1
 261 374 l 1,2,-1
 43 585 l 1,3,-1
 43 714 l 1,4,-1
 533 714 l 1,5,-1
 533 576 l 1,6,-1
 341 576 l 2,7,8
 312 576 312 576 285 576.5 c 128,-1,9
 258 577 258 577 229 581 c 1,10,-1
 444 375 l 1,11,-1
 218 134 l 1,12,13
 252 137 252 137 283 138.5 c 128,-1,14
 314 140 314 140 349 140 c 2,15,-1
 562 140 l 1,16,-1
 562 0 l 1,17,-1
 37 0 l 1,0,-1
EndSplineSet
EndChar

StartChar: Phi
Encoding: 934 934 370
Width: 876
GlyphClass: 2
Flags: W
AnchorPoint: "Anchor-2" 438 714 basechar 0
AnchorPoint: "Anchor-0" 438 0 basechar 0
LayerCount: 2
Fore
SplineSet
517 724 m 1,0,-1
 517 636 l 1,1,2
 632 634 632 634 701.5 597 c 128,-1,3
 771 560 771 560 802.5 500 c 128,-1,4
 834 440 834 440 834 370 c 0,5,6
 834 320 834 320 817.5 272.5 c 128,-1,7
 801 225 801 225 764.5 186.5 c 128,-1,8
 728 148 728 148 667 124.5 c 128,-1,9
 606 101 606 101 517 100 c 1,10,-1
 517 -10 l 1,11,-1
 358 -10 l 1,12,-1
 358 100 l 1,13,14
 268 101 268 101 207 124 c 128,-1,15
 146 147 146 147 109.5 185.5 c 128,-1,16
 73 224 73 224 57 272 c 128,-1,17
 41 320 41 320 41 370 c 0,18,19
 41 421 41 421 57.5 468.5 c 128,-1,20
 74 516 74 516 111 553.5 c 128,-1,21
 148 591 148 591 209 613 c 128,-1,22
 270 635 270 635 358 636 c 1,23,-1
 358 724 l 1,24,-1
 517 724 l 1,0,-1
358 505 m 1,25,26
 299 503 299 503 265.5 484.5 c 128,-1,27
 232 466 232 466 218.5 436.5 c 128,-1,28
 205 407 205 407 205 371 c 0,29,30
 205 310 205 310 238 271 c 128,-1,31
 271 232 271 232 358 230 c 1,32,-1
 358 505 l 1,25,26
517 505 m 1,33,-1
 517 230 l 1,34,35
 603 232 603 232 637 271 c 128,-1,36
 671 310 671 310 671 371 c 0,37,38
 671 408 671 408 656.5 437.5 c 128,-1,39
 642 467 642 467 608.5 485 c 128,-1,40
 575 503 575 503 517 505 c 1,33,-1
EndSplineSet
EndChar

StartChar: Psi
Encoding: 936 936 372
Width: 901
GlyphClass: 2
Flags: W
AnchorPoint: "Anchor-2" 450 714 basechar 0
AnchorPoint: "Anchor-0" 450 0 basechar 0
LayerCount: 2
Fore
SplineSet
847 714 m 1,0,-1
 847 480 l 2,1,2
 847 386 847 386 817 325.5 c 128,-1,3
 787 265 787 265 717.5 235.5 c 128,-1,4
 648 206 648 206 530 204 c 1,5,-1
 530 0 l 1,6,-1
 371 0 l 1,7,-1
 371 204 l 1,8,9
 251 206 251 206 182 234.5 c 128,-1,10
 113 263 113 263 83.5 322 c 128,-1,11
 54 381 54 381 54 473 c 2,12,-1
 54 714 l 1,13,-1
 218 714 l 1,14,-1
 218 475 l 2,15,16
 218 397 218 397 255 370 c 128,-1,17
 292 343 292 343 371 343 c 1,18,-1
 371 714 l 1,19,-1
 530 714 l 1,20,-1
 530 343 l 1,21,22
 601 343 601 343 642 370 c 128,-1,23
 683 397 683 397 683 473 c 2,24,-1
 683 714 l 1,25,-1
 847 714 l 1,0,-1
EndSplineSet
EndChar

StartChar: uni03A9
Encoding: 937 937 373
Width: 791
GlyphClass: 2
Flags: W
AnchorPoint: "Anchor-2" 395 714 basechar 0
AnchorPoint: "Anchor-0" 395 0 basechar 0
LayerCount: 2
Fore
SplineSet
395 584 m 0,0,1
 321 584 321 584 274 536 c 128,-1,2
 227 488 227 488 227 392 c 0,3,4
 227 310 227 310 252.5 252 c 128,-1,5
 278 194 278 194 345 155 c 1,6,-1
 345 0 l 1,7,-1
 26 0 l 1,8,-1
 26 141 l 1,9,-1
 207 141 l 1,10,11
 133 182 133 182 92.5 258 c 128,-1,12
 52 334 52 334 52 424 c 0,13,14
 52 516 52 516 94 584 c 128,-1,15
 136 652 136 652 213 688.5 c 128,-1,16
 290 725 290 725 395 725 c 0,17,18
 499 725 499 725 576.5 688.5 c 128,-1,19
 654 652 654 652 696.5 584 c 128,-1,20
 739 516 739 516 739 424 c 0,21,22
 739 333 739 333 698.5 258.5 c 128,-1,23
 658 184 658 184 581 141 c 1,24,-1
 765 141 l 1,25,-1
 765 0 l 1,26,-1
 443 0 l 1,27,-1
 443 155 l 1,28,29
 511 194 511 194 537.5 253 c 128,-1,30
 564 312 564 312 564 393 c 0,31,32
 564 488 564 488 517 536 c 128,-1,33
 470 584 470 584 395 584 c 0,0,1
EndSplineSet
EndChar

StartChar: alpha
Encoding: 945 945 381
Width: 659
GlyphClass: 2
Flags: W
AnchorPoint: "Anchor-2" 329 549 basechar 0
AnchorPoint: "Anchor-0" 326 0 basechar 0
LayerCount: 2
Fore
SplineSet
256 -10 m 0,0,1
 161 -10 161 -10 102.5 62 c 128,-1,2
 44 134 44 134 44 272 c 0,3,4
 44 413 44 413 105 485.5 c 128,-1,5
 166 558 166 558 268 558 c 0,6,7
 325 558 325 558 361.5 537.5 c 128,-1,8
 398 517 398 517 422 476 c 1,9,-1
 430 476 l 1,10,11
 434 493 434 493 442.5 513.5 c 128,-1,12
 451 534 451 534 463 549 c 1,13,-1
 603 549 l 1,14,15
 592 518 592 518 579 457 c 128,-1,16
 566 396 566 396 566 325 c 2,17,-1
 566 185 l 2,18,19
 566 150 566 150 578 138.5 c 128,-1,20
 590 127 590 127 606 127 c 0,21,22
 613 127 613 127 622 128.5 c 128,-1,23
 631 130 631 130 635 132 c 1,24,-1
 635 3 l 1,25,26
 628 -2 628 -2 604 -6 c 128,-1,27
 580 -10 580 -10 564 -10 c 0,28,29
 509 -10 509 -10 476.5 8 c 128,-1,30
 444 26 444 26 424 72 c 1,31,-1
 413 72 l 1,32,33
 391 38 391 38 353 14 c 128,-1,34
 315 -10 315 -10 256 -10 c 0,0,1
310 122 m 0,35,36
 365 122 365 122 386.5 157.5 c 128,-1,37
 408 193 408 193 410 268 c 2,38,-1
 410 273 l 2,39,40
 410 346 410 346 388 385.5 c 128,-1,41
 366 425 366 425 308 425 c 0,42,43
 262 425 262 425 238.5 385.5 c 128,-1,44
 215 346 215 346 215 271 c 0,45,46
 215 122 215 122 310 122 c 0,35,36
EndSplineSet
EndChar

StartChar: beta
Encoding: 946 946 382
Width: 672
GlyphClass: 2
Flags: W
AnchorPoint: "Anchor-3" 592 765 basechar 0
AnchorPoint: "Anchor-2" 341 765 basechar 0
AnchorPoint: "Anchor-0" 426 0 basechar 0
LayerCount: 2
Fore
SplineSet
341 765 m 0,0,1
 414 765 414 765 471 743.5 c 128,-1,2
 528 722 528 722 560.5 679.5 c 128,-1,3
 593 637 593 637 593 573 c 0,4,5
 593 501 593 501 556.5 458.5 c 128,-1,6
 520 416 520 416 453 405 c 1,7,-1
 453 402 l 1,8,9
 536 392 536 392 585 348.5 c 128,-1,10
 634 305 634 305 634 214 c 0,11,12
 634 144 634 144 604.5 93.5 c 128,-1,13
 575 43 575 43 521.5 16.5 c 128,-1,14
 468 -10 468 -10 397 -10 c 0,15,16
 303 -10 303 -10 241 20 c 1,17,-1
 241 -240 l 1,18,-1
 72 -240 l 1,19,-1
 72 535 l 2,20,21
 72 616 72 616 107.5 666.5 c 128,-1,22
 143 717 143 717 204 741 c 128,-1,23
 265 765 265 765 341 765 c 0,0,1
336 637 m 0,24,25
 310 637 310 637 288.5 627 c 128,-1,26
 267 617 267 617 254 591.5 c 128,-1,27
 241 566 241 566 241 520 c 2,28,-1
 241 154 l 1,29,30
 260 140 260 140 291.5 131.5 c 128,-1,31
 323 123 323 123 349 123 c 0,32,33
 404 123 404 123 433 150.5 c 128,-1,34
 462 178 462 178 462 229 c 0,35,36
 462 266 462 266 445.5 287.5 c 128,-1,37
 429 309 429 309 402.5 318 c 128,-1,38
 376 327 376 327 347 327 c 2,39,-1
 315 327 l 1,40,-1
 315 456 l 1,41,-1
 338 456 l 2,42,43
 383 456 383 456 404 482.5 c 128,-1,44
 425 509 425 509 425 550 c 0,45,46
 425 593 425 593 400.5 615 c 128,-1,47
 376 637 376 637 336 637 c 0,24,25
EndSplineSet
EndChar

StartChar: gamma
Encoding: 947 947 383
Width: 584
GlyphClass: 2
Flags: W
AnchorPoint: "Anchor-3" 574 549 basechar 0
AnchorPoint: "Anchor-2" 292 549 basechar 0
AnchorPoint: "Anchor-0" 292 -240 basechar 0
LayerCount: 2
Fore
SplineSet
586 549 m 1,0,-1
 383 8 l 2,1,2
 360 -53 360 -53 347.5 -121.5 c 128,-1,3
 335 -190 335 -190 335 -240 c 1,4,-1
 157 -240 l 1,5,6
 157 -212 157 -212 163.5 -170 c 128,-1,7
 170 -128 170 -128 181 -81.5 c 128,-1,8
 192 -35 192 -35 205 6 c 1,9,-1
 0 549 l 1,10,-1
 175 549 l 1,11,-1
 245 337 l 2,12,13
 254 310 254 310 263.5 275.5 c 128,-1,14
 273 241 273 241 280.5 209 c 128,-1,15
 288 177 288 177 291 155 c 1,16,-1
 294 155 l 1,17,18
 297 178 297 178 309 226.5 c 128,-1,19
 321 275 321 275 339 329 c 2,20,-1
 410 549 l 1,21,-1
 586 549 l 1,0,-1
EndSplineSet
EndChar

StartChar: delta
Encoding: 948 948 384
Width: 627
GlyphClass: 2
Flags: W
AnchorPoint: "Anchor-2" 314 767 basechar 0
AnchorPoint: "Anchor-0" 314 0 basechar 0
LayerCount: 2
Fore
SplineSet
346 767 m 0,0,1
 414 767 414 767 469.5 752.5 c 128,-1,2
 525 738 525 738 580 712 c 1,3,-1
 516 592 l 1,4,5
 469 615 469 615 425.5 628.5 c 128,-1,6
 382 642 382 642 344 642 c 0,7,8
 308 642 308 642 293 630.5 c 128,-1,9
 278 619 278 619 278 601 c 0,10,11
 278 578 278 578 309 556 c 128,-1,12
 340 534 340 534 410 496 c 0,13,14
 501 448 501 448 542 386.5 c 128,-1,15
 583 325 583 325 583 243 c 0,16,17
 583 114 583 114 508.5 52 c 128,-1,18
 434 -10 434 -10 311 -10 c 0,19,20
 233 -10 233 -10 173 16 c 128,-1,21
 113 42 113 42 78.5 92 c 128,-1,22
 44 142 44 142 44 214 c 0,23,24
 44 306 44 306 92.5 361.5 c 128,-1,25
 141 417 141 417 228 444 c 1,26,27
 179 476 179 476 148 518 c 128,-1,28
 117 560 117 560 117 613 c 0,29,30
 117 685 117 685 176.5 726 c 128,-1,31
 236 767 236 767 346 767 c 0,0,1
322 377 m 1,32,33
 300 370 300 370 275 352 c 128,-1,34
 250 334 250 334 233 302 c 128,-1,35
 216 270 216 270 216 222 c 0,36,37
 216 178 216 178 241 149 c 128,-1,38
 266 120 266 120 312 120 c 256,39,40
 358 120 358 120 385 150.5 c 128,-1,41
 412 181 412 181 412 238 c 0,42,43
 412 285 412 285 387 319 c 128,-1,44
 362 353 362 353 322 377 c 1,32,33
EndSplineSet
EndChar

StartChar: epsilon
Encoding: 949 949 385
Width: 555
GlyphClass: 2
Flags: W
AnchorPoint: "Anchor-2" 311 549 basechar 0
AnchorPoint: "Anchor-0" 278 0 basechar 0
LayerCount: 2
Fore
SplineSet
410 342 m 1,0,-1
 410 229 l 1,1,-1
 333 229 l 2,2,3
 257 229 257 229 229.5 214.5 c 128,-1,4
 202 200 202 200 202 172 c 0,5,6
 202 151 202 151 226 134 c 128,-1,7
 250 117 250 117 319 117 c 0,8,9
 380 117 380 117 432 130.5 c 128,-1,10
 484 144 484 144 518 160 c 1,11,-1
 518 28 l 1,12,13
 478 11 478 11 426 0.5 c 128,-1,14
 374 -10 374 -10 300 -10 c 0,15,16
 158 -10 158 -10 96.5 34 c 128,-1,17
 35 78 35 78 35 154 c 0,18,19
 35 208 35 208 70 241 c 128,-1,20
 105 274 105 274 168 284 c 1,21,-1
 168 289 l 1,22,23
 118 301 118 301 92 333.5 c 128,-1,24
 66 366 66 366 66 413 c 0,25,26
 66 466 66 466 98.5 498 c 128,-1,27
 131 530 131 530 186 544.5 c 128,-1,28
 241 559 241 559 307 559 c 0,29,30
 366 559 366 559 419.5 548.5 c 128,-1,31
 473 538 473 538 518 518 c 1,32,-1
 469 400 l 1,33,34
 432 416 432 416 395 426.5 c 128,-1,35
 358 437 358 437 313 437 c 0,36,37
 220 437 220 437 220 393 c 0,38,39
 220 366 220 366 249 354 c 128,-1,40
 278 342 278 342 342 342 c 2,41,-1
 410 342 l 1,0,-1
EndSplineSet
EndChar

StartChar: zeta
Encoding: 950 950 386
Width: 504
GlyphClass: 2
Flags: W
AnchorPoint: "Anchor-2" 252 760 basechar 0
AnchorPoint: "Anchor-0" 252 -182 basechar 0
LayerCount: 2
Fore
SplineSet
505 -14 m 0,0,1
 505 -58 505 -58 484.5 -101.5 c 128,-1,2
 464 -145 464 -145 437 -182 c 1,3,-1
 266 -182 l 1,4,5
 298 -143 298 -143 318.5 -104 c 128,-1,6
 339 -65 339 -65 339 -45 c 0,7,8
 339 -34 339 -34 331.5 -25.5 c 128,-1,9
 324 -17 324 -17 303 -9 c 128,-1,10
 282 -1 282 -1 239 8 c 0,11,12
 134 30 134 30 89 84 c 128,-1,13
 44 138 44 138 44 229 c 0,14,15
 44 343 44 343 116.5 446 c 128,-1,16
 189 549 189 549 311 645 c 1,17,18
 294 640 294 640 264 638 c 128,-1,19
 234 636 234 636 215 636 c 2,20,-1
 71 636 l 1,21,-1
 71 760 l 1,22,-1
 498 760 l 1,23,-1
 498 660 l 1,24,25
 408 586 408 586 352 524.5 c 128,-1,26
 296 463 296 463 266.5 412 c 128,-1,27
 237 361 237 361 226.5 317.5 c 128,-1,28
 216 274 216 274 216 237 c 0,29,30
 216 198 216 198 230.5 176.5 c 128,-1,31
 245 155 245 155 275 144 c 128,-1,32
 305 133 305 133 352 123 c 0,33,34
 439 105 439 105 472 69.5 c 128,-1,35
 505 34 505 34 505 -14 c 0,0,1
EndSplineSet
EndChar

StartChar: eta
Encoding: 951 951 387
Width: 663
GlyphClass: 2
Flags: W
AnchorPoint: "Anchor-2" 342 549 basechar 0
AnchorPoint: "Anchor-0" 331 -240 basechar 0
LayerCount: 2
Fore
SplineSet
399 559 m 0,0,1
 484 559 484 559 538.5 511.5 c 128,-1,2
 593 464 593 464 593 358 c 2,3,-1
 593 -240 l 1,4,-1
 425 -240 l 1,5,-1
 425 317 l 2,6,7
 425 370 425 370 406 398 c 128,-1,8
 387 426 387 426 346 426 c 0,9,10
 284 426 284 426 262.5 380.5 c 128,-1,11
 241 335 241 335 241 250 c 2,12,-1
 241 0 l 1,13,-1
 72 0 l 1,14,-1
 72 549 l 1,15,-1
 200 549 l 1,16,-1
 222 480 l 1,17,-1
 232 480 l 1,18,19
 258 522 258 522 303 540.5 c 128,-1,20
 348 559 348 559 399 559 c 0,0,1
EndSplineSet
EndChar

StartChar: theta
Encoding: 952 952 388
Width: 629
GlyphClass: 2
Flags: W
AnchorPoint: "Anchor-3" 549 768 basechar 0
AnchorPoint: "Anchor-2" 315 768 basechar 0
AnchorPoint: "Anchor-0" 315 0 basechar 0
LayerCount: 2
Fore
SplineSet
585 379 m 0,0,1
 585 257 585 257 558 170 c 128,-1,2
 531 83 531 83 471.5 36.5 c 128,-1,3
 412 -10 412 -10 314 -10 c 0,4,5
 177 -10 177 -10 110.5 93 c 128,-1,6
 44 196 44 196 44 379 c 0,7,8
 44 501 44 501 70.5 588 c 128,-1,9
 97 675 97 675 156.5 721.5 c 128,-1,10
 216 768 216 768 314 768 c 0,11,12
 450 768 450 768 517.5 666 c 128,-1,13
 585 564 585 564 585 379 c 0,0,1
315 648 m 256,14,15
 266 648 266 648 243 596 c 128,-1,16
 220 544 220 544 216 441 c 1,17,-1
 414 441 l 1,18,19
 410 544 410 544 387 596 c 128,-1,20
 364 648 364 648 315 648 c 256,14,15
314 110 m 0,21,22
 364 110 364 110 388 162.5 c 128,-1,23
 412 215 412 215 414 319 c 1,24,-1
 215 319 l 1,25,26
 216 216 216 216 239.5 163 c 128,-1,27
 263 110 263 110 314 110 c 0,21,22
EndSplineSet
EndChar

StartChar: iota
Encoding: 953 953 389
Width: 420
GlyphClass: 2
Flags: W
AnchorPoint: "Anchor-2" 164 549 basechar 0
AnchorPoint: "Anchor-0" 232 0 basechar 0
LayerCount: 2
Fore
SplineSet
240 549 m 1,0,-1
 240 180 l 2,1,2
 240 148 240 148 258 135.5 c 128,-1,3
 276 123 276 123 302 123 c 256,4,5
 328 123 328 123 350.5 128 c 128,-1,6
 373 133 373 133 399 142 c 1,7,-1
 399 18 l 1,8,9
 374 6 374 6 339 -2 c 128,-1,10
 304 -10 304 -10 261 -10 c 0,11,12
 208 -10 208 -10 165 6.5 c 128,-1,13
 122 23 122 23 97 63.5 c 128,-1,14
 72 104 72 104 72 176 c 2,15,-1
 72 549 l 1,16,-1
 240 549 l 1,0,-1
EndSplineSet
EndChar

StartChar: lambda
Encoding: 955 955 391
Width: 638
GlyphClass: 2
Flags: W
AnchorPoint: "Anchor-2" 320 766 basechar 0
AnchorPoint: "Anchor-0" 320 0 basechar 0
LayerCount: 2
Fore
SplineSet
2 0 m 1,0,-1
 236 516 l 1,1,-1
 224 549 l 2,2,3
 204 601 204 601 179.5 615 c 128,-1,4
 155 629 155 629 120 629 c 0,5,6
 106 629 106 629 90.5 627 c 128,-1,7
 75 625 75 625 63 623 c 1,8,-1
 63 758 l 1,9,10
 76 761 76 761 103.5 763.5 c 128,-1,11
 131 766 131 766 149 766 c 0,12,13
 214 766 214 766 257 746.5 c 128,-1,14
 300 727 300 727 328 687.5 c 128,-1,15
 356 648 356 648 378 589 c 2,16,-1
 507 231 l 2,17,18
 524 186 524 186 538 163.5 c 128,-1,19
 552 141 552 141 566 134 c 128,-1,20
 580 127 580 127 596 127 c 0,21,22
 604 127 604 127 612.5 128 c 128,-1,23
 621 129 621 129 631 132 c 1,24,-1
 631 6 l 1,25,26
 623 2 623 2 605 -2 c 128,-1,27
 587 -6 587 -6 567.5 -8 c 128,-1,28
 548 -10 548 -10 536 -10 c 0,29,30
 490 -10 490 -10 460 7 c 128,-1,31
 430 24 430 24 411 52 c 128,-1,32
 392 80 392 80 379 115 c 2,33,-1
 338 230 l 2,34,35
 328 261 328 261 320 288.5 c 128,-1,36
 312 316 312 316 307 335 c 1,37,-1
 304 335 l 1,38,39
 298 310 298 310 289.5 281 c 128,-1,40
 281 252 281 252 273 232 c 2,41,-1
 176 0 l 1,42,-1
 2 0 l 1,0,-1
EndSplineSet
EndChar

StartChar: nu
Encoding: 957 957 393
Width: 607
GlyphClass: 2
Flags: W
AnchorPoint: "Anchor-2" 304 549 basechar 0
AnchorPoint: "Anchor-0" 304 0 basechar 0
LayerCount: 2
Fore
SplineSet
2 549 m 1,0,-1
 174 549 l 1,1,-1
 278 242 l 2,2,3
 284 224 284 224 292 197 c 128,-1,4
 300 170 300 170 304 150 c 1,5,-1
 308 150 l 1,6,7
 340 198 340 198 360 253.5 c 128,-1,8
 380 309 380 309 390 381 c 128,-1,9
 400 453 400 453 400 549 c 1,10,-1
 569 549 l 1,11,12
 569 442 569 442 549.5 349.5 c 128,-1,13
 530 257 530 257 483 171.5 c 128,-1,14
 436 86 436 86 354 0 c 1,15,-1
 208 0 l 1,16,-1
 2 549 l 1,0,-1
EndSplineSet
EndChar

StartChar: xi
Encoding: 958 958 394
Width: 506
GlyphClass: 2
Flags: W
AnchorPoint: "Anchor-2" 253 760 basechar 0
AnchorPoint: "Anchor-0" 253 -182 basechar 0
LayerCount: 2
Fore
SplineSet
44 211 m 0,0,1
 44 278 44 278 80 324 c 128,-1,2
 116 370 116 370 181 395 c 1,3,-1
 181 400 l 1,4,5
 75 423 75 423 75 520 c 0,6,7
 75 564 75 564 104 595.5 c 128,-1,8
 133 627 133 627 199 642 c 1,9,10
 192 641 192 641 171 639.5 c 128,-1,11
 150 638 150 638 125 637 c 128,-1,12
 100 636 100 636 84 636 c 2,13,-1
 66 636 l 1,14,-1
 66 760 l 1,15,-1
 478 760 l 1,16,-1
 478 639 l 1,17,-1
 422 639 l 2,18,19
 374 639 374 639 333 628 c 128,-1,20
 292 617 292 617 267 593.5 c 128,-1,21
 242 570 242 570 242 531 c 0,22,23
 242 494 242 494 268.5 474 c 128,-1,24
 295 454 295 454 368 454 c 2,25,-1
 448 454 l 1,26,-1
 448 334 l 1,27,-1
 368 334 l 2,28,29
 280 334 280 334 248 305 c 128,-1,30
 216 276 216 276 216 227 c 0,31,32
 216 194 216 194 229 175 c 128,-1,33
 242 156 242 156 271 145 c 128,-1,34
 300 134 300 134 349 123 c 0,35,36
 437 105 437 105 471 69.5 c 128,-1,37
 505 34 505 34 505 -14 c 0,38,39
 505 -58 505 -58 484.5 -101.5 c 128,-1,40
 464 -145 464 -145 437 -182 c 1,41,-1
 266 -182 l 1,42,43
 298 -143 298 -143 318.5 -104 c 128,-1,44
 339 -65 339 -65 339 -45 c 0,45,46
 339 -29 339 -29 322.5 -17.5 c 128,-1,47
 306 -6 306 -6 249 6 c 0,48,49
 148 26 148 26 96 76.5 c 128,-1,50
 44 127 44 127 44 211 c 0,0,1
EndSplineSet
EndChar

StartChar: pi
Encoding: 960 960 396
Width: 765
GlyphClass: 2
Flags: W
AnchorPoint: "Anchor-2" 383 549 basechar 0
AnchorPoint: "Anchor-0" 383 0 basechar 0
LayerCount: 2
Fore
SplineSet
656 122 m 0,0,1
 672 122 672 122 690.5 127 c 128,-1,2
 709 132 709 132 725 139 c 1,3,-1
 725 21 l 1,4,5
 705 9 705 9 670.5 -0.5 c 128,-1,6
 636 -10 636 -10 598 -10 c 0,7,8
 441 -10 441 -10 441 160 c 2,9,-1
 441 422 l 1,10,-1
 296 422 l 1,11,-1
 296 0 l 1,12,-1
 127 0 l 1,13,-1
 127 422 l 1,14,-1
 12 422 l 1,15,-1
 12 494 l 1,16,-1
 104 549 l 1,17,-1
 728 549 l 1,18,-1
 728 422 l 1,19,-1
 610 422 l 1,20,-1
 610 173 l 2,21,22
 610 147 610 147 623 134.5 c 128,-1,23
 636 122 636 122 656 122 c 0,0,1
EndSplineSet
EndChar

StartChar: rho
Encoding: 961 961 397
Width: 633
GlyphClass: 2
Flags: W
AnchorPoint: "Anchor-2" 316 549 basechar 0
AnchorPoint: "Anchor-0" 316 -240 basechar 0
LayerCount: 2
Fore
SplineSet
589 274 m 0,0,1
 589 138 589 138 529.5 64 c 128,-1,2
 470 -10 470 -10 367 -10 c 0,3,4
 330 -10 330 -10 294 0 c 128,-1,5
 258 10 258 10 232 26 c 1,6,-1
 221 26 l 1,7,8
 221 26 221 26 223 5.5 c 128,-1,9
 225 -15 225 -15 227.5 -45.5 c 128,-1,10
 230 -76 230 -76 230 -105 c 2,11,-1
 230 -240 l 1,12,-1
 61 -240 l 1,13,-1
 61 274 l 2,14,15
 61 408 61 408 130.5 483.5 c 128,-1,16
 200 559 200 559 328 559 c 0,17,18
 403 559 403 559 462 525 c 128,-1,19
 521 491 521 491 555 427.5 c 128,-1,20
 589 364 589 364 589 274 c 0,0,1
325 429 m 0,21,22
 278 429 278 429 254 395.5 c 128,-1,23
 230 362 230 362 230 289 c 2,24,-1
 230 163 l 1,25,26
 249 143 249 143 274.5 133 c 128,-1,27
 300 123 300 123 326 123 c 0,28,29
 374 123 374 123 395.5 157.5 c 128,-1,30
 417 192 417 192 417 274 c 256,31,32
 417 356 417 356 395.5 392.5 c 128,-1,33
 374 429 374 429 325 429 c 0,21,22
EndSplineSet
EndChar

StartChar: sigma1
Encoding: 962 962 398
Width: 514
GlyphClass: 2
Flags: W
AnchorPoint: "Anchor-2" 257 549 basechar 0
AnchorPoint: "Anchor-0" 257 -182 basechar 0
LayerCount: 2
Fore
SplineSet
322 559 m 0,0,1
 418 559 418 559 505 517 c 1,2,-1
 457 392 l 1,3,4
 419 407 419 407 383.5 416 c 128,-1,5
 348 425 348 425 320 425 c 0,6,7
 264 425 264 425 239.5 381.5 c 128,-1,8
 215 338 215 338 215 256 c 0,9,10
 215 216 215 216 229 192 c 128,-1,11
 243 168 243 168 273 154 c 128,-1,12
 303 140 303 140 352 129 c 0,13,14
 439 111 439 111 472 75 c 128,-1,15
 505 39 505 39 505 -10 c 0,16,17
 505 -56 505 -56 484.5 -100 c 128,-1,18
 464 -144 464 -144 437 -182 c 1,19,-1
 266 -182 l 1,20,21
 298 -142 298 -142 318.5 -102 c 128,-1,22
 339 -62 339 -62 339 -41 c 0,23,24
 339 -30 339 -30 332 -21 c 128,-1,25
 325 -12 325 -12 303.5 -4 c 128,-1,26
 282 4 282 4 239 14 c 0,27,28
 180 26 180 26 136 54 c 128,-1,29
 92 82 92 82 68 130.5 c 128,-1,30
 44 179 44 179 44 255 c 0,31,32
 44 364 44 364 77.5 430.5 c 128,-1,33
 111 497 111 497 173.5 528 c 128,-1,34
 236 559 236 559 322 559 c 0,0,1
EndSplineSet
EndChar

StartChar: sigma
Encoding: 963 963 399
Width: 666
GlyphClass: 2
Flags: W
AnchorPoint: "Anchor-2" 333 549 basechar 0
AnchorPoint: "Anchor-0" 333 0 basechar 0
LayerCount: 2
Fore
SplineSet
594 232 m 0,0,1
 594 162 594 162 562.5 107.5 c 128,-1,2
 531 53 531 53 469.5 21.5 c 128,-1,3
 408 -10 408 -10 318 -10 c 0,4,5
 236 -10 236 -10 174 21 c 128,-1,6
 112 52 112 52 78 112.5 c 128,-1,7
 44 173 44 173 44 261 c 0,8,9
 44 410 44 410 123.5 480 c 128,-1,10
 203 550 203 550 363 550 c 2,11,-1
 643 550 l 1,12,-1
 643 426 l 1,13,-1
 506 426 l 1,14,15
 546 390 546 390 570 343 c 128,-1,16
 594 296 594 296 594 232 c 0,0,1
216 262 m 0,17,18
 216 201 216 201 240.5 163 c 128,-1,19
 265 125 265 125 320 125 c 0,20,21
 373 125 373 125 397.5 161 c 128,-1,22
 422 197 422 197 422 258 c 0,23,24
 422 317 422 317 407 354 c 128,-1,25
 392 391 392 391 366 426 c 1,26,-1
 348 426 l 2,27,28
 279 426 279 426 247.5 389.5 c 128,-1,29
 216 353 216 353 216 262 c 0,17,18
EndSplineSet
EndChar

StartChar: tau
Encoding: 964 964 400
Width: 534
GlyphClass: 2
Flags: W
AnchorPoint: "Anchor-2" 267 549 basechar 0
AnchorPoint: "Anchor-0" 267 0 basechar 0
LayerCount: 2
Fore
SplineSet
499 549 m 1,0,-1
 499 423 l 1,1,-1
 319 423 l 1,2,-1
 319 181 l 2,3,4
 319 152 319 152 334.5 137.5 c 128,-1,5
 350 123 350 123 377 123 c 0,6,7
 401 123 401 123 423.5 128.5 c 128,-1,8
 446 134 446 134 471 142 c 1,9,-1
 471 18 l 1,10,11
 446 6 446 6 410.5 -2 c 128,-1,12
 375 -10 375 -10 333 -10 c 0,13,14
 280 -10 280 -10 238.5 6 c 128,-1,15
 197 22 197 22 174 62.5 c 128,-1,16
 151 103 151 103 151 176 c 2,17,-1
 151 423 l 1,18,-1
 16 423 l 1,19,-1
 16 494 l 1,20,-1
 106 549 l 1,21,-1
 499 549 l 1,0,-1
EndSplineSet
EndChar

StartChar: upsilon
Encoding: 965 965 401
Width: 653
GlyphClass: 2
Flags: W
AnchorPoint: "Anchor-2" 324 549 basechar 0
AnchorPoint: "Anchor-0" 327 0 basechar 0
LayerCount: 2
Fore
SplineSet
325 -9 m 0,0,1
 224 -9 224 -9 168 25.5 c 128,-1,2
 112 60 112 60 89.5 119 c 128,-1,3
 67 178 67 178 67 251 c 2,4,-1
 67 549 l 1,5,-1
 236 549 l 1,6,-1
 236 244 l 2,7,8
 236 180 236 180 258.5 152.5 c 128,-1,9
 281 125 281 125 330 125 c 0,10,11
 382 125 382 125 408 163.5 c 128,-1,12
 434 202 434 202 434 301 c 0,13,14
 434 364 434 364 424.5 422.5 c 128,-1,15
 415 481 415 481 398 549 c 1,16,-1
 568 549 l 1,17,18
 585 482 585 482 594 424 c 128,-1,19
 603 366 603 366 603 297 c 0,20,21
 603 139 603 139 532.5 65 c 128,-1,22
 462 -9 462 -9 325 -9 c 0,0,1
EndSplineSet
EndChar

StartChar: phi
Encoding: 966 966 402
Width: 817
GlyphClass: 2
Flags: W
AnchorPoint: "Anchor-2" 408 549 basechar 0
AnchorPoint: "Anchor-0" 408 -240 basechar 0
LayerCount: 2
Fore
SplineSet
156 563 m 1,0,-1
 280 486 l 1,1,2
 244 437 244 437 224.5 383 c 128,-1,3
 205 329 205 329 205 267 c 0,4,5
 205 200 205 200 237 166.5 c 128,-1,6
 269 133 269 133 320 121 c 1,7,-1
 320 348 l 2,8,9
 320 452 320 452 375 504.5 c 128,-1,10
 430 557 430 557 527 557 c 0,11,12
 641 557 641 557 707 486.5 c 128,-1,13
 773 416 773 416 773 292 c 0,14,15
 773 200 773 200 733.5 136.5 c 128,-1,16
 694 73 694 73 627 37.5 c 128,-1,17
 560 2 560 2 478 -5 c 1,18,-1
 478 -240 l 1,19,-1
 320 -240 l 1,20,-1
 320 -5 l 1,21,22
 239 2 239 2 177 34 c 128,-1,23
 115 66 115 66 79.5 124 c 128,-1,24
 44 182 44 182 44 270 c 0,25,26
 44 357 44 357 74 428 c 128,-1,27
 104 499 104 499 156 563 c 1,0,-1
529 433 m 0,28,29
 504 433 504 433 491 414.5 c 128,-1,30
 478 396 478 396 478 352 c 2,31,-1
 478 121 l 1,32,33
 544 127 544 127 576.5 176 c 128,-1,34
 609 225 609 225 609 291 c 0,35,36
 609 352 609 352 590.5 392.5 c 128,-1,37
 572 433 572 433 529 433 c 0,28,29
EndSplineSet
EndChar

StartChar: chi
Encoding: 967 967 403
Width: 617
GlyphClass: 2
Flags: W
AnchorPoint: "Anchor-3" 597 549 basechar 0
AnchorPoint: "Anchor-2" 308 549 basechar 0
AnchorPoint: "Anchor-0" 308 -240 basechar 0
LayerCount: 2
Fore
SplineSet
124 557 m 0,0,1
 174 557 174 557 206 543 c 128,-1,2
 238 529 238 529 259 497.5 c 128,-1,3
 280 466 280 466 299 416 c 2,4,-1
 327 334 l 1,5,-1
 443 549 l 1,6,-1
 616 549 l 1,7,-1
 401 180 l 1,8,-1
 493 -48 l 2,9,10
 505 -77 505 -77 521.5 -90 c 128,-1,11
 538 -103 538 -103 563 -103 c 0,12,13
 573 -103 573 -103 584.5 -102.5 c 128,-1,14
 596 -102 596 -102 614 -97 c 1,15,-1
 614 -223 l 1,16,17
 589 -232 589 -232 566 -236 c 128,-1,18
 543 -240 543 -240 508 -240 c 0,19,20
 443 -240 443 -240 403.5 -204 c 128,-1,21
 364 -168 364 -168 341 -95 c 2,22,-1
 297 41 l 1,23,-1
 159 -240 l 1,24,-1
 -25 -240 l 1,25,-1
 221 195 l 1,26,-1
 160 358 l 2,27,28
 146 395 146 395 128 408 c 128,-1,29
 110 421 110 421 89 421 c 0,30,31
 78 421 78 421 63 419 c 128,-1,32
 48 417 48 417 29 410 c 1,33,-1
 29 540 l 1,34,35
 50 547 50 547 73 552 c 128,-1,36
 96 557 96 557 124 557 c 0,0,1
EndSplineSet
EndChar

StartChar: psi
Encoding: 968 968 404
Width: 863
GlyphClass: 2
Flags: W
AnchorPoint: "Anchor-2" 432 759 basechar 0
AnchorPoint: "Anchor-0" 432 -240 basechar 0
LayerCount: 2
Fore
SplineSet
515 759 m 1,0,-1
 515 123 l 1,1,2
 562 128 562 128 592.5 143 c 128,-1,3
 623 158 623 158 638 191 c 128,-1,4
 653 224 653 224 653 282 c 0,5,6
 653 348 653 348 642 413.5 c 128,-1,7
 631 479 631 479 612 549 c 1,8,-1
 771 549 l 1,9,10
 793 476 793 476 803 411.5 c 128,-1,11
 813 347 813 347 813 281 c 0,12,13
 813 178 813 178 773 116 c 128,-1,14
 733 54 733 54 665.5 25 c 128,-1,15
 598 -4 598 -4 515 -9 c 1,16,-1
 515 -240 l 1,17,-1
 357 -240 l 1,18,-1
 357 -9 l 1,19,20
 272 -6 272 -6 206.5 22 c 128,-1,21
 141 50 141 50 104 110.5 c 128,-1,22
 67 171 67 171 67 271 c 2,23,-1
 67 549 l 1,24,-1
 230 549 l 1,25,-1
 230 267 l 2,26,27
 230 188 230 188 260 157.5 c 128,-1,28
 290 127 290 127 357 122 c 1,29,-1
 357 759 l 1,30,-1
 515 759 l 1,0,-1
EndSplineSet
EndChar

StartChar: omega
Encoding: 969 969 405
Width: 887
GlyphClass: 2
Flags: W
AnchorPoint: "Anchor-2" 447 549 basechar 0
AnchorPoint: "Anchor-0" 444 0 basechar 0
LayerCount: 2
Fore
SplineSet
782 549 m 1,0,1
 810 476 810 476 823 412 c 128,-1,2
 836 348 836 348 836 267 c 256,3,4
 836 186 836 186 810.5 123.5 c 128,-1,5
 785 61 785 61 734 25.5 c 128,-1,6
 683 -10 683 -10 606 -10 c 0,7,8
 540 -10 540 -10 502.5 18 c 128,-1,9
 465 46 465 46 446 97 c 1,10,-1
 441 97 l 1,11,12
 422 47 422 47 384.5 18.5 c 128,-1,13
 347 -10 347 -10 280 -10 c 0,14,15
 204 -10 204 -10 153 25.5 c 128,-1,16
 102 61 102 61 76.5 123.5 c 128,-1,17
 51 186 51 186 51 267 c 256,18,19
 51 348 51 348 64 412 c 128,-1,20
 77 476 77 476 104 549 c 1,21,-1
 271 549 l 1,22,23
 240 484 240 484 225 415 c 128,-1,24
 210 346 210 346 210 273 c 0,25,26
 210 121 210 121 294 121 c 0,27,28
 334 121 334 121 349 148 c 128,-1,29
 364 175 364 175 364 241 c 2,30,-1
 364 381 l 1,31,-1
 522 381 l 1,32,-1
 522 241 l 2,33,34
 522 176 522 176 537 148.5 c 128,-1,35
 552 121 552 121 593 121 c 0,36,37
 640 121 640 121 658 164.5 c 128,-1,38
 676 208 676 208 676 271 c 0,39,40
 676 342 676 342 661 413 c 128,-1,41
 646 484 646 484 615 549 c 1,42,-1
 782 549 l 1,0,1
EndSplineSet
EndChar

StartChar: afii10051
Encoding: 1026 1026 412
Width: 816
GlyphClass: 2
Flags: W
AnchorPoint: "Anchor-2" 408 714 basechar 0
AnchorPoint: "Anchor-0" 408 0 basechar 0
LayerCount: 2
Fore
SplineSet
561 -9 m 0,0,1
 536 -9 536 -9 510 -5.5 c 128,-1,2
 484 -2 484 -2 464 7 c 1,3,-1
 464 143 l 1,4,5
 505 125 505 125 539 125 c 0,6,7
 564 125 564 125 579.5 137.5 c 128,-1,8
 595 150 595 150 595 189 c 2,9,-1
 595 253 l 2,10,11
 595 289 595 289 577.5 304.5 c 128,-1,12
 560 320 560 320 520 320 c 2,13,-1
 370 320 l 1,14,-1
 370 0 l 1,15,-1
 199 0 l 1,16,-1
 199 573 l 1,17,-1
 22 573 l 1,18,-1
 22 714 l 1,19,-1
 574 714 l 1,20,-1
 574 573 l 1,21,-1
 370 573 l 1,22,-1
 370 461 l 1,23,-1
 526 461 l 2,24,25
 643 461 643 461 704 408.5 c 128,-1,26
 765 356 765 356 765 264 c 2,27,-1
 765 203 l 2,28,29
 765 101 765 101 715 46 c 128,-1,30
 665 -9 665 -9 561 -9 c 0,0,1
EndSplineSet
EndChar

StartChar: afii10053
Encoding: 1028 1028 414
Width: 674
GlyphClass: 2
Flags: W
AnchorPoint: "Anchor-2" 337 714 basechar 0
AnchorPoint: "Anchor-0" 337 0 basechar 0
LayerCount: 2
Fore
SplineSet
410 582 m 0,0,1
 336 582 336 582 289 542.5 c 128,-1,2
 242 503 242 503 234 425 c 1,3,-1
 531 425 l 1,4,-1
 531 291 l 1,5,-1
 234 291 l 1,6,7
 239 215 239 215 283.5 173.5 c 128,-1,8
 328 132 328 132 413 132 c 0,9,10
 466 132 466 132 513.5 143 c 128,-1,11
 561 154 561 154 616 172 c 1,12,-1
 616 30 l 1,13,14
 569 10 569 10 516 0 c 128,-1,15
 463 -10 463 -10 401 -10 c 0,16,17
 281 -10 281 -10 204.5 35.5 c 128,-1,18
 128 81 128 81 91.5 163.5 c 128,-1,19
 55 246 55 246 55 356 c 0,20,21
 55 463 55 463 95.5 546 c 128,-1,22
 136 629 136 629 216 676.5 c 128,-1,23
 296 724 296 724 413 724 c 0,24,25
 480 724 480 724 536 709 c 128,-1,26
 592 694 592 694 641 672 c 1,27,-1
 583 533 l 1,28,29
 541 554 541 554 501.5 568 c 128,-1,30
 462 582 462 582 410 582 c 0,0,1
EndSplineSet
EndChar

StartChar: afii10058
Encoding: 1033 1033 419
Width: 1014
GlyphClass: 2
Flags: W
AnchorPoint: "Anchor-2" 507 714 basechar 0
AnchorPoint: "Anchor-0" 507 0 basechar 0
LayerCount: 2
Fore
SplineSet
84 -10 m 0,0,1
 63 -10 63 -10 44.5 -7 c 128,-1,2
 26 -4 26 -4 10 1 c 1,3,-1
 10 137 l 1,4,5
 23 132 23 132 35 129.5 c 128,-1,6
 47 127 47 127 61 127 c 0,7,8
 78 127 78 127 91 138.5 c 128,-1,9
 104 150 104 150 114.5 181 c 128,-1,10
 125 212 125 212 136 272 c 0,11,12
 142 302 142 302 152 368 c 128,-1,13
 162 434 162 434 174 524 c 128,-1,14
 186 614 186 614 198 714 c 1,15,-1
 642 714 l 1,16,-1
 642 450 l 1,17,-1
 704 450 l 2,18,19
 798 450 798 450 858 422 c 128,-1,20
 918 394 918 394 947.5 345 c 128,-1,21
 977 296 977 296 977 232 c 0,22,23
 977 123 977 123 905 61.5 c 128,-1,24
 833 0 833 0 691 0 c 2,25,-1
 471 0 l 1,26,-1
 471 573 l 1,27,-1
 341 573 l 1,28,29
 336 530 336 530 329.5 477.5 c 128,-1,30
 323 425 323 425 316 371.5 c 128,-1,31
 309 318 309 318 301 268.5 c 128,-1,32
 293 219 293 219 285 182 c 0,33,34
 272 121 272 121 249 78.5 c 128,-1,35
 226 36 226 36 186.5 13 c 128,-1,36
 147 -10 147 -10 84 -10 c 0,0,1
642 137 m 1,37,-1
 691 137 l 2,38,39
 746 137 746 137 775.5 158.5 c 128,-1,40
 805 180 805 180 805 228 c 0,41,42
 805 275 805 275 772.5 294 c 128,-1,43
 740 313 740 313 687 313 c 2,44,-1
 642 313 l 1,45,-1
 642 137 l 1,37,-1
EndSplineSet
EndChar

StartChar: afii10059
Encoding: 1034 1034 420
Width: 1005
GlyphClass: 2
Flags: W
AnchorPoint: "Anchor-2" 503 714 basechar 0
AnchorPoint: "Anchor-0" 503 0 basechar 0
LayerCount: 2
Fore
SplineSet
84 0 m 1,0,-1
 84 714 l 1,1,-1
 255 714 l 1,2,-1
 255 446 l 1,3,-1
 462 446 l 1,4,-1
 462 714 l 1,5,-1
 632 714 l 1,6,-1
 632 450 l 1,7,-1
 695 450 l 2,8,9
 788 450 788 450 848.5 422 c 128,-1,10
 909 394 909 394 938 345 c 128,-1,11
 967 296 967 296 967 232 c 0,12,13
 967 123 967 123 895.5 61.5 c 128,-1,14
 824 0 824 0 681 0 c 2,15,-1
 462 0 l 1,16,-1
 462 307 l 1,17,-1
 255 307 l 1,18,-1
 255 0 l 1,19,-1
 84 0 l 1,0,-1
632 137 m 1,20,-1
 682 137 l 2,21,22
 737 137 737 137 766.5 158.5 c 128,-1,23
 796 180 796 180 796 228 c 0,24,25
 796 275 796 275 763.5 294 c 128,-1,26
 731 313 731 313 678 313 c 2,27,-1
 632 313 l 1,28,-1
 632 137 l 1,20,-1
EndSplineSet
EndChar

StartChar: afii10060
Encoding: 1035 1035 421
Width: 817
GlyphClass: 2
Flags: W
AnchorPoint: "Anchor-2" 409 714 basechar 0
AnchorPoint: "Anchor-0" 409 0 basechar 0
LayerCount: 2
Fore
SplineSet
574 714 m 1,0,-1
 574 573 l 1,1,-1
 370 573 l 1,2,-1
 370 461 l 1,3,-1
 536 461 l 2,4,5
 646 461 646 461 705.5 408.5 c 128,-1,6
 765 356 765 356 765 264 c 2,7,-1
 765 0 l 1,8,-1
 595 0 l 1,9,-1
 595 253 l 2,10,11
 595 289 595 289 579 304.5 c 128,-1,12
 563 320 563 320 528 320 c 2,13,-1
 370 320 l 1,14,-1
 370 0 l 1,15,-1
 199 0 l 1,16,-1
 199 573 l 1,17,-1
 22 573 l 1,18,-1
 22 714 l 1,19,-1
 574 714 l 1,0,-1
EndSplineSet
EndChar

StartChar: afii10145
Encoding: 1039 1039 424
Width: 743
GlyphClass: 2
Flags: W
AnchorPoint: "Anchor-2" 372 714 basechar 0
AnchorPoint: "Anchor-0" 372 -214 basechar 0
LayerCount: 2
Fore
SplineSet
659 0 m 1,0,-1
 454 0 l 1,1,-1
 454 -214 l 1,2,-1
 289 -214 l 1,3,-1
 289 0 l 1,4,-1
 84 0 l 1,5,-1
 84 714 l 1,6,-1
 255 714 l 1,7,-1
 255 141 l 1,8,-1
 488 141 l 1,9,-1
 488 714 l 1,10,-1
 659 714 l 1,11,-1
 659 0 l 1,0,-1
EndSplineSet
EndChar

StartChar: afii10018
Encoding: 1041 1041 426
Width: 642
GlyphClass: 2
Flags: W
AnchorPoint: "Anchor-2" 321 714 basechar 0
AnchorPoint: "Anchor-0" 321 0 basechar 0
LayerCount: 2
Fore
SplineSet
84 0 m 1,0,-1
 84 714 l 1,1,-1
 544 714 l 1,2,-1
 544 575 l 1,3,-1
 254 575 l 1,4,-1
 254 450 l 1,5,-1
 319 450 l 2,6,7
 416 450 416 450 478 422 c 128,-1,8
 540 394 540 394 570 345 c 128,-1,9
 600 296 600 296 600 232 c 0,10,11
 600 123 600 123 527 61.5 c 128,-1,12
 454 0 454 0 308 0 c 2,13,-1
 84 0 l 1,0,-1
254 137 m 1,14,-1
 306 137 l 2,15,16
 365 137 365 137 396.5 158.5 c 128,-1,17
 428 180 428 180 428 228 c 0,18,19
 428 275 428 275 393.5 294 c 128,-1,20
 359 313 359 313 302 313 c 2,21,-1
 254 313 l 1,22,-1
 254 137 l 1,14,-1
EndSplineSet
EndChar

StartChar: afii10021
Encoding: 1044 1044 429
Width: 787
GlyphClass: 2
Flags: W
AnchorPoint: "Anchor-2" 394 714 basechar 0
AnchorPoint: "Anchor-0" 394 -214 basechar 0
LayerCount: 2
Fore
SplineSet
672 714 m 1,0,-1
 672 141 l 1,1,-1
 768 141 l 1,2,-1
 768 -214 l 1,3,-1
 603 -214 l 1,4,-1
 603 0 l 1,5,-1
 170 0 l 1,6,-1
 170 -214 l 1,7,-1
 5 -214 l 1,8,-1
 5 141 l 1,9,-1
 61 141 l 1,10,11
 122 253 122 253 165.5 394.5 c 128,-1,12
 209 536 209 536 228 714 c 1,13,-1
 672 714 l 1,0,-1
501 573 m 1,14,-1
 364 573 l 1,15,16
 352 469 352 469 320 355.5 c 128,-1,17
 288 242 288 242 241 141 c 1,18,-1
 501 141 l 1,19,-1
 501 573 l 1,14,-1
EndSplineSet
EndChar

StartChar: afii10024
Encoding: 1046 1046 431
Width: 981
GlyphClass: 2
Flags: W
AnchorPoint: "Anchor-2" 490 714 basechar 0
AnchorPoint: "Anchor-0" 491 0 basechar 0
LayerCount: 2
Fore
SplineSet
239 372 m 1,0,-1
 14 714 l 1,1,-1
 194 714 l 1,2,-1
 410 368 l 1,3,-1
 410 714 l 1,4,-1
 572 714 l 1,5,-1
 572 368 l 1,6,-1
 788 714 l 1,7,-1
 968 714 l 1,8,-1
 742 372 l 1,9,-1
 983 0 l 1,10,-1
 798 0 l 1,11,-1
 572 362 l 1,12,-1
 572 0 l 1,13,-1
 410 0 l 1,14,-1
 410 362 l 1,15,-1
 184 0 l 1,16,-1
 -2 0 l 1,17,-1
 239 372 l 1,0,-1
EndSplineSet
EndChar

StartChar: afii10025
Encoding: 1047 1047 432
Width: 656
GlyphClass: 2
Flags: W
AnchorPoint: "Anchor-2" 327 714 basechar 0
AnchorPoint: "Anchor-0" 328 0 basechar 0
LayerCount: 2
Fore
SplineSet
587 547 m 0,0,1
 587 475 587 475 539.5 432 c 128,-1,2
 492 389 492 389 412 376 c 1,3,-1
 412 373 l 1,4,5
 510 364 510 364 560.5 319 c 128,-1,6
 611 274 611 274 611 203 c 0,7,8
 611 109 611 109 534.5 49.5 c 128,-1,9
 458 -10 458 -10 311 -10 c 0,10,11
 225 -10 225 -10 160 0.5 c 128,-1,12
 95 11 95 11 50 29 c 1,13,-1
 50 174 l 1,14,15
 80 159 80 159 119 148.5 c 128,-1,16
 158 138 158 138 198 132.5 c 128,-1,17
 238 127 238 127 272 127 c 0,18,19
 361 127 361 127 400 150 c 128,-1,20
 439 173 439 173 439 218 c 0,21,22
 439 262 439 262 386.5 283 c 128,-1,23
 334 304 334 304 240 304 c 2,24,-1
 165 304 l 1,25,-1
 165 439 l 1,26,-1
 232 439 l 2,27,28
 306 439 306 439 346.5 448 c 128,-1,29
 387 457 387 457 402.5 474.5 c 128,-1,30
 418 492 418 492 418 518 c 0,31,32
 418 550 418 550 389.5 568 c 128,-1,33
 361 586 361 586 301 586 c 0,34,35
 201 586 201 586 118 532 c 1,36,-1
 45 647 l 1,37,38
 102 684 102 684 168 704 c 128,-1,39
 234 724 234 724 329 724 c 0,40,41
 410 724 410 724 467.5 701 c 128,-1,42
 525 678 525 678 556 638 c 128,-1,43
 587 598 587 598 587 547 c 0,0,1
EndSplineSet
EndChar

StartChar: afii10026
Encoding: 1048 1048 433
Width: 833
GlyphClass: 2
Flags: W
AnchorPoint: "Anchor-2" 434 714 basechar 0
AnchorPoint: "Anchor-0" 417 0 basechar 0
LayerCount: 2
Fore
SplineSet
84 714 m 1,0,-1
 240 714 l 1,1,-1
 240 377 l 2,2,3
 240 346 240 346 239 308 c 128,-1,4
 238 270 238 270 236 238 c 128,-1,5
 234 206 234 206 233 190 c 1,6,-1
 236 190 l 1,7,-1
 550 714 l 1,8,-1
 749 714 l 1,9,-1
 749 0 l 1,10,-1
 593 0 l 1,11,-1
 593 327 l 2,12,13
 593 359 593 359 594.5 399 c 128,-1,14
 596 439 596 439 598 474 c 128,-1,15
 600 509 600 509 602 526 c 1,16,-1
 598 526 l 1,17,-1
 284 0 l 1,18,-1
 84 0 l 1,19,-1
 84 714 l 1,0,-1
EndSplineSet
EndChar

StartChar: afii10028
Encoding: 1050 1050 435
Width: 684
GlyphClass: 2
Flags: W
AnchorPoint: "Anchor-2" 367 714 basechar 0
AnchorPoint: "Anchor-0" 342 0 basechar 0
LayerCount: 2
Fore
SplineSet
685 0 m 1,0,-1
 492 0 l 1,1,-1
 255 362 l 1,2,-1
 255 0 l 1,3,-1
 84 0 l 1,4,-1
 84 714 l 1,5,-1
 255 714 l 1,6,-1
 255 368 l 1,7,-1
 487 714 l 1,8,-1
 671 714 l 1,9,-1
 430 372 l 1,10,-1
 685 0 l 1,0,-1
EndSplineSet
EndChar

StartChar: afii10029
Encoding: 1051 1051 436
Width: 753
GlyphClass: 2
Flags: W
AnchorPoint: "Anchor-2" 377 714 basechar 0
AnchorPoint: "Anchor-0" 377 0 basechar 0
LayerCount: 2
Fore
SplineSet
669 0 m 1,0,-1
 498 0 l 1,1,-1
 498 573 l 1,2,-1
 341 573 l 1,3,4
 336 530 336 530 329.5 477.5 c 128,-1,5
 323 425 323 425 316 371.5 c 128,-1,6
 309 318 309 318 301 268.5 c 128,-1,7
 293 219 293 219 285 182 c 0,8,9
 272 121 272 121 249 78.5 c 128,-1,10
 226 36 226 36 186.5 13 c 128,-1,11
 147 -10 147 -10 84 -10 c 0,12,13
 63 -10 63 -10 44.5 -7 c 128,-1,14
 26 -4 26 -4 10 1 c 1,15,-1
 10 137 l 1,16,17
 23 132 23 132 35 129.5 c 128,-1,18
 47 127 47 127 61 127 c 0,19,20
 78 127 78 127 91 138.5 c 128,-1,21
 104 150 104 150 114.5 181 c 128,-1,22
 125 212 125 212 136 272 c 0,23,24
 142 302 142 302 152 368 c 128,-1,25
 162 434 162 434 174 524 c 128,-1,26
 186 614 186 614 198 714 c 1,27,-1
 669 714 l 1,28,-1
 669 0 l 1,0,-1
EndSplineSet
EndChar

StartChar: afii10037
Encoding: 1059 1059 444
Width: 671
GlyphClass: 2
Flags: W
AnchorPoint: "Anchor-2" 345 714 basechar 0
AnchorPoint: "Anchor-0" 336 0 basechar 0
LayerCount: 2
Fore
SplineSet
677 714 m 1,0,-1
 458 211 l 2,1,2
 427 140 427 140 392 90.5 c 128,-1,3
 357 41 357 41 303.5 15.5 c 128,-1,4
 250 -10 250 -10 163 -10 c 0,5,6
 137 -10 137 -10 104.5 -6 c 128,-1,7
 72 -2 72 -2 43 5 c 1,8,-1
 43 149 l 1,9,10
 68 139 68 139 99 135 c 128,-1,11
 130 131 130 131 155 131 c 0,12,13
 200 131 200 131 220.5 152.5 c 128,-1,14
 241 174 241 174 251 202 c 1,15,-1
 11 714 l 1,16,-1
 193 714 l 1,17,-1
 305 447 l 2,18,19
 311 434 311 434 319 414 c 128,-1,20
 327 394 327 394 334.5 373.5 c 128,-1,21
 342 353 342 353 347 338 c 1,22,-1
 352 338 l 1,23,24
 357 355 357 355 365.5 378.5 c 128,-1,25
 374 402 374 402 382.5 424.5 c 128,-1,26
 391 447 391 447 396 461 c 2,27,-1
 497 714 l 1,28,-1
 677 714 l 1,0,-1
EndSplineSet
EndChar

StartChar: afii10040
Encoding: 1062 1062 447
Width: 804
GlyphClass: 2
Flags: W
AnchorPoint: "Anchor-2" 403 714 basechar 0
AnchorPoint: "Anchor-0" 403 -214 basechar 0
LayerCount: 2
Fore
SplineSet
785 138 m 1,0,-1
 785 -214 l 1,1,-1
 620 -214 l 1,2,-1
 620 0 l 1,3,-1
 84 0 l 1,4,-1
 84 714 l 1,5,-1
 255 714 l 1,6,-1
 255 141 l 1,7,-1
 488 141 l 1,8,-1
 488 714 l 1,9,-1
 659 714 l 1,10,-1
 659 138 l 1,11,-1
 785 138 l 1,0,-1
EndSplineSet
EndChar

StartChar: afii10041
Encoding: 1063 1063 448
Width: 742
GlyphClass: 2
Flags: W
AnchorPoint: "Anchor-2" 355 714 basechar 0
AnchorPoint: "Anchor-0" 371 0 basechar 0
LayerCount: 2
Fore
SplineSet
658 0 m 1,0,-1
 487 0 l 1,1,-1
 487 270 l 1,2,3
 423 248 423 248 370 237.5 c 128,-1,4
 317 227 317 227 266 227 c 0,5,6
 166 227 166 227 109.5 276 c 128,-1,7
 53 325 53 325 53 416 c 2,8,-1
 53 714 l 1,9,-1
 223 714 l 1,10,-1
 223 468 l 2,11,12
 223 418 223 418 245 393 c 128,-1,13
 267 368 267 368 321 368 c 0,14,15
 391 368 391 368 487 402 c 1,16,-1
 487 714 l 1,17,-1
 658 714 l 1,18,-1
 658 0 l 1,0,-1
EndSplineSet
EndChar

StartChar: afii10042
Encoding: 1064 1064 449
Width: 1083
GlyphClass: 2
Flags: W
AnchorPoint: "Anchor-2" 541 714 basechar 0
AnchorPoint: "Anchor-0" 541 0 basechar 0
LayerCount: 2
Fore
SplineSet
999 0 m 1,0,-1
 84 0 l 1,1,-1
 84 714 l 1,2,-1
 255 714 l 1,3,-1
 255 141 l 1,4,-1
 457 141 l 1,5,-1
 457 714 l 1,6,-1
 626 714 l 1,7,-1
 626 141 l 1,8,-1
 828 141 l 1,9,-1
 828 714 l 1,10,-1
 999 714 l 1,11,-1
 999 0 l 1,0,-1
EndSplineSet
EndChar

StartChar: afii10043
Encoding: 1065 1065 450
Width: 1144
GlyphClass: 2
Flags: W
AnchorPoint: "Anchor-2" 572 714 basechar 0
AnchorPoint: "Anchor-0" 572 0 basechar 0
LayerCount: 2
Fore
SplineSet
1125 138 m 1,0,-1
 1125 -214 l 1,1,-1
 960 -214 l 1,2,-1
 960 0 l 1,3,-1
 84 0 l 1,4,-1
 84 714 l 1,5,-1
 255 714 l 1,6,-1
 255 141 l 1,7,-1
 457 141 l 1,8,-1
 457 714 l 1,9,-1
 626 714 l 1,10,-1
 626 141 l 1,11,-1
 828 141 l 1,12,-1
 828 714 l 1,13,-1
 999 714 l 1,14,-1
 999 138 l 1,15,-1
 1125 138 l 1,0,-1
EndSplineSet
EndChar

StartChar: afii10044
Encoding: 1066 1066 451
Width: 745
GlyphClass: 2
Flags: W
AnchorPoint: "Anchor-2" 373 714 basechar 0
AnchorPoint: "Anchor-0" 373 0 basechar 0
LayerCount: 2
Fore
SplineSet
189 0 m 1,0,-1
 189 573 l 1,1,-1
 12 573 l 1,2,-1
 12 714 l 1,3,-1
 359 714 l 1,4,-1
 359 450 l 1,5,-1
 424 450 l 2,6,7
 568 450 568 450 636.5 389 c 128,-1,8
 705 328 705 328 705 232 c 0,9,10
 705 123 705 123 631.5 61.5 c 128,-1,11
 558 0 558 0 413 0 c 2,12,-1
 189 0 l 1,0,-1
359 137 m 1,13,-1
 411 137 l 2,14,15
 470 137 470 137 501.5 158.5 c 128,-1,16
 533 180 533 180 533 228 c 0,17,18
 533 275 533 275 498.5 294 c 128,-1,19
 464 313 464 313 406 313 c 2,20,-1
 359 313 l 1,21,-1
 359 137 l 1,13,-1
EndSplineSet
EndChar

StartChar: afii10045
Encoding: 1067 1067 452
Width: 914
GlyphClass: 2
Flags: W
AnchorPoint: "Anchor-2" 454 714 basechar 0
AnchorPoint: "Anchor-0" 457 0 basechar 0
LayerCount: 2
Fore
SplineSet
84 0 m 1,0,-1
 84 714 l 1,1,-1
 254 714 l 1,2,-1
 254 450 l 1,3,-1
 310 450 l 2,4,5
 406 450 406 450 467.5 422 c 128,-1,6
 529 394 529 394 559 345 c 128,-1,7
 589 296 589 296 589 232 c 0,8,9
 589 123 589 123 516.5 61.5 c 128,-1,10
 444 0 444 0 298 0 c 2,11,-1
 84 0 l 1,0,-1
659 0 m 1,12,-1
 659 714 l 1,13,-1
 830 714 l 1,14,-1
 830 0 l 1,15,-1
 659 0 l 1,12,-1
254 137 m 1,16,-1
 298 137 l 2,17,18
 356 137 356 137 387 158.5 c 128,-1,19
 418 180 418 180 418 228 c 0,20,21
 418 275 418 275 385 294 c 128,-1,22
 352 313 352 313 296 313 c 2,23,-1
 254 313 l 1,24,-1
 254 137 l 1,16,-1
EndSplineSet
EndChar

StartChar: afii10046
Encoding: 1068 1068 453
Width: 640
GlyphClass: 2
Flags: W
AnchorPoint: "Anchor-2" 320 714 basechar 0
AnchorPoint: "Anchor-0" 320 0 basechar 0
LayerCount: 2
Fore
SplineSet
84 0 m 1,0,-1
 84 714 l 1,1,-1
 254 714 l 1,2,-1
 254 450 l 1,3,-1
 319 450 l 2,4,5
 416 450 416 450 478 422 c 128,-1,6
 540 394 540 394 570 345 c 128,-1,7
 600 296 600 296 600 232 c 0,8,9
 600 123 600 123 527 61.5 c 128,-1,10
 454 0 454 0 308 0 c 2,11,-1
 84 0 l 1,0,-1
254 137 m 1,12,-1
 306 137 l 2,13,14
 365 137 365 137 396.5 158.5 c 128,-1,15
 428 180 428 180 428 228 c 0,16,17
 428 275 428 275 393.5 294 c 128,-1,18
 359 313 359 313 302 313 c 2,19,-1
 254 313 l 1,20,-1
 254 137 l 1,12,-1
EndSplineSet
EndChar

StartChar: afii10047
Encoding: 1069 1069 454
Width: 666
GlyphClass: 2
Flags: W
AnchorPoint: "Anchor-2" 273 714 basechar 0
AnchorPoint: "Anchor-0" 333 0 basechar 0
LayerCount: 2
Fore
SplineSet
266 582 m 0,0,1
 216 582 216 582 172.5 568 c 128,-1,2
 129 554 129 554 86 534 c 1,3,-1
 35 670 l 1,4,5
 83 692 83 692 143.5 708 c 128,-1,6
 204 724 204 724 273 724 c 0,7,8
 440 724 440 724 525.5 628.5 c 128,-1,9
 611 533 611 533 611 365 c 0,10,11
 611 255 611 255 574 170.5 c 128,-1,12
 537 86 537 86 460 38 c 128,-1,13
 383 -10 383 -10 263 -10 c 0,14,15
 201 -10 201 -10 149 -0.5 c 128,-1,16
 97 9 97 9 50 27 c 1,17,-1
 50 172 l 1,18,19
 106 154 106 154 154 143 c 128,-1,20
 202 132 202 132 254 132 c 0,21,22
 424 132 424 132 433 291 c 1,23,-1
 135 291 l 1,24,-1
 135 425 l 1,25,-1
 432 425 l 1,26,27
 426 502 426 502 382 542 c 128,-1,28
 338 582 338 582 266 582 c 0,0,1
EndSplineSet
EndChar

StartChar: afii10048
Encoding: 1070 1070 455
Width: 1073
GlyphClass: 2
Flags: W
AnchorPoint: "Anchor-2" 536 714 basechar 0
AnchorPoint: "Anchor-0" 536 0 basechar 0
LayerCount: 2
Fore
SplineSet
1018 358 m 256,0,1
 1018 247 1018 247 984 164.5 c 128,-1,2
 950 82 950 82 879 36 c 128,-1,3
 808 -10 808 -10 697 -10 c 0,4,5
 597 -10 597 -10 530.5 28 c 128,-1,6
 464 66 464 66 428 136 c 128,-1,7
 392 206 392 206 384 300 c 1,8,-1
 255 300 l 1,9,-1
 255 0 l 1,10,-1
 84 0 l 1,11,-1
 84 714 l 1,12,-1
 255 714 l 1,13,-1
 255 441 l 1,14,-1
 387 441 l 1,15,16
 403 572 403 572 478.5 648.5 c 128,-1,17
 554 725 554 725 698 725 c 0,18,19
 808 725 808 725 879 679.5 c 128,-1,20
 950 634 950 634 984 551.5 c 128,-1,21
 1018 469 1018 469 1018 358 c 256,0,1
555 358 m 256,22,23
 555 253 555 253 589 193 c 128,-1,24
 623 133 623 133 697 133 c 0,25,26
 774 133 774 133 807 193 c 128,-1,27
 840 253 840 253 840 358 c 256,28,29
 840 463 840 463 807 523.5 c 128,-1,30
 774 584 774 584 699 584 c 0,31,32
 622 584 622 584 588.5 523.5 c 128,-1,33
 555 463 555 463 555 358 c 256,22,23
EndSplineSet
EndChar

StartChar: afii10049
Encoding: 1071 1071 456
Width: 671
GlyphClass: 2
Flags: W
AnchorPoint: "Anchor-2" 336 714 basechar 0
AnchorPoint: "Anchor-0" 336 0 basechar 0
LayerCount: 2
Fore
SplineSet
339 268 m 1,0,-1
 184 0 l 1,1,-1
 -7 0 l 1,2,-1
 192 313 l 1,3,4
 163 327 163 327 135.5 352 c 128,-1,5
 108 377 108 377 90.5 415 c 128,-1,6
 73 453 73 453 73 507 c 0,7,8
 73 608 73 608 145 661 c 128,-1,9
 217 714 217 714 353 714 c 2,10,-1
 587 714 l 1,11,-1
 587 0 l 1,12,-1
 417 0 l 1,13,-1
 417 268 l 1,14,-1
 339 268 l 1,0,-1
417 580 m 1,15,-1
 358 580 l 2,16,17
 299 580 299 580 272.5 557 c 128,-1,18
 246 534 246 534 246 497 c 0,19,20
 246 448 246 448 276 424.5 c 128,-1,21
 306 401 306 401 362 401 c 2,22,-1
 417 401 l 1,23,-1
 417 580 l 1,15,-1
EndSplineSet
EndChar

StartChar: afii10066
Encoding: 1073 1073 458
Width: 636
GlyphClass: 2
Flags: W
AnchorPoint: "Anchor-2" 318 767 basechar 0
AnchorPoint: "Anchor-0" 318 0 basechar 0
LayerCount: 2
Fore
SplineSet
44 329 m 0,0,1
 44 448 44 448 74.5 533.5 c 128,-1,2
 105 619 105 619 175 670.5 c 128,-1,3
 245 722 245 722 362 741 c 0,4,5
 411 748 411 748 464.5 754.5 c 128,-1,6
 518 761 518 761 574 767 c 1,7,-1
 592 624 l 1,8,9
 558 620 558 620 518.5 616 c 128,-1,10
 479 612 479 612 440.5 607.5 c 128,-1,11
 402 603 402 603 372 599 c 0,12,13
 314 591 314 591 280.5 573 c 128,-1,14
 247 555 247 555 231.5 521 c 128,-1,15
 216 487 216 487 213 431 c 1,16,-1
 221 431 l 1,17,18
 232 449 232 449 252.5 467.5 c 128,-1,19
 273 486 273 486 304 499 c 128,-1,20
 335 512 335 512 376 512 c 0,21,22
 471 512 471 512 530.5 454 c 128,-1,23
 590 396 590 396 590 274 c 0,24,25
 590 180 590 180 555 116.5 c 128,-1,26
 520 53 520 53 458.5 21.5 c 128,-1,27
 397 -10 397 -10 316 -10 c 0,28,29
 234 -10 234 -10 172.5 29.5 c 128,-1,30
 111 69 111 69 77.5 144.5 c 128,-1,31
 44 220 44 220 44 329 c 0,0,1
325 121 m 0,32,33
 367 121 367 121 393 151 c 128,-1,34
 419 181 419 181 419 257 c 0,35,36
 419 317 419 317 400 353.5 c 128,-1,37
 381 390 381 390 334 390 c 0,38,39
 306 390 306 390 281.5 376 c 128,-1,40
 257 362 257 362 239.5 344 c 128,-1,41
 222 326 222 326 215 313 c 1,42,43
 215 266 215 266 225.5 222 c 128,-1,44
 236 178 236 178 260 149.5 c 128,-1,45
 284 121 284 121 325 121 c 0,32,33
EndSplineSet
Substitution2: "'locl' Localized Forms in Cyrillic lookup 17 subtable" afii10066.loclSRB
EndChar

StartChar: afii10067
Encoding: 1074 1074 459
Width: 629
GlyphClass: 2
Flags: W
AnchorPoint: "Anchor-2" 315 549 basechar 0
AnchorPoint: "Anchor-0" 315 0 basechar 0
LayerCount: 2
Fore
SplineSet
569 406 m 0,0,1
 569 362 569 362 542.5 330 c 128,-1,2
 516 298 516 298 462 289 c 1,3,-1
 462 285 l 1,4,5
 520 278 520 278 553 245 c 128,-1,6
 586 212 586 212 586 161 c 0,7,8
 586 117 586 117 563 80 c 128,-1,9
 540 43 540 43 485.5 21.5 c 128,-1,10
 431 0 431 0 338 0 c 2,11,-1
 72 0 l 1,12,-1
 72 549 l 1,13,-1
 338 549 l 2,14,15
 448 549 448 549 508.5 515.5 c 128,-1,16
 569 482 569 482 569 406 c 0,0,1
400 388 m 0,17,18
 400 435 400 435 333 435 c 2,19,-1
 241 435 l 1,20,-1
 241 339 l 1,21,-1
 321 339 l 2,22,23
 400 339 400 339 400 388 c 0,17,18
414 174 m 0,24,25
 414 201 414 201 394 215 c 128,-1,26
 374 229 374 229 329 229 c 2,27,-1
 241 229 l 1,28,-1
 241 113 l 1,29,-1
 329 113 l 2,30,31
 370 113 370 113 392 128 c 128,-1,32
 414 143 414 143 414 174 c 0,24,25
EndSplineSet
EndChar

StartChar: afii10068
Encoding: 1075 1075 460
Width: 489
GlyphClass: 2
Flags: W
AnchorPoint: "Anchor-2" 271 549 basechar 0
AnchorPoint: "Anchor-0" 245 0 basechar 0
LayerCount: 2
Fore
SplineSet
465 549 m 1,0,-1
 465 423 l 1,1,-1
 241 423 l 1,2,-1
 241 0 l 1,3,-1
 72 0 l 1,4,-1
 72 549 l 1,5,-1
 465 549 l 1,0,-1
EndSplineSet
EndChar

StartChar: afii10069
Encoding: 1076 1076 461
Width: 679
GlyphClass: 2
Flags: W
AnchorPoint: "Anchor-2" 340 549 basechar 0
AnchorPoint: "Anchor-0" 340 -199 basechar 0
LayerCount: 2
Fore
SplineSet
585 549 m 1,0,-1
 585 124 l 1,1,-1
 666 124 l 1,2,-1
 666 -199 l 1,3,-1
 516 -199 l 1,4,-1
 516 0 l 1,5,-1
 162 0 l 1,6,-1
 162 -199 l 1,7,-1
 13 -199 l 1,8,-1
 13 124 l 1,9,-1
 60 124 l 1,10,11
 110 203 110 203 139 315.5 c 128,-1,12
 168 428 168 428 178 549 c 1,13,-1
 585 549 l 1,0,-1
416 423 m 1,14,-1
 314 423 l 1,15,16
 303 341 303 341 284 268 c 128,-1,17
 265 195 265 195 233 124 c 1,18,-1
 416 124 l 1,19,-1
 416 423 l 1,14,-1
EndSplineSet
EndChar

StartChar: afii10072
Encoding: 1078 1078 463
Width: 918
GlyphClass: 2
Flags: W
AnchorPoint: "Anchor-2" 457 549 basechar 0
AnchorPoint: "Anchor-0" 459 0 basechar 0
LayerCount: 2
Fore
SplineSet
901 549 m 1,0,-1
 706 287 l 1,1,-1
 920 0 l 1,2,-1
 738 0 l 1,3,-1
 539 279 l 1,4,-1
 539 0 l 1,5,-1
 379 0 l 1,6,-1
 379 279 l 1,7,-1
 180 0 l 1,8,-1
 -2 0 l 1,9,-1
 212 287 l 1,10,-1
 17 549 l 1,11,-1
 195 549 l 1,12,-1
 379 283 l 1,13,-1
 379 549 l 1,14,-1
 539 549 l 1,15,-1
 539 283 l 1,16,-1
 723 549 l 1,17,-1
 901 549 l 1,0,-1
EndSplineSet
EndChar

StartChar: afii10073
Encoding: 1079 1079 464
Width: 550
GlyphClass: 2
Flags: W
AnchorPoint: "Anchor-2" 268 549 basechar 0
AnchorPoint: "Anchor-0" 275 0 basechar 0
LayerCount: 2
Fore
SplineSet
262 559 m 0,0,1
 326 559 326 559 379 544 c 128,-1,2
 432 529 432 529 464 496.5 c 128,-1,3
 496 464 496 464 496 412 c 0,4,5
 496 365 496 365 467.5 334.5 c 128,-1,6
 439 304 439 304 392 291 c 1,7,-1
 392 286 l 1,8,9
 450 276 450 276 482.5 244.5 c 128,-1,10
 515 213 515 213 515 158 c 0,11,12
 515 84 515 84 449.5 37 c 128,-1,13
 384 -10 384 -10 242 -10 c 0,14,15
 172 -10 172 -10 123 -1.5 c 128,-1,16
 74 7 74 7 37 23 c 1,17,-1
 37 156 l 1,18,19
 70 142 70 142 118.5 129.5 c 128,-1,20
 167 117 167 117 226 117 c 0,21,22
 288 117 288 117 318.5 132.5 c 128,-1,23
 349 148 349 148 349 173 c 0,24,25
 349 202 349 202 319.5 215.5 c 128,-1,26
 290 229 290 229 216 229 c 2,27,-1
 152 229 l 1,28,-1
 152 342 l 1,29,-1
 209 342 l 2,30,31
 276 342 276 342 309 353 c 128,-1,32
 342 364 342 364 342 392 c 0,33,34
 342 414 342 414 320 425.5 c 128,-1,35
 298 437 298 437 248 437 c 0,36,37
 168 437 168 437 87 402 c 1,38,-1
 39 518 l 1,39,40
 87 538 87 538 139.5 548.5 c 128,-1,41
 192 559 192 559 262 559 c 0,0,1
EndSplineSet
EndChar

StartChar: afii10074
Encoding: 1080 1080 465
Width: 718
GlyphClass: 2
Flags: W
AnchorPoint: "Anchor-2" 360 549 basechar 0
AnchorPoint: "Anchor-0" 359 0 basechar 0
LayerCount: 2
Fore
SplineSet
230 549 m 1,0,-1
 230 334 l 2,1,2
 230 311 230 311 228.5 280.5 c 128,-1,3
 227 250 227 250 224.5 222 c 128,-1,4
 222 194 222 194 221 180 c 1,5,-1
 453 549 l 1,6,-1
 646 549 l 1,7,-1
 646 0 l 1,8,-1
 488 0 l 1,9,-1
 488 210 l 2,10,11
 488 236 488 236 489.5 266.5 c 128,-1,12
 491 297 491 297 492.5 324.5 c 128,-1,13
 494 352 494 352 496 370 c 1,14,-1
 264 0 l 1,15,-1
 72 0 l 1,16,-1
 72 549 l 1,17,-1
 230 549 l 1,0,-1
EndSplineSet
EndChar

StartChar: afii10076
Encoding: 1082 1082 467
Width: 645
GlyphClass: 2
Flags: W
AnchorPoint: "Anchor-2" 341 549 basechar 0
AnchorPoint: "Anchor-0" 323 0 basechar 0
LayerCount: 2
Fore
SplineSet
444 549 m 1,0,-1
 630 549 l 1,1,-1
 418 286 l 1,2,-1
 647 0 l 1,3,-1
 456 0 l 1,4,-1
 241 279 l 1,5,-1
 241 0 l 1,6,-1
 72 0 l 1,7,-1
 72 549 l 1,8,-1
 241 549 l 1,9,-1
 241 283 l 1,10,-1
 444 549 l 1,0,-1
EndSplineSet
EndChar

StartChar: afii10077
Encoding: 1083 1083 468
Width: 664
GlyphClass: 2
Flags: W
AnchorPoint: "Anchor-2" 333 549 basechar 0
AnchorPoint: "Anchor-0" 333 0 basechar 0
LayerCount: 2
Fore
SplineSet
592 0 m 1,0,-1
 424 0 l 1,1,-1
 424 423 l 1,2,-1
 298 423 l 1,3,4
 284 266 284 266 262 171 c 128,-1,5
 240 76 240 76 199 33 c 128,-1,6
 158 -10 158 -10 89 -10 c 0,7,8
 64 -10 64 -10 42 -6 c 128,-1,9
 20 -2 20 -2 4 6 c 1,10,-1
 4 135 l 1,11,12
 24 126 24 126 49 126 c 0,13,14
 66 126 66 126 80 142 c 128,-1,15
 94 158 94 158 107 202 c 128,-1,16
 120 246 120 246 130.5 329.5 c 128,-1,17
 141 413 141 413 150 549 c 1,18,-1
 592 549 l 1,19,-1
 592 0 l 1,0,-1
EndSplineSet
EndChar

